<svg width="26" height="25" viewBox="0 0 26 25" fill="none" xmlns="http://www.w3.org/2000/svg">
<rect width="26" height="25" rx="12.5" fill="white"/>
<path d="M8.51811 18.5C8.53969 17.6581 8.72049 16.889 9.0605 16.1928C9.38971 15.4103 10.1669 14.5818 11.392 13.7075C12.4552 12.9466 13.1433 12.4015 13.4563 12.0722C13.9366 11.5595 14.1768 10.9983 14.1768 10.3884C14.1768 9.89189 14.0392 9.47902 13.7639 9.14981C13.4887 8.82059 13.0947 8.65599 12.582 8.65599C11.8804 8.65599 11.4028 8.91774 11.1491 9.44124C11.0034 9.74347 10.917 10.2238 10.8901 10.8822H8.64763C8.68541 9.88379 8.86621 9.07695 9.19002 8.4617C9.80528 7.29056 10.8982 6.70499 12.4687 6.70499C13.71 6.70499 14.6976 7.0504 15.4316 7.74121C16.1656 8.42662 16.5326 9.336 16.5326 10.4694C16.5326 11.3383 16.2735 12.11 15.7554 12.7846C15.4154 13.2326 14.8568 13.7318 14.0796 14.2823L13.1568 14.938C12.5793 15.3482 12.1826 15.645 11.9667 15.8285C11.7563 16.012 11.5782 16.2252 11.4325 16.4681H16.5568V18.5H8.51811Z" fill="#0E508F"/>
</svg>
