<svg width="26" height="25" viewBox="0 0 26 25" fill="none" xmlns="http://www.w3.org/2000/svg">
<rect width="26" height="25" rx="12.5" fill="white"/>
<path d="M10.7039 14.8975C10.7039 15.3671 10.7794 15.7557 10.9305 16.0633C11.2112 16.63 11.7212 16.9133 12.4606 16.9133C12.9139 16.9133 13.3079 16.7595 13.6425 16.4519C13.9825 16.1388 14.1525 15.6909 14.1525 15.108C14.1525 14.3363 13.8395 13.8209 13.2134 13.5618C12.8572 13.4161 12.296 13.3432 11.5296 13.3432V11.6918C12.2798 11.681 12.8033 11.6081 13.1001 11.4732C13.6128 11.2465 13.8692 10.7878 13.8692 10.097C13.8692 9.64902 13.7369 9.28473 13.4725 9.00409C13.2134 8.72345 12.8464 8.58313 12.3715 8.58313C11.8264 8.58313 11.4244 8.75583 11.1653 9.10123C10.9116 9.44664 10.7902 9.90808 10.801 10.4855H8.64763C8.66922 9.90268 8.76906 9.34949 8.94716 8.82599C9.13606 8.36725 9.43289 7.94359 9.83766 7.55501C10.1399 7.27977 10.4988 7.06929 10.9143 6.92357C11.3299 6.77785 11.8399 6.70499 12.4444 6.70499C13.5669 6.70499 14.4709 6.99643 15.1563 7.5793C15.8471 8.15677 16.1925 8.93393 16.1925 9.91078C16.1925 10.6016 15.9875 11.1845 15.5773 11.6594C15.3182 11.9562 15.0484 12.1586 14.7678 12.2665C14.9782 12.2665 15.2805 12.4473 15.6744 12.8089C16.2627 13.354 16.5568 14.0988 16.5568 15.0433C16.5568 16.0363 16.2114 16.9106 15.5206 17.6662C14.8352 18.4163 13.8179 18.7914 12.4687 18.7914C10.8064 18.7914 9.65146 18.249 9.00383 17.1643C8.66382 16.5868 8.47493 15.8312 8.43715 14.8975H10.7039Z" fill="#0E508F"/>
</svg>
