<svg width="26" height="25" viewBox="0 0 26 25" fill="none" xmlns="http://www.w3.org/2000/svg">
<rect width="26" height="25" rx="12.5" fill="white"/>
<path d="M10.7362 15.359C10.828 15.8609 11.0034 16.2495 11.2624 16.5247C11.5215 16.7946 11.8993 16.9295 12.3958 16.9295C12.9679 16.9295 13.4023 16.7298 13.6992 16.3304C14.0014 15.9257 14.1525 15.4183 14.1525 14.8085C14.1525 14.2094 14.0122 13.7048 13.7315 13.2947C13.4509 12.8791 13.0138 12.6713 12.4201 12.6713C12.1395 12.6713 11.8966 12.7064 11.6915 12.7765C11.3299 12.9061 11.0574 13.1462 10.8739 13.497L8.80145 13.3999L9.62718 6.91548H16.0954V8.87456H11.2948L10.8739 11.4408C11.2301 11.2087 11.508 11.0549 11.7077 10.9794C12.0423 10.8552 12.4498 10.7932 12.9301 10.7932C13.9016 10.7932 14.7489 11.1197 15.4721 11.7727C16.1952 12.4257 16.5568 13.3756 16.5568 14.6223C16.5568 15.7071 16.2087 16.6758 15.5125 17.5286C14.8163 18.3813 13.7747 18.8076 12.3877 18.8076C11.2705 18.8076 10.3531 18.5081 9.63527 17.909C8.91748 17.31 8.51811 16.46 8.43715 15.359H10.7362Z" fill="#0E508F"/>
</svg>
