<svg width="26" height="25" viewBox="0 0 26 25" fill="none" xmlns="http://www.w3.org/2000/svg">
<rect width="26" height="25" rx="12.5" fill="white"/>
<path d="M10.8334 14.7842C10.8334 15.4157 11.0034 15.9311 11.3434 16.3304C11.6834 16.7298 12.1152 16.9295 12.6387 16.9295C13.1514 16.9295 13.5534 16.7379 13.8449 16.3547C14.1417 15.9661 14.2901 15.4642 14.2901 14.849C14.2901 14.1636 14.1228 13.6401 13.7882 13.2785C13.4536 12.9115 13.0434 12.728 12.5577 12.728C12.1637 12.728 11.8156 12.8467 11.5134 13.0842C11.0601 13.435 10.8334 14.0017 10.8334 14.7842ZM14.0796 9.71649C14.0796 9.52759 14.0068 9.31981 13.8611 9.09314C13.6128 8.72615 13.2377 8.54265 12.7358 8.54265C11.9856 8.54265 11.4513 8.96361 11.1329 9.80553C10.9602 10.2697 10.8415 10.9551 10.7767 11.8618C11.0628 11.5218 11.3947 11.2735 11.7725 11.117C12.1502 10.9605 12.582 10.8822 13.0677 10.8822C14.1093 10.8822 14.962 11.2357 15.6259 11.9427C16.2951 12.6497 16.6297 13.5537 16.6297 14.6547C16.6297 15.7503 16.3032 16.7163 15.6502 17.5528C14.9971 18.3894 13.9825 18.8076 12.6063 18.8076C11.1275 18.8076 10.0373 18.1897 9.33574 16.9538C8.79065 15.9877 8.51811 14.741 8.51811 13.2137C8.51811 12.3178 8.55588 11.5892 8.63144 11.0279C8.76637 10.0295 9.02812 9.19838 9.4167 8.53456C9.75131 7.96788 10.1885 7.51184 10.7282 7.16643C11.2732 6.82103 11.9236 6.64833 12.6791 6.64833C13.7693 6.64833 14.6382 6.92897 15.2859 7.49025C15.9335 8.04613 16.2978 8.78821 16.3787 9.71649H14.0796Z" fill="#0E508F"/>
</svg>
