<svg width="26" height="25" viewBox="0 0 26 25" fill="none" xmlns="http://www.w3.org/2000/svg">
<rect width="26" height="25" rx="12.5" fill="white"/>
<path d="M10.8334 15.0918C10.8334 15.6693 10.9818 16.1173 11.2786 16.4357C11.5809 16.7541 11.9964 16.9133 12.5253 16.9133C13.0542 16.9133 13.4671 16.7541 13.7639 16.4357C14.0662 16.1173 14.2173 15.6693 14.2173 15.0918C14.2173 14.4928 14.0635 14.0394 13.7558 13.7318C13.4536 13.4188 13.0434 13.2623 12.5253 13.2623C12.0072 13.2623 11.5944 13.4188 11.2867 13.7318C10.9845 14.0394 10.8334 14.4928 10.8334 15.0918ZM8.43715 15.2456C8.43715 14.5872 8.58557 13.9909 8.8824 13.4566C9.18463 12.9223 9.62448 12.5202 10.202 12.2503C9.63527 11.8726 9.26558 11.4651 9.09288 11.0279C8.92557 10.5854 8.84192 10.1725 8.84192 9.78934C8.84192 8.93663 9.16304 8.21074 9.80528 7.61168C10.4475 7.00722 11.3542 6.70499 12.5253 6.70499C13.6965 6.70499 14.6032 7.00722 15.2454 7.61168C15.8876 8.21074 16.2087 8.93663 16.2087 9.78934C16.2087 10.1725 16.1224 10.5854 15.9497 11.0279C15.7824 11.4651 15.4154 11.8456 14.8487 12.1694C15.4262 12.4932 15.8606 12.9223 16.1521 13.4566C16.4435 13.9909 16.5892 14.5872 16.5892 15.2456C16.5892 16.2333 16.2222 17.0752 15.4882 17.7714C14.7597 18.4622 13.7396 18.8076 12.4282 18.8076C11.1167 18.8076 10.1237 18.4622 9.44908 17.7714C8.77446 17.0752 8.43715 16.2333 8.43715 15.2456ZM11.0439 10.0484C11.0439 10.4748 11.1734 10.8229 11.4325 11.0927C11.6969 11.3626 12.0612 11.4975 12.5253 11.4975C12.9949 11.4975 13.3565 11.3626 13.6101 11.0927C13.8692 10.8229 13.9987 10.4748 13.9987 10.0484C13.9987 9.58426 13.8692 9.22267 13.6101 8.96361C13.3565 8.69916 12.9949 8.56694 12.5253 8.56694C12.0612 8.56694 11.6969 8.69916 11.4325 8.96361C11.1734 9.22267 11.0439 9.58426 11.0439 10.0484Z" fill="#0E508F"/>
</svg>
