<svg width="52" height="52" viewBox="0 0 52 52" fill="none" xmlns="http://www.w3.org/2000/svg">
<path d="M25.5312 51.0625C11.4712 51.0625 0 39.615 0 25.5312C0 11.4475 11.4712 0 25.5312 0C39.5913 0 51.0625 11.4475 51.0625 25.5312C51.0625 39.615 39.615 51.0625 25.5312 51.0625ZM25.5312 3.5625C13.4187 3.5625 3.5625 13.4187 3.5625 25.5312C3.5625 37.6437 13.4187 47.5 25.5312 47.5C37.6437 47.5 47.5 37.6437 47.5 25.5312C47.5 13.4187 37.6437 3.5625 25.5312 3.5625Z" fill="#0E508F"/>
<path d="M28.3999 36.0728H22.5999C17.2953 36.0728 14.927 33.7045 14.927 28.3999V22.5999C14.927 17.2953 17.2953 14.927 22.5999 14.927H28.3999C33.7045 14.927 36.0728 17.2953 36.0728 22.5999V28.3999C36.0728 33.7045 33.7045 36.0728 28.3999 36.0728ZM22.5999 16.7395C18.2741 16.7395 16.7395 18.2741 16.7395 22.5999V28.3999C16.7395 32.7258 18.2741 34.2603 22.5999 34.2603H28.3999C32.7258 34.2603 34.2603 32.7258 34.2603 28.3999V22.5999C34.2603 18.2741 32.7258 16.7395 28.3999 16.7395H22.5999Z" fill="#A7EB2B"/>
<path d="M27.3124 32.4478H23.6874C20.1833 32.4478 18.552 30.8166 18.552 27.3124V23.6874C18.552 20.1833 20.1833 18.552 23.6874 18.552H27.3124C30.8166 18.552 32.4478 20.1833 32.4478 23.6874V27.3124C32.4478 30.8166 30.8166 32.4478 27.3124 32.4478ZM23.6874 20.3645C21.1741 20.3645 20.3645 21.1741 20.3645 23.6874V27.3124C20.3645 29.8258 21.1741 30.6353 23.6874 30.6353H27.3124C29.8258 30.6353 30.6353 29.8258 30.6353 27.3124V23.6874C30.6353 21.1741 29.8258 20.3645 27.3124 20.3645H23.6874Z" fill="#A7EB2B"/>
<path d="M20.6787 16.7397C20.1712 16.7397 19.7725 16.3288 19.7725 15.8334V13.4167C19.7725 12.9213 20.1833 12.5105 20.6787 12.5105C21.1741 12.5105 21.585 12.9213 21.585 13.4167V15.8334C21.585 16.3288 21.1741 16.7397 20.6787 16.7397Z" fill="#A7EB2B"/>
<path d="M25.5 16.7397C25.0046 16.7397 24.5938 16.3288 24.5938 15.8334V13.4167C24.5938 12.9213 25.0046 12.5105 25.5 12.5105C25.9954 12.5105 26.4062 12.9213 26.4062 13.4167V15.8334C26.4062 16.3288 25.9954 16.7397 25.5 16.7397Z" fill="#A7EB2B"/>
<path d="M30.3333 16.7397C29.8378 16.7397 29.427 16.3288 29.427 15.8334V13.4167C29.427 12.9213 29.8378 12.5105 30.3333 12.5105C30.8287 12.5105 31.2395 12.9213 31.2395 13.4167V15.8334C31.2395 16.3288 30.8287 16.7397 30.3333 16.7397Z" fill="#A7EB2B"/>
<path d="M37.5834 21.573H35.1667C34.6713 21.573 34.2605 21.1622 34.2605 20.6667C34.2605 20.1713 34.6713 19.7605 35.1667 19.7605H37.5834C38.0788 19.7605 38.4897 20.1713 38.4897 20.6667C38.4897 21.1622 38.0909 21.573 37.5834 21.573Z" fill="#A7EB2B"/>
<path d="M37.5834 26.4062H35.1667C34.6713 26.4062 34.2605 25.9954 34.2605 25.5C34.2605 25.0046 34.6713 24.5938 35.1667 24.5938H37.5834C38.0788 24.5938 38.4897 25.0046 38.4897 25.5C38.4897 25.9954 38.0909 26.4062 37.5834 26.4062Z" fill="#A7EB2B"/>
<path d="M37.5834 31.2395H35.1667C34.6713 31.2395 34.2605 30.8287 34.2605 30.3333C34.2605 29.8378 34.6713 29.427 35.1667 29.427H37.5834C38.0788 29.427 38.4897 29.8378 38.4897 30.3333C38.4897 30.8287 38.0909 31.2395 37.5834 31.2395Z" fill="#A7EB2B"/>
<path d="M30.3333 38.4897C29.8378 38.4897 29.427 38.0788 29.427 37.5834V35.1667C29.427 34.6713 29.8378 34.2605 30.3333 34.2605C30.8287 34.2605 31.2395 34.6713 31.2395 35.1667V37.5834C31.2395 38.0788 30.8287 38.4897 30.3333 38.4897Z" fill="#A7EB2B"/>
<path d="M25.512 38.4897C25.0165 38.4897 24.6057 38.0788 24.6057 37.5834V35.1667C24.6057 34.6713 25.0165 34.2605 25.512 34.2605C26.0074 34.2605 26.4182 34.6713 26.4182 35.1667V37.5834C26.4182 38.0788 26.0074 38.4897 25.512 38.4897Z" fill="#A7EB2B"/>
<path d="M20.6787 38.4897C20.1833 38.4897 19.7725 38.0788 19.7725 37.5834V35.1667C19.7725 34.6713 20.1833 34.2605 20.6787 34.2605C21.1741 34.2605 21.585 34.6713 21.585 35.1667V37.5834C21.585 38.0788 21.1741 38.4897 20.6787 38.4897Z" fill="#A7EB2B"/>
<path d="M15.8334 21.573H13.4167C12.9213 21.573 12.5105 21.1742 12.5105 20.6667C12.5105 20.1592 12.9213 19.7605 13.4167 19.7605H15.8334C16.3288 19.7605 16.7397 20.1713 16.7397 20.6667C16.7397 21.1622 16.3409 21.573 15.8334 21.573Z" fill="#A7EB2B"/>
<path d="M15.8334 26.4062H13.4167C12.9213 26.4062 12.5105 25.9954 12.5105 25.5C12.5105 25.0046 12.9213 24.5938 13.4167 24.5938H15.8334C16.3288 24.5938 16.7397 25.0046 16.7397 25.5C16.7397 25.9954 16.3409 26.4062 15.8334 26.4062Z" fill="#A7EB2B"/>
<path d="M15.8334 31.2395H13.4167C12.9213 31.2395 12.5105 30.8287 12.5105 30.3333C12.5105 29.8378 12.9213 29.427 13.4167 29.427H15.8334C16.3288 29.427 16.7397 29.8378 16.7397 30.3333C16.7397 30.8287 16.3409 31.2395 15.8334 31.2395Z" fill="#A7EB2B"/>
</svg>
