<svg width="59" height="59" viewBox="0 0 59 59" fill="none" xmlns="http://www.w3.org/2000/svg">
<path d="M29.5 55C15.4335 55 4 43.5665 4 29.5C4 15.4335 15.4335 4 29.5 4C43.5665 4 55 15.4335 55 29.5C55 43.5665 43.5665 55 29.5 55ZM29.5 7.55814C17.4023 7.55814 7.55814 17.4023 7.55814 29.5C7.55814 41.5977 17.4023 51.4419 29.5 51.4419C41.5977 51.4419 51.4419 41.5977 51.4419 29.5C51.4419 17.4023 41.5977 7.55814 29.5 7.55814Z" fill="#A7EB2B"/>
<path fill-rule="evenodd" clip-rule="evenodd" d="M24.7921 23.308C24.9887 23.5049 25.0992 23.7717 25.0992 24.05C25.0992 24.3282 24.9887 24.5951 24.7921 24.792L19.5841 30L24.7921 35.208C24.9776 35.407 25.0785 35.6703 25.0737 35.9423C25.0689 36.2143 24.9588 36.4739 24.7664 36.6663C24.574 36.8586 24.3145 36.9688 24.0424 36.9736C23.7704 36.9784 23.5071 36.8775 23.3081 36.692L17.3581 30.742C17.1615 30.5451 17.051 30.2782 17.051 30C17.051 29.7217 17.1615 29.4549 17.3581 29.258L23.3081 23.308C23.505 23.1114 23.7719 23.0009 24.0501 23.0009C24.3284 23.0009 24.5952 23.1114 24.7921 23.308ZM35.2081 23.308C35.405 23.1114 35.6719 23.0009 35.9501 23.0009C36.2284 23.0009 36.4952 23.1114 36.6921 23.308L42.6421 29.258C42.8387 29.4549 42.9492 29.7217 42.9492 30C42.9492 30.2782 42.8387 30.5451 42.6421 30.742L36.6921 36.692C36.4931 36.8775 36.2298 36.9784 35.9578 36.9736C35.6858 36.9688 35.4262 36.8586 35.2338 36.6663C35.0415 36.4739 34.9313 36.2143 34.9265 35.9423C34.9217 35.6703 35.0226 35.407 35.2081 35.208L40.4161 30L35.2081 24.792C35.0115 24.5951 34.901 24.3282 34.901 24.05C34.901 23.7717 35.0115 23.5049 35.2081 23.308ZM31.9279 18.8154C32.0639 18.8388 32.1939 18.8887 32.3106 18.9624C32.4273 19.036 32.5283 19.132 32.6079 19.2447C32.6875 19.3574 32.744 19.4847 32.7744 19.6194C32.8047 19.754 32.8082 19.8932 32.7847 20.0292L29.2847 40.3292C29.2338 40.6003 29.0783 40.8404 28.8518 40.9977C28.6253 41.1551 28.346 41.217 28.0742 41.1701C27.8024 41.1232 27.56 40.9713 27.3994 40.7472C27.2387 40.523 27.1726 40.2446 27.2155 39.9722L30.7155 19.6722C30.7627 19.3978 30.917 19.1535 31.1443 18.9928C31.3717 18.8321 31.6535 18.7683 31.9279 18.8154Z" fill="#0E508F"/>
</svg>
