<svg width="52" height="52" viewBox="0 0 52 52" fill="none" xmlns="http://www.w3.org/2000/svg">
<path d="M25.5312 51.0625C11.4712 51.0625 0 39.615 0 25.5312C0 11.4475 11.4712 0 25.5312 0C39.5913 0 51.0625 11.4475 51.0625 25.5312C51.0625 39.615 39.615 51.0625 25.5312 51.0625ZM25.5312 3.5625C13.4187 3.5625 3.5625 13.4187 3.5625 25.5312C3.5625 37.6437 13.4187 47.5 25.5312 47.5C37.6437 47.5 47.5 37.6437 47.5 25.5312C47.5 13.4187 37.6437 3.5625 25.5312 3.5625Z" fill="#0E508F"/>
<path d="M26.0001 26.2918C25.4867 26.2918 24.9734 26.1634 24.5067 25.9184L16.9117 21.8234C16.2234 21.4501 15.7917 20.7151 15.7917 19.8984C15.7917 19.0818 16.2234 18.3468 16.9117 17.9734L24.5067 13.8784C25.4401 13.3768 26.5601 13.3768 27.4817 13.8784L35.0767 17.9734C35.7651 18.3468 36.1967 19.0818 36.1967 19.8984C36.1967 20.7151 35.7651 21.4501 35.0767 21.8234L27.4817 25.9184C27.0267 26.1751 26.5134 26.2918 26.0001 26.2918ZM26.0001 15.2434C25.7784 15.2434 25.5451 15.3018 25.3351 15.4184L17.7517 19.5018C17.5534 19.6068 17.5417 19.8284 17.5417 19.8984C17.5417 19.9684 17.5534 20.1901 17.7517 20.2834L25.3467 24.3784C25.7667 24.6001 26.2451 24.6001 26.6651 24.3784L34.2601 20.2834C34.4467 20.1784 34.4701 19.9568 34.4701 19.8984C34.4701 19.8284 34.4584 19.6068 34.2601 19.5134L26.6651 15.4184C26.4551 15.3018 26.2217 15.2434 26.0001 15.2434Z" fill="#A7EB2B"/>
<path d="M23.4099 38.5067C23.0833 38.5067 22.7449 38.4251 22.4416 38.2734L15.3716 34.7501C14.1933 34.1551 13.4583 32.9651 13.4583 31.6467V24.9734C13.4583 24.2151 13.8433 23.5267 14.4849 23.1301C15.1383 22.7334 15.9199 22.6984 16.5966 23.0367L23.6666 26.5601C24.8449 27.1551 25.5799 28.3334 25.5799 29.6634V36.3367C25.5799 37.0951 25.1949 37.7834 24.5533 38.1801C24.2033 38.4017 23.8066 38.5067 23.4099 38.5067ZM15.6283 24.5534C15.5349 24.5534 15.4533 24.5884 15.4066 24.6117C15.3366 24.6584 15.2083 24.7634 15.2083 24.9734V31.6467C15.2083 32.3001 15.5699 32.8951 16.1533 33.1867L23.2116 36.7217C23.3983 36.8151 23.5499 36.7451 23.6199 36.7101C23.6899 36.6634 23.8183 36.5584 23.8183 36.3484V29.6751C23.8183 29.0217 23.4566 28.4267 22.8733 28.1351L15.8149 24.6001C15.7449 24.5651 15.6866 24.5534 15.6283 24.5534Z" fill="#A7EB2B"/>
<path d="M28.5899 38.5067C28.1933 38.5067 27.7966 38.4017 27.4466 38.18C26.8049 37.7833 26.4199 37.095 26.4199 36.3367V29.6633C26.4199 28.345 27.1549 27.155 28.3333 26.56L35.3916 23.025C36.0683 22.6867 36.8616 22.7217 37.5033 23.1183C38.1449 23.515 38.5299 24.2033 38.5299 24.9617V31.635C38.5299 32.9533 37.7949 34.1433 36.6166 34.7383L29.5583 38.2733C29.2549 38.4367 28.9166 38.5067 28.5899 38.5067ZM36.3716 24.5533C36.3133 24.5533 36.2549 24.565 36.1849 24.6L29.1266 28.135C28.5433 28.4267 28.1816 29.01 28.1816 29.675V36.3483C28.1816 36.5583 28.3099 36.6633 28.3799 36.71C28.4499 36.7567 28.6016 36.815 28.7883 36.7217L35.8466 33.1867C36.4299 32.895 36.7916 32.3 36.7916 31.6467V24.9733C36.7916 24.7633 36.6633 24.6583 36.5933 24.6117C36.5466 24.5883 36.4649 24.5533 36.3716 24.5533Z" fill="#A7EB2B"/>
</svg>
