<svg width="8" height="13" viewBox="0 0 8 13" fill="none" xmlns="http://www.w3.org/2000/svg">
<path d="M7.22303 6.50001C7.22303 6.65001 7.19595 6.79551 7.14178 6.93651C7.08761 7.07751 7.01539 7.19451 6.92511 7.28751L1.94178 12.4625C1.74317 12.6688 1.49039 12.7719 1.18345 12.7719C0.876502 12.7719 0.623725 12.6688 0.425114 12.4625C0.226502 12.2563 0.127197 11.9938 0.127197 11.675C0.127197 11.3563 0.226502 11.0938 0.425113 10.8875L4.65011 6.50001L0.425113 2.11251C0.226502 1.90626 0.127197 1.64376 0.127197 1.32501C0.127197 1.00626 0.226502 0.743758 0.425113 0.537508C0.623724 0.331259 0.876502 0.228132 1.18345 0.228132C1.49039 0.228132 1.74317 0.331259 1.94178 0.537508L6.92511 5.71251C7.03345 5.82501 7.11036 5.94688 7.15586 6.07813C7.20136 6.20938 7.22375 6.35001 7.22303 6.50001Z" fill="white"/>
</svg>
