<svg width="33" height="33" viewBox="0 0 33 33" fill="none" xmlns="http://www.w3.org/2000/svg">
<path d="M11 8C10.4533 8 10 7.54667 10 7V3C10 2.45333 10.4533 2 11 2C11.5467 2 12 2.45333 12 3V7C12 7.54667 11.5467 8 11 8Z" fill="#A7EB2B"/>
<path d="M21.667 8C21.1203 8 20.667 7.54667 20.667 7V3C20.667 2.45333 21.1203 2 21.667 2C22.2137 2 22.667 2.45333 22.667 3V7C22.667 7.54667 22.2137 8 21.667 8Z" fill="#A7EB2B"/>
<path d="M11.6668 19.6667C11.4935 19.6667 11.3202 19.6267 11.1602 19.56C10.9868 19.4933 10.8535 19.4 10.7202 19.28C10.4802 19.0266 10.3335 18.6933 10.3335 18.3333C10.3335 18.16 10.3735 17.9866 10.4402 17.8266C10.5068 17.6666 10.6002 17.52 10.7202 17.3867C10.8535 17.2667 10.9868 17.1733 11.1602 17.1066C11.6402 16.9066 12.2402 17.0133 12.6135 17.3867C12.8535 17.64 13.0002 17.9867 13.0002 18.3333C13.0002 18.4133 12.9868 18.5067 12.9735 18.6C12.9602 18.68 12.9335 18.76 12.8935 18.84C12.8668 18.92 12.8268 19 12.7735 19.08C12.7335 19.1467 12.6668 19.2133 12.6135 19.28C12.3602 19.52 12.0135 19.6667 11.6668 19.6667Z" fill="#A7EB2B"/>
<path d="M16.3333 19.6667C16.16 19.6667 15.9867 19.6267 15.8267 19.56C15.6533 19.4933 15.52 19.4 15.3867 19.28C15.1467 19.0266 15 18.6933 15 18.3333C15 18.16 15.04 17.9867 15.1067 17.8267C15.1733 17.6667 15.2667 17.52 15.3867 17.3867C15.52 17.2667 15.6533 17.1733 15.8267 17.1066C16.3067 16.8933 16.9067 17.0133 17.28 17.3867C17.52 17.64 17.6667 17.9867 17.6667 18.3333C17.6667 18.4133 17.6533 18.5067 17.64 18.6C17.6267 18.68 17.6 18.76 17.56 18.84C17.5333 18.92 17.4933 19 17.44 19.08C17.4 19.1467 17.3333 19.2133 17.28 19.28C17.0267 19.52 16.68 19.6667 16.3333 19.6667Z" fill="#A7EB2B"/>
<path d="M21.0003 19.6667C20.827 19.6667 20.6537 19.6267 20.4937 19.56C20.3203 19.4933 20.187 19.4 20.0537 19.28C20.0003 19.2133 19.947 19.1467 19.8937 19.08C19.8403 19 19.8003 18.92 19.7737 18.84C19.7337 18.76 19.707 18.68 19.6937 18.6C19.6803 18.5067 19.667 18.4133 19.667 18.3333C19.667 17.9867 19.8137 17.64 20.0537 17.3867C20.187 17.2667 20.3203 17.1733 20.4937 17.1066C20.987 16.8933 21.5737 17.0133 21.947 17.3867C22.187 17.64 22.3337 17.9867 22.3337 18.3333C22.3337 18.4133 22.3203 18.5067 22.307 18.6C22.2937 18.68 22.267 18.76 22.227 18.84C22.2003 18.92 22.1603 19 22.107 19.08C22.067 19.1467 22.0003 19.2133 21.947 19.28C21.6937 19.52 21.347 19.6667 21.0003 19.6667Z" fill="#A7EB2B"/>
<path d="M11.6668 24.3333C11.4935 24.3333 11.3202 24.2934 11.1602 24.2267C11.0002 24.16 10.8535 24.0667 10.7202 23.9467C10.4802 23.6933 10.3335 23.3467 10.3335 23C10.3335 22.8267 10.3735 22.6533 10.4402 22.4933C10.5068 22.32 10.6002 22.1733 10.7202 22.0533C11.2135 21.56 12.1202 21.56 12.6135 22.0533C12.8535 22.3067 13.0002 22.6533 13.0002 23C13.0002 23.3467 12.8535 23.6933 12.6135 23.9467C12.3602 24.1867 12.0135 24.3333 11.6668 24.3333Z" fill="#A7EB2B"/>
<path d="M16.3333 24.3333C15.9867 24.3333 15.64 24.1867 15.3867 23.9467C15.1467 23.6933 15 23.3467 15 23C15 22.8267 15.04 22.6533 15.1067 22.4933C15.1733 22.32 15.2667 22.1733 15.3867 22.0533C15.88 21.56 16.7867 21.56 17.28 22.0533C17.4 22.1733 17.4933 22.32 17.56 22.4933C17.6267 22.6533 17.6667 22.8267 17.6667 23C17.6667 23.3467 17.52 23.6933 17.28 23.9467C17.0267 24.1867 16.68 24.3333 16.3333 24.3333Z" fill="#A7EB2B"/>
<path d="M21.0003 24.3334C20.6537 24.3334 20.307 24.1867 20.0537 23.9467C19.9337 23.8267 19.8403 23.6801 19.7737 23.5067C19.707 23.3467 19.667 23.1734 19.667 23C19.667 22.8267 19.707 22.6534 19.7737 22.4934C19.8403 22.32 19.9337 22.1734 20.0537 22.0534C20.3603 21.7467 20.827 21.6 21.2537 21.6934C21.347 21.7067 21.427 21.7334 21.507 21.7734C21.587 21.8 21.667 21.8401 21.747 21.8934C21.8137 21.9334 21.8803 22.0001 21.947 22.0534C22.187 22.3067 22.3337 22.6534 22.3337 23C22.3337 23.3467 22.187 23.6934 21.947 23.9467C21.6937 24.1867 21.347 24.3334 21.0003 24.3334Z" fill="#A7EB2B"/>
<path d="M27.6667 13.4532H5C4.45333 13.4532 4 12.9999 4 12.4532C4 11.9066 4.45333 11.4532 5 11.4532H27.6667C28.2133 11.4532 28.6667 11.9066 28.6667 12.4532C28.6667 12.9999 28.2133 13.4532 27.6667 13.4532Z" fill="#A7EB2B"/>
<path d="M21.6668 30.6667H11.0002C6.1335 30.6667 3.3335 27.8667 3.3335 23V11.6667C3.3335 6.8 6.1335 4 11.0002 4H21.6668C26.5335 4 29.3335 6.8 29.3335 11.6667V23C29.3335 27.8667 26.5335 30.6667 21.6668 30.6667ZM11.0002 6C7.18683 6 5.3335 7.85333 5.3335 11.6667V23C5.3335 26.8133 7.18683 28.6667 11.0002 28.6667H21.6668C25.4802 28.6667 27.3335 26.8133 27.3335 23V11.6667C27.3335 7.85333 25.4802 6 21.6668 6H11.0002Z" fill="#A7EB2B"/>
</svg>
