<svg width="52" height="52" viewBox="0 0 52 52" fill="none" xmlns="http://www.w3.org/2000/svg">
<path d="M25.5312 51.0625C11.4712 51.0625 0 39.615 0 25.5312C0 11.4475 11.4712 0 25.5312 0C39.5913 0 51.0625 11.4475 51.0625 25.5312C51.0625 39.615 39.615 51.0625 25.5312 51.0625ZM25.5312 3.5625C13.4187 3.5625 3.5625 13.4187 3.5625 25.5312C3.5625 37.6437 13.4187 47.5 25.5312 47.5C37.6437 47.5 47.5 37.6437 47.5 25.5312C47.5 13.4187 37.6437 3.5625 25.5312 3.5625Z" fill="#0E508F"/>
<path d="M23.0711 38.4895C22.8295 38.4895 22.6361 38.4412 22.4911 38.3808C22.0078 38.1995 21.1861 37.6074 21.1861 35.7345V27.9408H18.3586C16.7395 27.9408 16.1595 27.1795 15.954 26.7324C15.7486 26.2733 15.5674 25.3428 16.6307 24.1224L25.7778 13.7308C27.0103 12.3291 28.0132 12.4258 28.4965 12.607C28.9799 12.7883 29.8015 13.3803 29.8015 15.2533V23.047H32.629C34.2482 23.047 34.8282 23.8083 35.0336 24.2553C35.239 24.7145 35.4203 25.6449 34.357 26.8653L25.2099 37.257C24.352 38.2358 23.6028 38.4895 23.0711 38.4895ZM27.832 14.3108C27.7957 14.3591 27.542 14.4799 27.1432 14.9391L17.9961 25.3308C17.6578 25.7174 17.6095 25.9591 17.6095 26.0074C17.6336 26.0195 17.8511 26.1403 18.3586 26.1403H22.0924C22.5878 26.1403 22.9986 26.5512 22.9986 27.0466V35.7466C22.9986 36.3508 23.1074 36.6166 23.1557 36.6891C23.192 36.6408 23.4457 36.5199 23.8445 36.0608L32.9915 25.6691C33.3299 25.2824 33.3782 25.0408 33.3782 24.9924C33.354 24.9803 33.1365 24.8595 32.629 24.8595H28.8953C28.3999 24.8595 27.989 24.4487 27.989 23.9533V15.2533C28.0011 14.6491 27.8803 14.3953 27.832 14.3108Z" fill="#A7EB2B"/>
</svg>
