<svg width="52" height="52" viewBox="0 0 52 52" fill="none" xmlns="http://www.w3.org/2000/svg">
<path d="M25.5312 51.0625C11.4712 51.0625 0 39.615 0 25.5312C0 11.4475 11.4712 0 25.5312 0C39.5913 0 51.0625 11.4475 51.0625 25.5312C51.0625 39.615 39.615 51.0625 25.5312 51.0625ZM25.5312 3.5625C13.4187 3.5625 3.5625 13.4187 3.5625 25.5312C3.5625 37.6437 13.4187 47.5 25.5312 47.5C37.6437 47.5 47.5 37.6437 47.5 25.5312C47.5 13.4187 37.6437 3.5625 25.5312 3.5625Z" fill="#A7EB2B"/>
<path d="M39.789 26.0155C39.7874 24.7523 39.4208 23.5164 38.7333 22.4567C38.0458 21.3969 37.0668 20.5584 35.914 20.0419V19.7186C35.9128 18.4895 35.505 17.2952 34.7543 16.322C34.0036 15.3487 32.9521 14.6511 31.7635 14.3378C30.575 14.0245 29.3162 14.1131 28.1833 14.5898C27.0503 15.0665 26.1069 15.9046 25.4999 16.9734C24.8929 15.9046 23.9495 15.0665 22.8166 14.5898C21.6836 14.1131 20.4248 14.0245 19.2363 14.3378C18.0478 14.6511 16.9962 15.3487 16.2455 16.322C15.4948 17.2952 15.0871 18.4895 15.0859 19.7186V20.0419C13.9321 20.5566 12.9522 21.3945 12.2645 22.4543C11.5769 23.5141 11.2109 24.7503 11.2109 26.0137C11.2109 27.277 11.5769 28.5133 12.2645 29.573C12.9522 30.6328 13.9321 31.4707 15.0859 31.9854V32.3124C15.0871 33.5415 15.4948 34.7357 16.2455 35.709C16.9962 36.6822 18.0478 37.3798 19.2363 37.6931C20.4248 38.0065 21.6836 37.9178 22.8166 37.4411C23.9495 36.9644 24.8929 36.1264 25.4999 35.0575C26.1069 36.1264 27.0503 36.9644 28.1833 37.4411C29.3162 37.9178 30.575 38.0065 31.7635 37.6931C32.9521 37.3798 34.0036 36.6822 34.7543 35.709C35.505 34.7357 35.9128 33.5415 35.914 32.3124V31.9854C37.0668 31.47 38.0459 30.6322 38.7335 29.5729C39.421 28.5137 39.7876 27.2783 39.789 26.0155ZM20.6562 36.4295C19.5861 36.4301 18.5579 36.014 17.7893 35.2694C17.0208 34.5248 16.5723 33.5103 16.539 32.4407C16.9382 32.5164 17.3436 32.5545 17.7499 32.5545H18.7187C18.9114 32.5545 19.0962 32.478 19.2324 32.3417C19.3687 32.2055 19.4452 32.0207 19.4452 31.828C19.4452 31.6353 19.3687 31.4505 19.2324 31.3142C19.0962 31.178 18.9114 31.1014 18.7187 31.1014H17.7499C16.5494 31.1024 15.3873 30.6787 14.4692 29.9053C13.551 29.1319 12.936 28.0586 12.7331 26.8754C12.5301 25.6922 12.7522 24.4753 13.3601 23.4401C13.968 22.4049 14.9224 21.6181 16.0546 21.219C16.1963 21.1688 16.319 21.076 16.4058 20.9533C16.4925 20.8305 16.5391 20.6839 16.539 20.5336V19.7186C16.539 18.6267 16.9728 17.5794 17.7449 16.8073C18.517 16.0352 19.5642 15.6014 20.6562 15.6014C21.7481 15.6014 22.7953 16.0352 23.5675 16.8073C24.3396 17.5794 24.7734 18.6267 24.7734 19.7186V28.5645C24.2522 27.9903 23.6167 27.5315 22.9076 27.2176C22.1985 26.9037 21.4316 26.7417 20.6562 26.742C20.4635 26.742 20.2787 26.8186 20.1424 26.9548C20.0062 27.0911 19.9296 27.2759 19.9296 27.4686C19.9296 27.6613 20.0062 27.8461 20.1424 27.9824C20.2787 28.1186 20.4635 28.1952 20.6562 28.1952C21.7481 28.1952 22.7953 28.6289 23.5675 29.4011C24.3396 30.1732 24.7734 31.2204 24.7734 32.3124C24.7734 33.4043 24.3396 34.4515 23.5675 35.2236C22.7953 35.9958 21.7481 36.4295 20.6562 36.4295ZM33.2499 31.1014H32.2812C32.0885 31.1014 31.9037 31.178 31.7674 31.3142C31.6312 31.4505 31.5546 31.6353 31.5546 31.828C31.5546 32.0207 31.6312 32.2055 31.7674 32.3417C31.9037 32.478 32.0885 32.5545 32.2812 32.5545H33.2499C33.6562 32.5545 34.0617 32.5164 34.4609 32.4407C34.4356 33.2491 34.1729 34.0321 33.7055 34.6921C33.238 35.352 32.5865 35.8597 31.8323 36.1518C31.0781 36.4438 30.2547 36.5072 29.4646 36.3342C28.6746 36.1611 27.9531 35.7592 27.39 35.1786C26.827 34.598 26.4474 33.8645 26.2987 33.0695C26.15 32.2746 26.2387 31.4534 26.5537 30.7086C26.8687 29.9637 27.3962 29.3281 28.0702 28.8811C28.7442 28.4341 29.5349 28.1956 30.3437 28.1952C30.5364 28.1952 30.7212 28.1186 30.8574 27.9824C30.9937 27.8461 31.0702 27.6613 31.0702 27.4686C31.0702 27.2759 30.9937 27.0911 30.8574 26.9548C30.7212 26.8186 30.5364 26.742 30.3437 26.742C29.5682 26.7417 28.8013 26.9037 28.0922 27.2176C27.3831 27.5315 26.7476 27.9903 26.2265 28.5645V19.7186C26.2265 18.6267 26.6603 17.5794 27.4324 16.8073C28.2045 16.0352 29.2517 15.6014 30.3437 15.6014C31.4356 15.6014 32.4828 16.0352 33.255 16.8073C34.0271 17.5794 34.4609 18.6267 34.4609 19.7186V20.5336C34.4608 20.6839 34.5073 20.8305 34.5941 20.9533C34.6808 21.076 34.8035 21.1688 34.9452 21.219C36.0774 21.6181 37.0319 22.4049 37.6397 23.4401C38.2476 24.4753 38.4697 25.6922 38.2668 26.8754C38.0638 28.0586 37.4488 29.1319 36.5307 29.9053C35.6125 30.6787 34.4504 31.1024 33.2499 31.1014ZM34.9452 24.5624C34.9452 24.755 34.8687 24.9399 34.7324 25.0761C34.5962 25.2124 34.4114 25.2889 34.2187 25.2889H33.7343C32.6423 25.2889 31.5951 24.8551 30.823 24.083C30.0509 23.3109 29.6171 22.2637 29.6171 21.1717V20.6874C29.6171 20.4947 29.6937 20.3099 29.8299 20.1736C29.9662 20.0373 30.151 19.9608 30.3437 19.9608C30.5364 19.9608 30.7212 20.0373 30.8574 20.1736C30.9937 20.3099 31.0702 20.4947 31.0702 20.6874V21.1717C31.0702 21.8783 31.3509 22.5559 31.8505 23.0555C32.3501 23.5551 33.0277 23.8358 33.7343 23.8358H34.2187C34.4114 23.8358 34.5962 23.9123 34.7324 24.0486C34.8687 24.1849 34.9452 24.3697 34.9452 24.5624ZM17.2655 25.2889H16.7812C16.5885 25.2889 16.4037 25.2124 16.2674 25.0761C16.1312 24.9399 16.0546 24.755 16.0546 24.5624C16.0546 24.3697 16.1312 24.1849 16.2674 24.0486C16.4037 23.9123 16.5885 23.8358 16.7812 23.8358H17.2655C17.9721 23.8358 18.6497 23.5551 19.1493 23.0555C19.6489 22.5559 19.9296 21.8783 19.9296 21.1717V20.6874C19.9296 20.4947 20.0062 20.3099 20.1424 20.1736C20.2787 20.0373 20.4635 19.9608 20.6562 19.9608C20.8489 19.9608 21.0337 20.0373 21.1699 20.1736C21.3062 20.3099 21.3827 20.4947 21.3827 20.6874V21.1717C21.3827 22.2637 20.949 23.3109 20.1768 24.083C19.4047 24.8551 18.3575 25.2889 17.2655 25.2889Z" fill="#0E508F"/>
</svg>
