<svg width="49" height="49" viewBox="0 0 49 49" fill="none" xmlns="http://www.w3.org/2000/svg">
<path d="M4.0835 44.9168H44.9168" stroke="#0E508F" stroke-width="3" stroke-miterlimit="10" stroke-linecap="round" stroke-linejoin="round"/>
<path d="M30.6454 44.8959L6.14544 44.9368L6.125 14.4343C6.125 13.0664 6.8192 11.8005 7.94211 11.0451L16.1088 5.59385C17.4767 4.6751 19.2733 4.6751 20.6412 5.59385L28.8079 11.0451C29.9512 11.8005 30.625 13.0664 30.625 14.4343L30.6454 44.8959Z" stroke="#0E508F" stroke-width="3" stroke-miterlimit="10" stroke-linecap="round" stroke-linejoin="round"/>
<path d="M40.7925 44.9371V36.75" stroke="#0E508F" stroke-width="3" stroke-miterlimit="10" stroke-linecap="round" stroke-linejoin="round"/>
<path d="M40.8333 24.5C38.5875 24.5 36.75 26.3375 36.75 28.5833V32.6667C36.75 34.9125 38.5875 36.75 40.8333 36.75C43.0792 36.75 44.9167 34.9125 44.9167 32.6667V28.5833C44.9167 26.3375 43.0792 24.5 40.8333 24.5Z" stroke="#0E508F" stroke-width="3" stroke-miterlimit="10" stroke-linecap="round" stroke-linejoin="round"/>
<path d="M6.125 28.5832H30.625" stroke="#0E508F" stroke-width="3" stroke-miterlimit="10" stroke-linecap="round" stroke-linejoin="round"/>
<path d="M18.375 44.9168V37.2606" stroke="#0E508F" stroke-width="3" stroke-miterlimit="10" stroke-linecap="round" stroke-linejoin="round"/>
<path d="M18.375 21.4375C20.0664 21.4375 21.4375 20.0664 21.4375 18.375C21.4375 16.6836 20.0664 15.3125 18.375 15.3125C16.6836 15.3125 15.3125 16.6836 15.3125 18.375C15.3125 20.0664 16.6836 21.4375 18.375 21.4375Z" stroke="#0E508F" stroke-width="3" stroke-miterlimit="10" stroke-linecap="round" stroke-linejoin="round"/>
</svg>
