<svg width="41" height="41" viewBox="0 0 41 41" fill="none" xmlns="http://www.w3.org/2000/svg">
<path d="M23.9167 38.8646H17.0833C7.80708 38.8646 3.84375 34.9013 3.84375 25.625V15.375C3.84375 6.09877 7.80708 2.13544 17.0833 2.13544H23.9167C33.1929 2.13544 37.1562 6.09877 37.1562 15.375V25.625C37.1562 34.9013 33.1929 38.8646 23.9167 38.8646ZM17.0833 4.69794C9.20792 4.69794 6.40625 7.4996 6.40625 15.375V25.625C6.40625 33.5004 9.20792 36.3021 17.0833 36.3021H23.9167C31.7921 36.3021 34.5938 33.5004 34.5938 25.625V15.375C34.5938 7.4996 31.7921 4.69794 23.9167 4.69794H17.0833Z" fill="#0E508F"/>
<path d="M25.625 18.5012H15.375C13.2567 18.5012 11.5312 16.7758 11.5312 14.6575V12.9492C11.5312 10.8308 13.2567 9.10541 15.375 9.10541H25.625C27.7433 9.10541 29.4688 10.8308 29.4688 12.9492V14.6575C29.4688 16.7758 27.7433 18.5012 25.625 18.5012ZM15.375 11.6679C14.6746 11.6679 14.0938 12.2487 14.0938 12.9492V14.6575C14.0938 15.3579 14.6746 15.9387 15.375 15.9387H25.625C26.3254 15.9387 26.9062 15.3579 26.9062 14.6575V12.9492C26.9062 12.2487 26.3254 11.6679 25.625 11.6679H15.375Z" fill="#0E508F"/>
<path d="M13.9227 25.4884C13.7006 25.4884 13.4785 25.4371 13.2735 25.3517C13.0685 25.2663 12.8806 25.1467 12.7269 24.9929C12.4023 24.6684 12.2314 24.2413 12.2314 23.78C12.2314 23.5579 12.2656 23.3359 12.351 23.1309C12.4364 22.9088 12.556 22.7379 12.7269 22.5671C12.7952 22.4988 12.8806 22.4134 12.9831 22.3621C13.0685 22.2938 13.171 22.2425 13.2735 22.2084C13.376 22.1571 13.4956 22.1229 13.5981 22.1059C14.1448 21.9863 14.7427 22.1742 15.1356 22.5671C15.2894 22.7209 15.426 22.9088 15.5114 23.1309C15.5969 23.3359 15.6481 23.5579 15.6481 23.78C15.6481 24.2413 15.4602 24.6684 15.1356 24.9929C14.811 25.3175 14.3839 25.4884 13.9227 25.4884Z" fill="#0E508F"/>
<path d="M20.7733 25.4883C20.312 25.4883 19.8849 25.3175 19.5604 24.9929C19.2358 24.6683 19.0649 24.2412 19.0649 23.78C19.0649 23.5579 19.0991 23.3358 19.1845 23.1308C19.2699 22.9087 19.3895 22.7379 19.5604 22.5671C19.6287 22.4987 19.7141 22.4133 19.8166 22.3621C19.902 22.2937 20.0045 22.2425 20.107 22.2083C20.2095 22.1571 20.3291 22.1229 20.4316 22.1058C20.7562 22.0375 21.0979 22.0717 21.4224 22.2083C21.6274 22.2937 21.8154 22.4133 21.9691 22.5671C22.1229 22.7379 22.2595 22.9087 22.3449 23.1308C22.4304 23.3358 22.4816 23.5579 22.4816 23.78C22.4816 24.2412 22.2937 24.6683 21.9691 24.9929C21.6445 25.3175 21.2174 25.4883 20.7733 25.4883Z" fill="#0E508F"/>
<path d="M27.5897 25.4883C27.3676 25.4883 27.1455 25.4371 26.9405 25.3517C26.7355 25.2662 26.5476 25.1467 26.3939 24.9929C26.223 24.8221 26.1034 24.6342 26.018 24.4292C25.9326 24.2242 25.8984 24.0021 25.8984 23.78C25.8984 23.5579 25.9326 23.3358 26.018 23.1308C26.1034 22.9087 26.223 22.7379 26.3939 22.5671C27.0259 21.935 28.1705 21.935 28.8026 22.5671C29.1272 22.8917 29.3151 23.3358 29.3151 23.78C29.3151 24.2412 29.1272 24.6683 28.8026 24.9929C28.4951 25.3004 28.068 25.4883 27.5897 25.4883Z" fill="#0E508F"/>
<path d="M13.9398 32.3216C13.4785 32.3216 13.0514 32.1508 12.7269 31.8262C12.4023 31.5016 12.2144 31.0746 12.2144 30.6133C12.2144 30.1691 12.4023 29.725 12.7269 29.4004C12.7952 29.3321 12.8977 29.2466 12.9831 29.1954C13.0685 29.1271 13.171 29.0758 13.2735 29.0416C13.376 28.9904 13.4956 28.9562 13.5981 28.9391C14.1619 28.8366 14.7427 29.0075 15.1356 29.4004C15.221 29.4858 15.2894 29.5712 15.3577 29.6566C15.4089 29.7591 15.4602 29.8616 15.5114 29.9641C15.5456 30.0666 15.5798 30.1691 15.6139 30.2716C15.631 30.3912 15.6481 30.4937 15.6481 30.6133C15.6481 31.0746 15.4602 31.5016 15.1356 31.8262C14.811 32.1508 14.3839 32.3216 13.9398 32.3216Z" fill="#0E508F"/>
<path d="M20.7733 32.3216C20.312 32.3216 19.8849 32.1508 19.5604 31.8262C19.2358 31.5016 19.0479 31.0746 19.0479 30.6133C19.0479 30.1691 19.2358 29.725 19.5604 29.4004C19.9533 29.0075 20.5512 28.8366 21.0979 28.9391C21.2004 28.9562 21.3199 28.9904 21.4224 29.0416C21.5249 29.0758 21.6274 29.1271 21.7129 29.1954C21.7983 29.2466 21.8837 29.3321 21.9691 29.4004C22.2937 29.725 22.4645 30.1691 22.4645 30.6133C22.4645 31.0746 22.2937 31.5016 21.9691 31.8262C21.6445 32.1508 21.2174 32.3216 20.7733 32.3216Z" fill="#0E508F"/>
<path d="M27.5897 32.3217C27.1455 32.3217 26.7184 32.1508 26.3939 31.8262C26.0693 31.5017 25.8984 31.0746 25.8984 30.6133C25.8984 30.1692 26.0693 29.725 26.3939 29.4004C26.5476 29.2467 26.7355 29.1271 26.9405 29.0417C27.5726 28.7854 28.3414 28.9221 28.8026 29.4004C29.1272 29.725 29.298 30.1692 29.298 30.6133C29.298 31.0746 29.1272 31.5017 28.8026 31.8262C28.6489 31.98 28.4609 32.0996 28.2559 32.185C28.0509 32.2704 27.8289 32.3217 27.5897 32.3217Z" fill="#0E508F"/>
</svg>
