<svg width="12" height="13" viewBox="0 0 12 13" fill="none" xmlns="http://www.w3.org/2000/svg">
<path d="M4 3.375C3.795 3.375 3.625 3.205 3.625 3V1.5C3.625 1.295 3.795 1.125 4 1.125C4.205 1.125 4.375 1.295 4.375 1.5V3C4.375 3.205 4.205 3.375 4 3.375Z" fill="#A7EB2B"/>
<path d="M8 3.375C7.795 3.375 7.625 3.205 7.625 3V1.5C7.625 1.295 7.795 1.125 8 1.125C8.205 1.125 8.375 1.295 8.375 1.5V3C8.375 3.205 8.205 3.375 8 3.375Z" fill="#A7EB2B"/>
<path d="M4.25 7.75003C4.185 7.75003 4.12 7.73504 4.06 7.71004C3.995 7.68504 3.945 7.65003 3.895 7.60503C3.805 7.51003 3.75 7.38503 3.75 7.25003C3.75 7.18503 3.765 7.12003 3.79 7.06003C3.815 7.00003 3.85 6.94504 3.895 6.89504C3.945 6.85004 3.995 6.81503 4.06 6.79003C4.24 6.71503 4.465 6.75504 4.605 6.89504C4.695 6.99004 4.75 7.12003 4.75 7.25003C4.75 7.28003 4.745 7.31504 4.74 7.35004C4.735 7.38004 4.725 7.41004 4.71 7.44004C4.7 7.47004 4.685 7.50003 4.665 7.53003C4.65 7.55503 4.625 7.58003 4.605 7.60503C4.51 7.69503 4.38 7.75003 4.25 7.75003Z" fill="#A7EB2B"/>
<path d="M6 7.75C5.935 7.75 5.87 7.735 5.81 7.71C5.745 7.685 5.695 7.64999 5.645 7.60499C5.555 7.50999 5.5 7.385 5.5 7.25C5.5 7.185 5.515 7.12 5.54 7.06C5.565 7 5.6 6.945 5.645 6.895C5.695 6.85 5.745 6.81499 5.81 6.78999C5.99 6.70999 6.215 6.755 6.355 6.895C6.445 6.99 6.5 7.12 6.5 7.25C6.5 7.28 6.495 7.315 6.49 7.35C6.485 7.38 6.475 7.41 6.46 7.44C6.45 7.47 6.435 7.5 6.415 7.53C6.4 7.555 6.375 7.57999 6.355 7.60499C6.26 7.69499 6.13 7.75 6 7.75Z" fill="#A7EB2B"/>
<path d="M7.75 7.75C7.685 7.75 7.62 7.735 7.56 7.71C7.495 7.685 7.445 7.64999 7.395 7.60499C7.375 7.57999 7.355 7.555 7.335 7.53C7.315 7.5 7.3 7.47 7.29 7.44C7.275 7.41 7.265 7.38 7.26 7.35C7.255 7.315 7.25 7.28 7.25 7.25C7.25 7.12 7.305 6.99 7.395 6.895C7.445 6.85 7.495 6.81499 7.56 6.78999C7.745 6.70999 7.965 6.755 8.105 6.895C8.195 6.99 8.25 7.12 8.25 7.25C8.25 7.28 8.245 7.315 8.24 7.35C8.235 7.38 8.225 7.41 8.21 7.44C8.2 7.47 8.185 7.5 8.165 7.53C8.15 7.555 8.125 7.57999 8.105 7.60499C8.01 7.69499 7.88 7.75 7.75 7.75Z" fill="#A7EB2B"/>
<path d="M4.25 9.50003C4.185 9.50003 4.12 9.48504 4.06 9.46004C4 9.43504 3.945 9.40003 3.895 9.35503C3.805 9.26003 3.75 9.13003 3.75 9.00003C3.75 8.93503 3.765 8.87003 3.79 8.81003C3.815 8.74503 3.85 8.69004 3.895 8.64504C4.08 8.46004 4.42 8.46004 4.605 8.64504C4.695 8.74004 4.75 8.87003 4.75 9.00003C4.75 9.13003 4.695 9.26003 4.605 9.35503C4.51 9.44503 4.38 9.50003 4.25 9.50003Z" fill="#A7EB2B"/>
<path d="M6 9.50003C5.87 9.50003 5.74 9.44503 5.645 9.35503C5.555 9.26003 5.5 9.13003 5.5 9.00003C5.5 8.93503 5.515 8.87003 5.54 8.81003C5.565 8.74503 5.6 8.69004 5.645 8.64504C5.83 8.46004 6.17 8.46004 6.355 8.64504C6.4 8.69004 6.435 8.74503 6.46 8.81003C6.485 8.87003 6.5 8.93503 6.5 9.00003C6.5 9.13003 6.445 9.26003 6.355 9.35503C6.26 9.44503 6.13 9.50003 6 9.50003Z" fill="#A7EB2B"/>
<path d="M7.75 9.50002C7.62 9.50002 7.49 9.44501 7.395 9.35501C7.35 9.31001 7.315 9.25502 7.29 9.19002C7.265 9.13002 7.25 9.06502 7.25 9.00002C7.25 8.93502 7.265 8.87002 7.29 8.81002C7.315 8.74502 7.35 8.69002 7.395 8.64502C7.51 8.53002 7.685 8.47501 7.845 8.51001C7.88 8.51501 7.91 8.52501 7.94 8.54001C7.97 8.55001 8 8.56502 8.03 8.58502C8.055 8.60002 8.08 8.62502 8.105 8.64502C8.195 8.74002 8.25 8.87002 8.25 9.00002C8.25 9.13002 8.195 9.26001 8.105 9.35501C8.01 9.44501 7.88 9.50002 7.75 9.50002Z" fill="#A7EB2B"/>
<path d="M10.25 5.41998H1.75C1.545 5.41998 1.375 5.24998 1.375 5.04498C1.375 4.83998 1.545 4.66998 1.75 4.66998H10.25C10.455 4.66998 10.625 4.83998 10.625 5.04498C10.625 5.24998 10.455 5.41998 10.25 5.41998Z" fill="#A7EB2B"/>
<path d="M8 11.875H4C2.175 11.875 1.125 10.825 1.125 9V4.75C1.125 2.925 2.175 1.875 4 1.875H8C9.825 1.875 10.875 2.925 10.875 4.75V9C10.875 10.825 9.825 11.875 8 11.875ZM4 2.625C2.57 2.625 1.875 3.32 1.875 4.75V9C1.875 10.43 2.57 11.125 4 11.125H8C9.43 11.125 10.125 10.43 10.125 9V4.75C10.125 3.32 9.43 2.625 8 2.625H4Z" fill="#A7EB2B"/>
</svg>
