<svg width="52" height="52" viewBox="0 0 52 52" fill="none" xmlns="http://www.w3.org/2000/svg">
<path d="M25.5312 51.0625C11.4712 51.0625 0 39.615 0 25.5312C0 11.4475 11.4712 0 25.5312 0C39.5913 0 51.0625 11.4475 51.0625 25.5312C51.0625 39.615 39.615 51.0625 25.5312 51.0625ZM25.5312 3.5625C13.4187 3.5625 3.5625 13.4187 3.5625 25.5312C3.5625 37.6437 13.4187 47.5 25.5312 47.5C37.6437 47.5 47.5 37.6437 47.5 25.5312C47.5 13.4187 37.6437 3.5625 25.5312 3.5625Z" fill="#A7EB2B"/>
<path d="M19.7708 36.6979C19.3437 36.6979 18.9895 36.3438 18.9895 35.9167V28.625C18.9895 28.1979 19.3437 27.8438 19.7708 27.8438C20.1978 27.8438 20.552 28.1979 20.552 28.625V35.9167C20.552 36.3438 20.1978 36.6979 19.7708 36.6979Z" fill="#0E508F"/>
<path d="M19.7708 18.9895C19.3437 18.9895 18.9895 18.6353 18.9895 18.2083V15.0833C18.9895 14.6562 19.3437 14.302 19.7708 14.302C20.1978 14.302 20.552 14.6562 20.552 15.0833V18.2083C20.552 18.6353 20.1978 18.9895 19.7708 18.9895Z" fill="#0E508F"/>
<path d="M31.2292 36.698C30.8022 36.698 30.448 36.3438 30.448 35.9167V32.7917C30.448 32.3647 30.8022 32.0105 31.2292 32.0105C31.6563 32.0105 32.0105 32.3647 32.0105 32.7917V35.9167C32.0105 36.3438 31.6563 36.698 31.2292 36.698Z" fill="#0E508F"/>
<path d="M31.2292 23.1562C30.8022 23.1562 30.448 22.802 30.448 22.3749V15.0833C30.448 14.6562 30.8022 14.302 31.2292 14.302C31.6563 14.302 32.0105 14.6562 32.0105 15.0833V22.3749C32.0105 22.802 31.6563 23.1562 31.2292 23.1562Z" fill="#0E508F"/>
<path d="M20.8124 29.4062H18.7291C16.9374 29.4062 15.8645 28.3333 15.8645 26.5416V20.2916C15.8645 18.4999 16.9374 17.427 18.7291 17.427H20.8124C22.6041 17.427 23.677 18.4999 23.677 20.2916V26.5416C23.677 28.3333 22.6041 29.4062 20.8124 29.4062ZM18.7291 18.9895C17.802 18.9895 17.427 19.3645 17.427 20.2916V26.5416C17.427 27.4687 17.802 27.8437 18.7291 27.8437H20.8124C21.7395 27.8437 22.1145 27.4687 22.1145 26.5416V20.2916C22.1145 19.3645 21.7395 18.9895 20.8124 18.9895H18.7291Z" fill="#0E508F"/>
<path d="M32.2709 33.5729H30.1876C28.3959 33.5729 27.323 32.5 27.323 30.7083V24.4583C27.323 22.6667 28.3959 21.5938 30.1876 21.5938H32.2709C34.0626 21.5938 35.1355 22.6667 35.1355 24.4583V30.7083C35.1355 32.5 34.0626 33.5729 32.2709 33.5729ZM30.1876 23.1563C29.2605 23.1563 28.8855 23.5313 28.8855 24.4583V30.7083C28.8855 31.6354 29.2605 32.0104 30.1876 32.0104H32.2709C33.198 32.0104 33.573 31.6354 33.573 30.7083V24.4583C33.573 23.5313 33.198 23.1563 32.2709 23.1563H30.1876Z" fill="#0E508F"/>
</svg>
