<svg width="52" height="52" viewBox="0 0 52 52" fill="none" xmlns="http://www.w3.org/2000/svg">
<path d="M25.5312 51.0625C11.4712 51.0625 0 39.615 0 25.5312C0 11.4475 11.4712 0 25.5312 0C39.5913 0 51.0625 11.4475 51.0625 25.5312C51.0625 39.615 39.615 51.0625 25.5312 51.0625ZM25.5312 3.5625C13.4187 3.5625 3.5625 13.4187 3.5625 25.5312C3.5625 37.6437 13.4187 47.5 25.5312 47.5C37.6437 47.5 47.5 37.6437 47.5 25.5312C47.5 13.4187 37.6437 3.5625 25.5312 3.5625Z" fill="#0E508F"/>
<path d="M25.47 36.9999C24.7512 36.9999 24.0684 36.6405 23.6012 36.0056L22.1637 34.0889C22.1637 34.1009 22.1038 34.0649 22.0798 34.0649H21.6366C17.5396 34.0649 15 32.9509 15 27.4284V22.6366C15 17.5933 18.0787 16.2755 20.6663 16.0479C20.9538 16.012 21.2892 16 21.6366 16H29.3034C33.64 16 35.94 18.3001 35.94 22.6366V27.4284C35.94 27.7758 35.928 28.1112 35.8801 28.4346C35.6645 30.9862 34.3467 34.0649 29.3034 34.0649H28.8242L27.3388 36.0056C26.8716 36.6405 26.1888 36.9999 25.47 36.9999ZM21.6366 17.7969C21.3611 17.7969 21.0975 17.8089 20.846 17.8328C18.0667 18.0724 16.7969 19.5938 16.7969 22.6366V27.4284C16.7969 31.5373 18.0667 32.268 21.6366 32.268H22.1158C22.6548 32.268 23.2658 32.5675 23.6012 32.9988L25.0387 34.9274C25.3023 35.2868 25.6377 35.2868 25.9013 34.9274L27.3388 33.0108C27.6862 32.5436 28.2373 32.268 28.8242 32.268H29.3034C32.3462 32.268 33.8676 30.9862 34.0952 28.2549C34.1311 27.9674 34.1431 27.7039 34.1431 27.4284V22.6366C34.1431 19.2943 32.6457 17.7969 29.3034 17.7969H21.6366Z" fill="#A7EB2B"/>
<path d="M25.4702 26.7096C24.7993 26.7096 24.2722 26.1705 24.2722 25.5117C24.2722 24.8528 24.8113 24.3137 25.4702 24.3137C26.129 24.3137 26.6681 24.8528 26.6681 25.5117C26.6681 26.1705 26.141 26.7096 25.4702 26.7096Z" fill="#A7EB2B"/>
<path d="M29.3034 26.7096C28.6326 26.7096 28.1055 26.1705 28.1055 25.5117C28.1055 24.8528 28.6445 24.3137 29.3034 24.3137C29.9623 24.3137 30.5013 24.8528 30.5013 25.5117C30.5013 26.1705 29.9623 26.7096 29.3034 26.7096Z" fill="#A7EB2B"/>
<path d="M21.6484 26.7096C20.9775 26.7096 20.4504 26.1705 20.4504 25.5117C20.4504 24.8528 20.9895 24.3137 21.6484 24.3137C22.3072 24.3137 22.8463 24.8528 22.8463 25.5117C22.8463 26.1705 22.3072 26.7096 21.6484 26.7096Z" fill="#A7EB2B"/>
</svg>
