<svg width="52" height="52" viewBox="0 0 52 52" fill="none" xmlns="http://www.w3.org/2000/svg">
<path d="M25.5312 51.0625C11.4712 51.0625 0 39.615 0 25.5312C0 11.4475 11.4712 0 25.5312 0C39.5913 0 51.0625 11.4475 51.0625 25.5312C51.0625 39.615 39.615 51.0625 25.5312 51.0625ZM25.5312 3.5625C13.4187 3.5625 3.5625 13.4187 3.5625 25.5312C3.5625 37.6437 13.4187 47.5 25.5312 47.5C37.6437 47.5 47.5 37.6437 47.5 25.5312C47.5 13.4187 37.6437 3.5625 25.5312 3.5625Z" fill="#0E508F"/>
<path d="M28.6249 36.6978H22.3749C16.7187 36.6978 14.302 34.2812 14.302 28.6249V22.3749C14.302 16.7187 16.7187 14.302 22.3749 14.302H27.5833C28.0103 14.302 28.3645 14.6562 28.3645 15.0833C28.3645 15.5103 28.0103 15.8645 27.5833 15.8645H22.3749C17.5728 15.8645 15.8645 17.5728 15.8645 22.3749V28.6249C15.8645 33.427 17.5728 35.1353 22.3749 35.1353H28.6249C33.427 35.1353 35.1353 33.427 35.1353 28.6249V23.4166C35.1353 22.9895 35.4895 22.6353 35.9166 22.6353C36.3437 22.6353 36.6978 22.9895 36.6978 23.4166V28.6249C36.6978 34.2812 34.2812 36.6978 28.6249 36.6978Z" fill="#A7EB2B"/>
<path d="M35.9166 24.198H31.7499C28.1874 24.198 26.802 22.8126 26.802 19.2501V15.0834C26.802 14.7709 26.9895 14.4793 27.2812 14.3647C27.5728 14.2397 27.9062 14.3126 28.1353 14.5313L36.4687 22.8647C36.6874 23.0834 36.7603 23.4272 36.6353 23.7188C36.5103 24.0105 36.2291 24.198 35.9166 24.198ZM28.3645 16.9688V19.2501C28.3645 21.9376 29.0624 22.6355 31.7499 22.6355H34.0312L28.3645 16.9688Z" fill="#A7EB2B"/>
<path d="M26.5417 27.323H20.2917C19.8647 27.323 19.5105 26.9688 19.5105 26.5417C19.5105 26.1147 19.8647 25.7605 20.2917 25.7605H26.5417C26.9688 25.7605 27.323 26.1147 27.323 26.5417C27.323 26.9688 26.9688 27.323 26.5417 27.323Z" fill="#A7EB2B"/>
<path d="M24.4584 31.4895H20.2917C19.8647 31.4895 19.5105 31.1353 19.5105 30.7083C19.5105 30.2812 19.8647 29.927 20.2917 29.927H24.4584C24.8855 29.927 25.2397 30.2812 25.2397 30.7083C25.2397 31.1353 24.8855 31.4895 24.4584 31.4895Z" fill="#A7EB2B"/>
</svg>
