<svg width="52" height="52" viewBox="0 0 52 52" fill="none" xmlns="http://www.w3.org/2000/svg">
<path d="M25.5312 51.0625C11.4712 51.0625 0 39.615 0 25.5312C0 11.4475 11.4712 0 25.5312 0C39.5913 0 51.0625 11.4475 51.0625 25.5312C51.0625 39.615 39.615 51.0625 25.5312 51.0625ZM25.5312 3.5625C13.4187 3.5625 3.5625 13.4187 3.5625 25.5312C3.5625 37.6437 13.4187 47.5 25.5312 47.5C37.6437 47.5 47.5 37.6437 47.5 25.5312C47.5 13.4187 37.6437 3.5625 25.5312 3.5625Z" fill="#0E508F"/>
<path d="M30.3334 31.1459H21.6667C21.2226 31.1459 20.8542 30.7775 20.8542 30.3334V21.6667C20.8542 21.2225 21.2226 20.8542 21.6667 20.8542H30.3334C30.7776 20.8542 31.1459 21.2225 31.1459 21.6667V30.3334C31.1459 30.7775 30.7776 31.1459 30.3334 31.1459ZM22.4792 29.5209H29.5209V22.4792H22.4792V29.5209Z" fill="#A7EB2B"/>
<path d="M18.4167 37.6458C16.1742 37.6458 14.3542 35.8258 14.3542 33.5833C14.3542 31.3408 16.1742 29.5208 18.4167 29.5208H21.6667C22.1109 29.5208 22.4792 29.8891 22.4792 30.3333V33.5833C22.4792 35.8258 20.6592 37.6458 18.4167 37.6458ZM18.4167 31.1458C17.0734 31.1458 15.9792 32.24 15.9792 33.5833C15.9792 34.9266 17.0734 36.0208 18.4167 36.0208C19.7601 36.0208 20.8542 34.9266 20.8542 33.5833V31.1458H18.4167Z" fill="#A7EB2B"/>
<path d="M21.6667 22.4792H18.4167C16.1742 22.4792 14.3542 20.6592 14.3542 18.4167C14.3542 16.1742 16.1742 14.3542 18.4167 14.3542C20.6592 14.3542 22.4792 16.1742 22.4792 18.4167V21.6667C22.4792 22.1109 22.1109 22.4792 21.6667 22.4792ZM18.4167 15.9792C17.0734 15.9792 15.9792 17.0734 15.9792 18.4167C15.9792 19.76 17.0734 20.8542 18.4167 20.8542H20.8542V18.4167C20.8542 17.0734 19.7601 15.9792 18.4167 15.9792Z" fill="#A7EB2B"/>
<path d="M33.5833 22.4792H30.3333C29.8891 22.4792 29.5208 22.1109 29.5208 21.6667V18.4167C29.5208 16.1742 31.3408 14.3542 33.5833 14.3542C35.8258 14.3542 37.6458 16.1742 37.6458 18.4167C37.6458 20.6592 35.8258 22.4792 33.5833 22.4792ZM31.1458 20.8542H33.5833C34.9266 20.8542 36.0208 19.76 36.0208 18.4167C36.0208 17.0734 34.9266 15.9792 33.5833 15.9792C32.2399 15.9792 31.1458 17.0734 31.1458 18.4167V20.8542Z" fill="#A7EB2B"/>
<path d="M33.5833 37.6458C31.3408 37.6458 29.5208 35.8258 29.5208 33.5833V30.3333C29.5208 29.8891 29.8891 29.5208 30.3333 29.5208H33.5833C35.8258 29.5208 37.6458 31.3408 37.6458 33.5833C37.6458 35.8258 35.8258 37.6458 33.5833 37.6458ZM31.1458 31.1458V33.5833C31.1458 34.9266 32.2399 36.0208 33.5833 36.0208C34.9266 36.0208 36.0208 34.9266 36.0208 33.5833C36.0208 32.24 34.9266 31.1458 33.5833 31.1458H31.1458Z" fill="#A7EB2B"/>
<path d="M30.6946 31.4731H22.389C21.9633 31.4731 21.6104 31.1201 21.6104 30.6944V22.3889C21.6104 21.9632 21.9633 21.6102 22.389 21.6102H30.6946C31.1202 21.6102 31.4732 21.9632 31.4732 22.3889V30.6944C31.4732 31.1201 31.1202 31.4731 30.6946 31.4731ZM23.1676 29.9158H29.9159V23.1675H23.1676V29.9158Z" fill="#A7EB2B"/>
<path d="M19.2743 37.7023C17.1253 37.7023 15.3811 35.9581 15.3811 33.8091C15.3811 31.66 17.1253 29.9158 19.2743 29.9158H22.3889C22.8146 29.9158 23.1676 30.2688 23.1676 30.6945V33.8091C23.1676 35.9581 21.4234 37.7023 19.2743 37.7023ZM19.2743 31.4731C17.987 31.4731 16.9384 32.5217 16.9384 33.8091C16.9384 35.0964 17.987 36.145 19.2743 36.145C20.5617 36.145 21.6103 35.0964 21.6103 33.8091V31.4731H19.2743Z" fill="#A7EB2B"/>
<path d="M22.3889 23.1675H19.2743C17.1253 23.1675 15.3811 21.4233 15.3811 19.2743C15.3811 17.1252 17.1253 15.381 19.2743 15.381C21.4234 15.381 23.1676 17.1252 23.1676 19.2743V22.3889C23.1676 22.8145 22.8146 23.1675 22.3889 23.1675ZM19.2743 16.9383C17.987 16.9383 16.9384 17.9869 16.9384 19.2743C16.9384 20.5616 17.987 21.6102 19.2743 21.6102H21.6103V19.2743C21.6103 17.9869 20.5617 16.9383 19.2743 16.9383Z" fill="#A7EB2B"/>
<path d="M33.809 23.1675H30.6944C30.2688 23.1675 29.9158 22.8145 29.9158 22.3889V19.2743C29.9158 17.1252 31.6599 15.381 33.809 15.381C35.9581 15.381 37.7022 17.1252 37.7022 19.2743C37.7022 21.4233 35.9581 23.1675 33.809 23.1675ZM31.4731 21.6102H33.809C35.0964 21.6102 36.1449 20.5616 36.1449 19.2743C36.1449 17.9869 35.0964 16.9383 33.809 16.9383C32.5216 16.9383 31.4731 17.9869 31.4731 19.2743V21.6102Z" fill="#A7EB2B"/>
<path d="M33.809 37.7023C31.6599 37.7023 29.9158 35.9581 29.9158 33.8091V30.6945C29.9158 30.2688 30.2688 29.9158 30.6944 29.9158H33.809C35.9581 29.9158 37.7022 31.66 37.7022 33.8091C37.7022 35.9581 35.9581 37.7023 33.809 37.7023ZM31.4731 31.4731V33.8091C31.4731 35.0964 32.5216 36.145 33.809 36.145C35.0964 36.145 36.1449 35.0964 36.1449 33.8091C36.1449 32.5217 35.0964 31.4731 33.809 31.4731H31.4731Z" fill="#A7EB2B"/>
</svg>
