<svg width="52" height="52" viewBox="0 0 52 52" fill="none" xmlns="http://www.w3.org/2000/svg">
<path d="M25.5312 51.0625C11.4712 51.0625 0 39.615 0 25.5312C0 11.4475 11.4712 0 25.5312 0C39.5913 0 51.0625 11.4475 51.0625 25.5312C51.0625 39.615 39.615 51.0625 25.5312 51.0625ZM25.5312 3.5625C13.4187 3.5625 3.5625 13.4187 3.5625 25.5312C3.5625 37.6437 13.4187 47.5 25.5312 47.5C37.6437 47.5 47.5 37.6437 47.5 25.5312C47.5 13.4187 37.6437 3.5625 25.5312 3.5625Z" fill="#0E508F"/>
<path d="M31.8484 36.515C31.4868 36.515 31.1251 36.4217 30.7984 36.2233L26.1201 33.4467C25.6301 33.435 25.1401 33.4 24.6734 33.33C24.3584 33.2834 24.0901 33.0733 23.9734 32.77C23.8568 32.4667 23.9151 32.14 24.1251 31.895C24.8951 30.9967 25.2918 29.9233 25.2918 28.78C25.2918 25.9567 22.8068 23.6583 19.7501 23.6583C18.6068 23.6583 17.5101 23.9734 16.5884 24.58C16.3317 24.7434 16.0168 24.7667 15.7368 24.6384C15.4684 24.51 15.2701 24.2533 15.2351 23.95C15.2001 23.6233 15.1768 23.2967 15.1768 22.9584C15.1768 17.1717 20.1934 12.47 26.3534 12.47C32.5134 12.47 37.5301 17.1717 37.5301 22.9584C37.5301 26.1317 36.0601 29.0483 33.4701 31.0433L33.8668 34.2167C33.9601 35.01 33.6101 35.7567 32.9451 36.1884C32.6184 36.3984 32.2334 36.515 31.8484 36.515ZM26.3417 31.685C26.5051 31.6733 26.6684 31.7201 26.8084 31.8134L31.6968 34.7184C31.8251 34.8 31.9301 34.765 32.0001 34.7184C32.0584 34.6834 32.1518 34.59 32.1284 34.4267L31.6734 30.74C31.6384 30.4133 31.7784 30.0984 32.0351 29.9117C34.4151 28.2434 35.7801 25.7 35.7801 22.935C35.7801 18.1167 31.5568 14.1967 26.3534 14.1967C21.3484 14.1967 17.2418 17.8367 16.9384 22.4101C17.8134 22.0717 18.7584 21.885 19.7384 21.885C23.7634 21.885 27.0301 24.965 27.0301 28.7567C27.0418 29.7833 26.7967 30.775 26.3417 31.685Z" fill="#A7EB2B"/>
<path d="M16.3431 37.5418C16.0397 37.5418 15.7481 37.4601 15.4797 37.2851C14.9547 36.9468 14.6747 36.3635 14.7447 35.7451L14.9781 33.9484C13.4031 32.6651 12.4697 30.7634 12.4697 28.7684C12.4697 26.4934 13.6597 24.3701 15.6547 23.0984C16.8564 22.3168 18.2797 21.8968 19.7614 21.8968C23.7864 21.8968 27.0531 24.9767 27.0531 28.7684C27.0531 30.3084 26.4931 31.8251 25.4664 33.0268C24.1481 34.6251 22.1764 35.5584 20.0064 35.6284L17.1597 37.3201C16.9031 37.4718 16.6231 37.5418 16.3431 37.5418ZM19.7497 23.6468C18.6064 23.6468 17.5097 23.9618 16.5881 24.5684C15.0947 25.5251 14.2081 27.0884 14.2081 28.7684C14.2081 30.3901 15.0014 31.8718 16.4014 32.8285C16.6697 33.0151 16.8097 33.3301 16.7747 33.6567L16.5181 35.6518L19.3064 33.9951C19.4464 33.9135 19.5981 33.8667 19.7497 33.8667C21.4647 33.8667 23.0864 33.1318 24.1131 31.8835C24.8831 30.9735 25.2914 29.9001 25.2914 28.7567C25.2914 25.9451 22.8064 23.6468 19.7497 23.6468Z" fill="#A7EB2B"/>
</svg>
