<svg width="52" height="52" viewBox="0 0 52 52" fill="none" xmlns="http://www.w3.org/2000/svg">
<path d="M25.5312 51.0625C11.4712 51.0625 0 39.615 0 25.5312C0 11.4475 11.4712 0 25.5312 0C39.5913 0 51.0625 11.4475 51.0625 25.5312C51.0625 39.615 39.615 51.0625 25.5312 51.0625ZM25.5312 3.5625C13.4187 3.5625 3.5625 13.4187 3.5625 25.5312C3.5625 37.6437 13.4187 47.5 25.5312 47.5C37.6437 47.5 47.5 37.6437 47.5 25.5312C47.5 13.4187 37.6437 3.5625 25.5312 3.5625Z" fill="#A7EB2B"/>
<path d="M32.85 26.75H30.15C27.49 26.75 26.25 25.51 26.25 22.85V19.15C26.25 16.49 27.49 15.25 30.15 15.25H32.85C35.51 15.25 36.75 16.49 36.75 19.15V22.85C36.75 25.51 35.51 26.75 32.85 26.75ZM30.15 16.75C28.31 16.75 27.75 17.31 27.75 19.15V22.85C27.75 24.69 28.31 25.25 30.15 25.25H32.85C34.69 25.25 35.25 24.69 35.25 22.85V19.15C35.25 17.31 34.69 16.75 32.85 16.75H30.15Z" fill="#0E508F"/>
<path d="M21.85 36.75H19.15C16.49 36.75 15.25 35.51 15.25 32.85V29.15C15.25 26.49 16.49 25.25 19.15 25.25H21.85C24.51 25.25 25.75 26.49 25.75 29.15V32.85C25.75 35.51 24.51 36.75 21.85 36.75ZM19.15 26.75C17.31 26.75 16.75 27.31 16.75 29.15V32.85C16.75 34.69 17.31 35.25 19.15 35.25H21.85C23.69 35.25 24.25 34.69 24.25 32.85V29.15C24.25 27.31 23.69 26.75 21.85 26.75H19.15Z" fill="#0E508F"/>
<path d="M28.9999 36.75C28.7299 36.75 28.4799 36.6 28.3499 36.37C28.2199 36.14 28.2199 35.85 28.3599 35.62L29.4099 33.87C29.6199 33.51 30.0799 33.4 30.4399 33.61C30.7999 33.82 30.9099 34.28 30.6999 34.64L30.4299 35.09C33.1899 34.44 35.2599 31.96 35.2599 29C35.2599 28.59 35.5999 28.25 36.0099 28.25C36.4199 28.25 36.7599 28.59 36.7599 29C36.7499 33.27 33.2699 36.75 28.9999 36.75Z" fill="#0E508F"/>
<path d="M16 23.75C15.59 23.75 15.25 23.41 15.25 23C15.25 18.73 18.73 15.25 23 15.25C23.27 15.25 23.52 15.4 23.65 15.63C23.78 15.86 23.78 16.15 23.64 16.38L22.59 18.14C22.38 18.49 21.92 18.61 21.56 18.39C21.21 18.18 21.09 17.72 21.31 17.36L21.58 16.91C18.81 17.56 16.75 20.04 16.75 23C16.75 23.41 16.41 23.75 16 23.75Z" fill="#0E508F"/>
</svg>
