<svg width="52" height="52" viewBox="0 0 52 52" fill="none" xmlns="http://www.w3.org/2000/svg">
<path d="M25.5312 51.0625C11.4712 51.0625 0 39.615 0 25.5312C0 11.4475 11.4712 0 25.5312 0C39.5913 0 51.0625 11.4475 51.0625 25.5312C51.0625 39.615 39.615 51.0625 25.5312 51.0625ZM25.5312 3.5625C13.4187 3.5625 3.5625 13.4187 3.5625 25.5312C3.5625 37.6437 13.4187 47.5 25.5312 47.5C37.6437 47.5 47.5 37.6437 47.5 25.5312C47.5 13.4187 37.6437 3.5625 25.5312 3.5625Z" fill="#A7EB2B"/>
<path d="M24.4299 32.3699C24.2799 32.3699 24.1399 32.3299 24.0099 32.2399C23.7999 32.0999 23.6799 31.8699 23.6799 31.6199C23.6799 31.4699 23.6699 31.3099 23.6499 31.1499C23.5599 30.4399 23.2399 29.8199 22.6999 29.2799C22.1599 28.7399 21.4899 28.3999 20.7699 28.3099C20.6499 28.2999 20.4799 28.2899 20.3199 28.2999C20.0599 28.3199 19.8199 28.2099 19.6699 27.9999C19.5199 27.7999 19.4799 27.5299 19.5599 27.2899C19.7099 26.8799 19.9299 26.5099 20.1899 26.2099L21.7299 24.2699C24.3799 20.9599 29.7499 16.9799 33.6799 15.3999C34.5199 15.0799 35.3999 15.2699 36.0099 15.8699C36.6399 16.4999 36.8299 17.3999 36.4999 18.2199C34.9199 22.1599 30.9499 27.5199 27.6399 30.1699L25.6699 31.7499C25.2999 32.0199 24.9999 32.1899 24.6999 32.3099C24.6199 32.3499 24.5199 32.3699 24.4299 32.3699ZM21.5399 26.9399C22.3799 27.1599 23.1299 27.5999 23.7599 28.2299C24.3899 28.8499 24.8099 29.5699 25.0199 30.3699L26.7099 29.0099C29.8499 26.4999 33.6199 21.4099 35.1099 17.6699C35.2599 17.2999 35.0499 17.0399 34.9499 16.9499C34.8799 16.8799 34.6199 16.6599 34.2199 16.8099C30.4999 18.3099 25.4099 22.0799 22.8899 25.2199L21.5399 26.9399Z" fill="#0E508F"/>
<path d="M18.0801 36.7501C17.3301 36.7501 16.6101 36.4501 16.0701 35.9101C15.4501 35.2901 15.1501 34.4301 15.2501 33.5501L15.5201 31.0901C15.7801 28.6501 17.7801 26.8401 20.2601 26.7901C20.4501 26.7801 20.7001 26.7901 20.9301 26.8101C22.0201 26.9501 22.9901 27.4401 23.7701 28.2201C24.5401 28.9901 25.0001 29.9101 25.1401 30.9401C25.1701 31.1601 25.1901 31.4001 25.1901 31.6101C25.1901 32.9301 24.6801 34.1601 23.7601 35.0901C22.9901 35.8501 22.0001 36.3201 20.8801 36.4601L18.4101 36.7301C18.3001 36.7401 18.1901 36.7501 18.0801 36.7501ZM20.4501 28.3001C20.4101 28.3001 20.3601 28.3001 20.3201 28.3001C18.8101 28.3301 17.2101 29.3601 17.0101 31.2601L16.7401 33.7201C16.6901 34.1401 16.8401 34.5501 17.1301 34.8501C17.4201 35.1401 17.8301 35.2901 18.2401 35.2401L20.7001 34.9701C21.4701 34.8701 22.1601 34.5501 22.6801 34.0301C23.3201 33.3901 23.6801 32.5301 23.6801 31.6101C23.6801 31.4601 23.6701 31.3001 23.6501 31.1401C23.5601 30.4301 23.2401 29.8101 22.7001 29.2701C22.1601 28.7301 21.4901 28.3901 20.7701 28.3001C20.6901 28.3001 20.5701 28.3001 20.4501 28.3001Z" fill="#0E508F"/>
<path d="M28.24 29.22C27.83 29.22 27.49 28.88 27.49 28.47C27.49 26.27 25.7 24.49 23.51 24.49C23.1 24.49 22.76 24.15 22.76 23.74C22.76 23.33 23.09 22.99 23.5 22.99C26.52 22.99 28.98 25.45 28.98 28.47C28.99 28.89 28.65 29.22 28.24 29.22Z" fill="#0E508F"/>
<path d="M29.6799 36.7299C28.7499 36.7299 27.8199 36.2899 26.9299 35.3999C26.6399 35.1099 26.6399 34.6299 26.9299 34.3399C27.2199 34.0499 27.6999 34.0499 27.9899 34.3399C29.1699 35.5199 30.1799 35.5199 31.3599 34.3399L34.3199 31.3799C35.5099 30.1899 35.5099 29.1799 34.3199 27.9999L33.5799 27.2699C33.2899 26.9799 33.2799 26.4999 33.5699 26.2099C33.8599 25.9099 34.3399 25.9099 34.6299 26.1999L35.3699 26.9299C37.1499 28.7099 37.1499 30.6599 35.3699 32.4399L32.4099 35.3999C31.5399 36.2799 30.6099 36.7299 29.6799 36.7299Z" fill="#0E508F"/>
<path d="M17.11 25.26C16.92 25.26 16.72 25.19 16.58 25.04C14.82 23.27 14.82 21.31 16.58 19.54L19.54 16.58C21.3 14.82 23.28 14.82 25.04 16.58L25.78 17.32C26.07 17.61 26.07 18.09 25.78 18.38C25.49 18.67 25.01 18.67 24.72 18.38L23.97 17.64C22.79 16.46 21.77 16.46 20.6 17.64L17.64 20.6C16.46 21.79 16.46 22.8 17.64 23.99C17.93 24.28 17.93 24.76 17.64 25.05C17.49 25.19 17.3 25.26 17.11 25.26Z" fill="#0E508F"/>
<path d="M21.55 22.3C21.36 22.3 21.17 22.23 21.02 22.08C20.73 21.79 20.73 21.31 21.02 21.02L24.72 17.32C25.01 17.03 25.49 17.03 25.78 17.32C26.07 17.61 26.07 18.09 25.78 18.38L22.08 22.08C21.93 22.23 21.74 22.3 21.55 22.3Z" fill="#0E508F"/>
<path d="M31.1601 30.4299C30.9701 30.4299 30.7801 30.3599 30.6301 30.2099C30.3401 29.9199 30.3401 29.4399 30.6301 29.1499L33.5901 26.1899C33.8801 25.8999 34.3601 25.8999 34.6501 26.1899C34.9401 26.4799 34.9401 26.9599 34.6501 27.2499L31.6901 30.2099C31.5501 30.3599 31.3601 30.4299 31.1601 30.4299Z" fill="#0E508F"/>
</svg>
