<svg width="52" height="52" viewBox="0 0 52 52" fill="none" xmlns="http://www.w3.org/2000/svg">
<path d="M25.5312 51.0625C11.4712 51.0625 0 39.615 0 25.5312C0 11.4475 11.4712 0 25.5312 0C39.5913 0 51.0625 11.4475 51.0625 25.5312C51.0625 39.615 39.615 51.0625 25.5312 51.0625ZM25.5312 3.5625C13.4187 3.5625 3.5625 13.4187 3.5625 25.5312C3.5625 37.6437 13.4187 47.5 25.5312 47.5C37.6437 47.5 47.5 37.6437 47.5 25.5312C47.5 13.4187 37.6437 3.5625 25.5312 3.5625Z" fill="#A7EB2B"/>
<path d="M25.9999 27.4575C25.1224 27.4575 24.2899 27.12 23.6486 26.49C22.8274 25.6687 22.5011 24.4875 22.7711 23.3287C23.0524 22.1475 23.9974 21.2025 25.1786 20.9212C26.3261 20.64 27.5074 20.9662 28.3399 21.7987C29.1724 22.6312 29.4874 23.8012 29.2174 24.96C28.9361 26.1412 27.9911 27.0862 26.8099 27.3674C26.5399 27.4237 26.2699 27.4575 25.9999 27.4575ZM25.9999 22.5075C25.8649 22.5075 25.7186 22.53 25.5836 22.5637C25.0211 22.6987 24.5599 23.16 24.4249 23.7225C24.2786 24.3075 24.4361 24.8812 24.8524 25.2862C25.2686 25.7025 25.8311 25.8487 26.4274 25.7137C26.9899 25.5787 27.4511 25.1174 27.5861 24.5549C27.7324 23.9699 27.5749 23.3962 27.1586 22.9912C26.8436 22.6762 26.4386 22.5075 25.9999 22.5075Z" fill="#0E508F"/>
<path d="M19.2726 32.2162C19.0701 32.2162 18.8563 32.1375 18.6988 31.9913C16.5163 29.9663 15.2676 27.1087 15.2676 24.1387C15.2676 18.2212 20.0826 13.4062 26.0001 13.4062C31.9176 13.4062 36.7326 18.2212 36.7326 24.1387C36.7326 27.1312 35.5288 29.8987 33.3463 31.9575C33.0088 32.2725 32.4688 32.2613 32.1538 31.9238C31.8388 31.5863 31.8501 31.0463 32.1876 30.7313C34.0326 28.9988 35.0451 26.67 35.0451 24.15C35.0451 19.1662 30.9838 15.105 26.0001 15.105C21.0163 15.105 16.9551 19.1662 16.9551 24.15C16.9551 26.6925 17.9788 29.0325 19.8463 30.765C20.1838 31.08 20.2063 31.62 19.8913 31.9575C19.7226 32.1262 19.4976 32.2162 19.2726 32.2162Z" fill="#0E508F"/>
<path d="M30.5 29.2126C30.2975 29.2126 30.0837 29.1339 29.9262 28.9876C29.5887 28.6726 29.5662 28.1326 29.8925 27.7951C30.8262 26.8051 31.3437 25.5001 31.3437 24.1501C31.3437 21.2026 28.9474 18.8176 26.0112 18.8176C23.075 18.8176 20.6787 21.2139 20.6787 24.1501C20.6787 25.5114 21.1962 26.8051 22.13 27.7951C22.445 28.1326 22.4337 28.6726 22.0962 28.9876C21.7587 29.3026 21.2187 29.2914 20.9037 28.9539C19.6775 27.6489 18.9912 25.9389 18.9912 24.1501C18.9912 20.2801 22.1412 17.1301 26.0112 17.1301C29.8812 17.1301 33.0312 20.2801 33.0312 24.1501C33.0312 25.9389 32.3562 27.6489 31.1187 28.9539C30.95 29.1226 30.725 29.2126 30.5 29.2126Z" fill="#0E508F"/>
<path d="M27.6201 37.5938H24.3914C23.1089 37.5938 21.9726 36.8739 21.4214 35.7264C20.8701 34.5789 21.0164 33.2401 21.8151 32.2388L23.4351 30.2251C24.0651 29.4376 24.9989 28.9875 26.0114 28.9875C27.0239 28.9875 27.9576 29.4376 28.5876 30.2251L30.2076 32.2388C31.0064 33.2401 31.1639 34.5789 30.6014 35.7264C30.0276 36.8739 28.8914 37.5938 27.6201 37.5938ZM24.7401 31.2713L23.1201 33.2851C22.7264 33.7801 22.6476 34.4213 22.9289 34.9838C23.1989 35.5576 23.7501 35.8951 24.3801 35.8951H27.6089C28.2389 35.8951 28.7901 35.5576 29.0601 34.9838C29.3301 34.4101 29.2626 33.7801 28.8689 33.2851L27.2489 31.2713C26.6414 30.5063 25.3589 30.5063 24.7401 31.2713Z" fill="#0E508F"/>
</svg>
