<svg width="52" height="52" viewBox="0 0 52 52" fill="none" xmlns="http://www.w3.org/2000/svg">
<path d="M25.5312 51.0625C11.4712 51.0625 0 39.615 0 25.5312C0 11.4475 11.4712 0 25.5312 0C39.5913 0 51.0625 11.4475 51.0625 25.5312C51.0625 39.615 39.615 51.0625 25.5312 51.0625ZM25.5312 3.5625C13.4187 3.5625 3.5625 13.4187 3.5625 25.5312C3.5625 37.6437 13.4187 47.5 25.5312 47.5C37.6437 47.5 47.5 37.6437 47.5 25.5312C47.5 13.4187 37.6437 3.5625 25.5312 3.5625Z" fill="#0E508F"/>
<path d="M23.4502 21.47C23.2602 21.47 23.0702 21.4 22.9202 21.25L19.7302 18.06L16.5402 21.25C16.2502 21.54 15.7702 21.54 15.4802 21.25C15.1902 20.96 15.1902 20.48 15.4802 20.19L19.2002 16.47C19.3402 16.33 19.5302 16.25 19.7302 16.25C19.9302 16.25 20.1202 16.33 20.2602 16.47L23.9802 20.19C24.2702 20.48 24.2702 20.96 23.9802 21.25C23.8302 21.4 23.6402 21.47 23.4502 21.47Z" fill="#A7EB2B"/>
<path d="M19.73 35.75C19.32 35.75 18.98 35.41 18.98 35V17C18.98 16.59 19.32 16.25 19.73 16.25C20.14 16.25 20.48 16.59 20.48 17V35C20.48 35.41 20.14 35.75 19.73 35.75Z" fill="#A7EB2B"/>
<path d="M30.28 35.7497C30.08 35.7497 29.89 35.6698 29.75 35.5298L26.03 31.8097C25.74 31.5197 25.74 31.0397 26.03 30.7497C26.32 30.4597 26.8 30.4597 27.09 30.7497L30.28 33.9397L33.4699 30.7497C33.7599 30.4597 34.24 30.4597 34.53 30.7497C34.82 31.0397 34.82 31.5197 34.53 31.8097L30.81 35.5298C30.67 35.6698 30.47 35.7497 30.28 35.7497Z" fill="#A7EB2B"/>
<path d="M30.27 35.75C29.86 35.75 29.52 35.41 29.52 35V17C29.52 16.59 29.86 16.25 30.27 16.25C30.68 16.25 31.02 16.59 31.02 17V35C31.02 35.41 30.69 35.75 30.27 35.75Z" fill="#A7EB2B"/>
</svg>
