<svg width="50" height="50" viewBox="0 0 50 50" fill="none" xmlns="http://www.w3.org/2000/svg">
<path d="M24.5312 51.0625C10.4712 51.0625 -1 39.615 -1 25.5312C-1 11.4475 10.4712 0 24.5312 0C38.5913 0 50.0625 11.4475 50.0625 25.5312C50.0625 39.615 38.615 51.0625 24.5312 51.0625ZM24.5312 3.5625C12.4187 3.5625 2.5625 13.4187 2.5625 25.5312C2.5625 37.6437 12.4187 47.5 24.5312 47.5C36.6437 47.5 46.5 37.6437 46.5 25.5312C46.5 13.4187 36.6437 3.5625 24.5312 3.5625Z" fill="#A7EB2B"/>
<path d="M25 16.6666V25M25 33.3333H25.0208" stroke="#0E508F" stroke-width="4" stroke-linecap="round" stroke-linejoin="round"/>
</svg>
