<svg width="24" height="23" viewBox="0 0 24 23" fill="none" xmlns="http://www.w3.org/2000/svg">
<path d="M21.7731 0H1.28883C0.953096 0 0.631115 0.133277 0.393717 0.37051C0.156318 0.607744 0.0229492 0.929501 0.0229492 1.265V21.735C0.0229492 22.0705 0.156318 22.3923 0.393717 22.6295C0.631115 22.8667 0.953096 23 1.28883 23H12.3135V14.0875H9.32141V10.6375H12.3135V8.05C12.2515 7.44252 12.3233 6.82885 12.5238 6.25202C12.7242 5.67519 13.0486 5.14918 13.474 4.71087C13.8995 4.27257 14.4157 3.93259 14.9866 3.71477C15.5574 3.49696 16.1691 3.40659 16.7786 3.45C17.6743 3.44449 18.5696 3.49057 19.4599 3.588V6.693H17.6302C16.1802 6.693 15.904 7.383 15.904 8.3835V10.603H19.3564L18.9076 14.053H15.904V23H21.7731C21.9393 23 22.1039 22.9673 22.2575 22.9037C22.4111 22.8401 22.5506 22.747 22.6682 22.6295C22.7857 22.512 22.879 22.3726 22.9426 22.2191C23.0062 22.0656 23.0389 21.9011 23.0389 21.735V1.265C23.0389 1.09888 23.0062 0.934382 22.9426 0.780906C22.879 0.627429 22.7857 0.487976 22.6682 0.37051C22.5506 0.253044 22.4111 0.159865 22.2575 0.0962925C22.1039 0.0327203 21.9393 0 21.7731 0Z" fill="white"/>
</svg>
