<svg width="248" height="60" viewBox="0 0 248 60" fill="none" xmlns="http://www.w3.org/2000/svg">
<path d="M54.2598 15.2285H58.3477V21.9443H62.1885V25.2461H58.3477V40.9463C58.3477 41.7848 58.6322 42.3464 59.2012 42.6309C59.5156 42.7956 60.0397 42.8779 60.7734 42.8779C60.9681 42.8779 61.1777 42.8779 61.4023 42.8779C61.627 42.863 61.889 42.8405 62.1885 42.8105V46C61.7243 46.1348 61.2376 46.2321 60.7285 46.292C60.2344 46.3519 59.6953 46.3818 59.1113 46.3818C57.2246 46.3818 55.9443 45.9027 55.2705 44.9443C54.5967 43.971 54.2598 42.7132 54.2598 41.1709V25.2461H51.0029V21.9443H54.2598V15.2285ZM66.3662 21.9443H70.207V26.0996C70.5215 25.291 71.2926 24.3102 72.5205 23.1572C73.7484 21.9893 75.1634 21.4053 76.7656 21.4053C76.8405 21.4053 76.9678 21.4128 77.1475 21.4277C77.3271 21.4427 77.6341 21.4727 78.0684 21.5176V25.7852C77.8288 25.7402 77.6042 25.7103 77.3945 25.6953C77.1999 25.6803 76.9827 25.6729 76.7432 25.6729C74.7067 25.6729 73.1419 26.3317 72.0488 27.6494C70.9557 28.9521 70.4092 30.457 70.4092 32.1641V46H66.3662V21.9443ZM85.6152 21.9443V37.9141C85.6152 39.1419 85.8099 40.1452 86.1992 40.9238C86.918 42.3613 88.2581 43.0801 90.2197 43.0801C93.0348 43.0801 94.9515 41.8223 95.9697 39.3066C96.5238 37.959 96.8008 36.1097 96.8008 33.7588V21.9443H100.844V46H97.0254L97.0703 42.4512C96.5462 43.3646 95.8949 44.1357 95.1162 44.7646C93.5739 46.0225 91.7021 46.6514 89.501 46.6514C86.0719 46.6514 83.736 45.5059 82.4932 43.2148C81.8193 41.987 81.4824 40.3473 81.4824 38.2959V21.9443H85.6152ZM117.195 21.4053C118.902 21.4053 120.557 21.8096 122.159 22.6182C123.761 23.4118 124.982 24.445 125.82 25.7178C126.629 26.9307 127.168 28.3457 127.438 29.9629C127.677 31.071 127.797 32.8379 127.797 35.2637H110.165C110.24 37.7044 110.816 39.666 111.895 41.1484C112.973 42.6159 114.642 43.3496 116.903 43.3496C119.015 43.3496 120.699 42.6533 121.957 41.2607C122.676 40.4521 123.185 39.5163 123.484 38.4531H127.46C127.355 39.3366 127.003 40.3249 126.404 41.418C125.82 42.4961 125.161 43.3796 124.428 44.0684C123.2 45.2663 121.68 46.0749 119.868 46.4941C118.895 46.7337 117.794 46.8535 116.566 46.8535C113.572 46.8535 111.034 45.7679 108.952 43.5967C106.871 41.4105 105.83 38.3558 105.83 34.4326C105.83 30.5693 106.878 27.4323 108.975 25.0215C111.071 22.6107 113.811 21.4053 117.195 21.4053ZM123.642 32.0518C123.477 30.2998 123.095 28.8997 122.496 27.8516C121.388 25.9049 119.539 24.9316 116.948 24.9316C115.091 24.9316 113.534 25.6055 112.276 26.9531C111.019 28.2858 110.352 29.9854 110.277 32.0518H123.642ZM134.76 21.9443L141.184 41.5303L147.899 21.9443H152.324L143.25 46H138.938L130.065 21.9443H134.76ZM155.783 22.0566H159.894V46H155.783V22.0566ZM155.783 13.0049H159.894V17.5869H155.783V13.0049ZM168.429 38.4531C168.549 39.8008 168.885 40.834 169.439 41.5527C170.458 42.8555 172.225 43.5068 174.74 43.5068C176.238 43.5068 177.555 43.1849 178.693 42.541C179.831 41.8822 180.4 40.8714 180.4 39.5088C180.4 38.4756 179.944 37.6895 179.03 37.1504C178.446 36.821 177.293 36.4391 175.571 36.0049L172.359 35.1963C170.308 34.6872 168.796 34.1182 167.822 33.4893C166.085 32.3962 165.217 30.8838 165.217 28.9521C165.217 26.6761 166.033 24.8343 167.665 23.4268C169.312 22.0192 171.521 21.3154 174.291 21.3154C177.915 21.3154 180.528 22.3786 182.13 24.5049C183.133 25.8525 183.62 27.305 183.59 28.8623H179.771C179.697 27.9489 179.375 27.1178 178.806 26.3691C177.877 25.306 176.268 24.7744 173.977 24.7744C172.449 24.7744 171.289 25.0664 170.495 25.6504C169.716 26.2344 169.327 27.0055 169.327 27.9639C169.327 29.012 169.844 29.8506 170.877 30.4795C171.476 30.8538 172.359 31.1833 173.527 31.4678L176.2 32.1191C179.105 32.8229 181.052 33.5042 182.04 34.1631C183.612 35.1963 184.398 36.821 184.398 39.0371C184.398 41.1784 183.582 43.0277 181.95 44.585C180.333 46.1423 177.862 46.9209 174.538 46.9209C170.959 46.9209 168.421 46.1123 166.924 44.4951C165.441 42.863 164.648 40.849 164.543 38.4531H168.429ZM193.068 21.9443V37.9141C193.068 39.1419 193.263 40.1452 193.652 40.9238C194.371 42.3613 195.711 43.0801 197.673 43.0801C200.488 43.0801 202.405 41.8223 203.423 39.3066C203.977 37.959 204.254 36.1097 204.254 33.7588V21.9443H208.297V46H204.479L204.523 42.4512C203.999 43.3646 203.348 44.1357 202.569 44.7646C201.027 46.0225 199.155 46.6514 196.954 46.6514C193.525 46.6514 191.189 45.5059 189.946 43.2148C189.272 41.987 188.936 40.3473 188.936 38.2959V21.9443H193.068ZM217.73 39.5986C217.73 40.7666 218.157 41.6875 219.011 42.3613C219.864 43.0352 220.875 43.3721 222.043 43.3721C223.465 43.3721 224.843 43.0426 226.176 42.3838C228.422 41.2907 229.545 39.5013 229.545 37.0156V33.7588C229.051 34.0732 228.414 34.3353 227.636 34.5449C226.857 34.7546 226.093 34.9043 225.345 34.9941L222.896 35.3086C221.429 35.5033 220.328 35.8102 219.595 36.2295C218.352 36.9333 217.73 38.0563 217.73 39.5986ZM227.523 31.4229C228.452 31.3031 229.073 30.9137 229.388 30.2549C229.567 29.8955 229.657 29.3789 229.657 28.7051C229.657 27.3275 229.163 26.3317 228.175 25.7178C227.201 25.0889 225.801 24.7744 223.975 24.7744C221.863 24.7744 220.366 25.3434 219.482 26.4814C218.988 27.1104 218.666 28.0462 218.517 29.2891H214.743C214.818 26.3242 215.776 24.2653 217.618 23.1123C219.475 21.9443 221.624 21.3604 224.064 21.3604C226.895 21.3604 229.193 21.8994 230.96 22.9775C232.712 24.0557 233.588 25.7327 233.588 28.0088V41.8672C233.588 42.2865 233.67 42.6234 233.835 42.8779C234.015 43.1325 234.382 43.2598 234.936 43.2598C235.115 43.2598 235.317 43.2523 235.542 43.2373C235.767 43.2074 236.006 43.1699 236.261 43.125V46.1123C235.632 46.292 235.153 46.4043 234.823 46.4492C234.494 46.4941 234.045 46.5166 233.476 46.5166C232.083 46.5166 231.072 46.0225 230.443 45.0342C230.114 44.5101 229.882 43.7689 229.747 42.8105C228.924 43.8887 227.741 44.8245 226.198 45.6182C224.656 46.4118 222.956 46.8086 221.1 46.8086C218.868 46.8086 217.042 46.1348 215.619 44.7871C214.212 43.4245 213.508 41.7249 213.508 39.6885C213.508 37.4574 214.204 35.7279 215.597 34.5C216.989 33.2721 218.816 32.516 221.077 32.2314L227.523 31.4229ZM240.349 13.0049H244.392V46H240.349V13.0049Z" fill="white"/>
<path d="M7 34.8716L34.5 24.8716L16.5 53.3716" stroke="white" stroke-width="6" stroke-linecap="round"/>
<path d="M5.96681 16.9266C5.72103 15.288 4.1935 14.159 2.55498 14.4048C0.916455 14.6506 -0.212588 16.1781 0.033191 17.8166L5.96681 16.9266ZM39.0117 18.1959L41.8359 17.1842L39.8126 11.5356L36.9883 12.5473L39.0117 18.1959ZM5.64564 26.9612L6.65732 29.7855L5.64564 26.9612ZM0.033191 17.8166L1.35267 26.6131L7.28629 25.7231L5.96681 16.9266L0.033191 17.8166ZM6.65732 29.7855L39.0117 18.1959L36.9883 12.5473L4.63396 24.1369L6.65732 29.7855ZM1.35267 26.6131C1.72655 29.1057 4.28455 30.6354 6.65732 29.7855L4.63396 24.1369C5.82035 23.712 7.09935 24.4768 7.28629 25.7231L1.35267 26.6131Z" fill="white"/>
</svg>
