<svg width="52" height="52" viewBox="0 0 52 52" fill="none" xmlns="http://www.w3.org/2000/svg">
<path d="M25.5312 51.0625C11.4712 51.0625 0 39.615 0 25.5312C0 11.4475 11.4712 0 25.5312 0C39.5913 0 51.0625 11.4475 51.0625 25.5312C51.0625 39.615 39.615 51.0625 25.5312 51.0625ZM25.5312 3.5625C13.4187 3.5625 3.5625 13.4187 3.5625 25.5312C3.5625 37.6437 13.4187 47.5 25.5312 47.5C37.6437 47.5 47.5 37.6437 47.5 25.5312C47.5 13.4187 37.6437 3.5625 25.5312 3.5625Z" fill="#A7EB2B"/>
<path d="M23 31.75C22.9 31.75 22.81 31.73 22.71 31.69C22.43 31.58 22.25 31.3 22.25 31V25C22.25 24.59 22.59 24.25 23 24.25C23.41 24.25 23.75 24.59 23.75 25V29.19L24.47 28.47C24.76 28.18 25.24 28.18 25.53 28.47C25.82 28.76 25.82 29.24 25.53 29.53L23.53 31.53C23.39 31.67 23.19 31.75 23 31.75Z" fill="#0E508F"/>
<path d="M22.9999 31.7499C22.8099 31.7499 22.6199 31.6799 22.4699 31.5299L20.4699 29.5299C20.1799 29.2399 20.1799 28.7599 20.4699 28.4699C20.7599 28.1799 21.2399 28.1799 21.5299 28.4699L23.5299 30.4699C23.8199 30.7599 23.8199 31.2399 23.5299 31.5299C23.3799 31.6799 23.1899 31.7499 22.9999 31.7499Z" fill="#0E508F"/>
<path d="M29 36.75H23C17.57 36.75 15.25 34.43 15.25 29V23C15.25 17.57 17.57 15.25 23 15.25H28C28.41 15.25 28.75 15.59 28.75 16C28.75 16.41 28.41 16.75 28 16.75H23C18.39 16.75 16.75 18.39 16.75 23V29C16.75 33.61 18.39 35.25 23 35.25H29C33.61 35.25 35.25 33.61 35.25 29V24C35.25 23.59 35.59 23.25 36 23.25C36.41 23.25 36.75 23.59 36.75 24V29C36.75 34.43 34.43 36.75 29 36.75Z" fill="#0E508F"/>
<path d="M36 24.75H32C28.58 24.75 27.25 23.42 27.25 20V16C27.25 15.7 27.43 15.42 27.71 15.31C27.99 15.19 28.31 15.26 28.53 15.47L36.53 23.47C36.74 23.68 36.81 24.01 36.69 24.29C36.57 24.57 36.3 24.75 36 24.75ZM28.75 17.81V20C28.75 22.58 29.42 23.25 32 23.25H34.19L28.75 17.81Z" fill="#0E508F"/>
</svg>
