<svg width="58" height="58" viewBox="0 0 58 58" fill="none" xmlns="http://www.w3.org/2000/svg">
<rect width="58" height="58" rx="4" fill="#0E4D88" fill-opacity="0.09"/>
<path d="M29.0536 32.3293C27.1864 32.3293 25.6708 30.8137 25.6708 28.9465C25.6708 27.0793 27.1864 25.5637 29.0536 25.5637C30.9208 25.5637 32.4364 27.0793 32.4364 28.9465C32.4364 30.8137 30.9208 32.3293 29.0536 32.3293ZM29.0536 26.7356C27.8348 26.7356 26.8427 27.7278 26.8427 28.9465C26.8427 30.1653 27.8348 31.1575 29.0536 31.1575C30.2723 31.1575 31.2645 30.1653 31.2645 28.9465C31.2645 27.7278 30.2723 26.7356 29.0536 26.7356Z" fill="#0E508F"/>
<path d="M29.0536 35.9933C26.1161 35.9933 23.3427 34.2745 21.4364 31.2902C20.6083 30.0011 20.6083 27.8995 21.4364 26.6027C23.3505 23.6183 26.1239 21.8995 29.0536 21.8995C31.9833 21.8995 34.7567 23.6183 36.663 26.6027C37.4911 27.8917 37.4911 29.9933 36.663 31.2902C34.7567 34.2745 31.9833 35.9933 29.0536 35.9933ZM29.0536 23.0714C26.5302 23.0714 24.1161 24.587 22.4286 27.2355C21.8427 28.1495 21.8427 29.7433 22.4286 30.6573C24.1161 33.3058 26.5302 34.8214 29.0536 34.8214C31.577 34.8214 33.9911 33.3058 35.6786 30.6573C36.2645 29.7433 36.2645 28.1495 35.6786 27.2355C33.9911 24.587 31.577 23.0714 29.0536 23.0714Z" fill="#0E508F"/>
<path d="M16.6989 26.1666C16.1924 26.1666 15.7723 25.7466 15.7723 25.24V22.1514C15.7723 18.5685 18.688 15.6652 22.2585 15.6652H25.3472C25.8537 15.6652 26.2738 16.0852 26.2738 16.5918C26.2738 17.0983 25.8537 17.5184 25.3472 17.5184H22.2585C19.7011 17.5184 17.6255 19.5939 17.6255 22.1514V25.24C17.6255 25.7466 17.2055 26.1666 16.6989 26.1666Z" fill="#0E508F"/>
<path d="M41.4082 26.1666C40.9017 26.1666 40.4816 25.7466 40.4816 25.24V22.1514C40.4816 19.5939 38.406 17.5184 35.8486 17.5184H32.76C32.2534 17.5184 31.8334 17.0983 31.8334 16.5918C31.8334 16.0852 32.2534 15.6652 32.76 15.6652H35.8486C39.4191 15.6652 42.3348 18.5685 42.3348 22.1514V25.24C42.3348 25.7466 41.9148 26.1666 41.4082 26.1666Z" fill="#0E508F"/>
<path d="M35.8486 42.2277H33.9954C33.4889 42.2277 33.0688 41.8076 33.0688 41.3011C33.0688 40.7945 33.4889 40.3745 33.9954 40.3745H35.8486C38.4061 40.3745 40.4816 38.2989 40.4816 35.7415V33.8883C40.4816 33.3817 40.9017 32.9617 41.4082 32.9617C41.9148 32.9617 42.3348 33.3817 42.3348 33.8883V35.7415C42.3348 39.3243 39.4191 42.2277 35.8486 42.2277Z" fill="#0E508F"/>
<path d="M25.3472 42.2276H22.2585C18.688 42.2276 15.7723 39.3243 15.7723 35.7415V32.6528C15.7723 32.1463 16.1924 31.7262 16.6989 31.7262C17.2055 31.7262 17.6255 32.1463 17.6255 32.6528V35.7415C17.6255 38.2989 19.7011 40.3745 22.2585 40.3745H25.3472C25.8537 40.3745 26.2738 40.7945 26.2738 41.3011C26.2738 41.8076 25.8537 42.2276 25.3472 42.2276Z" fill="#0E508F"/>
</svg>
