<svg width="58" height="58" viewBox="0 0 58 58" fill="none" xmlns="http://www.w3.org/2000/svg">
<rect width="58" height="58" rx="4" fill="#0E4D88" fill-opacity="0.09"/>
<path d="M30.8125 41.5313C29.5833 41.5313 27.8437 40.6667 26.4687 36.5313L25.7187 34.2813L23.4687 33.5313C19.3437 32.1563 18.4791 30.4167 18.4791 29.1875C18.4791 27.9688 19.3437 26.2188 23.4687 24.8334L32.3125 21.8855C34.5208 21.1459 36.3645 21.3646 37.5 22.4896C38.6354 23.6146 38.8541 25.4688 38.1145 27.6771L35.1666 36.5209C33.7812 40.6667 32.0416 41.5313 30.8125 41.5313ZM23.9583 26.323C21.0625 27.2917 20.0312 28.4375 20.0312 29.1875C20.0312 29.9375 21.0625 31.0834 23.9583 32.0417L26.5833 32.9167C26.8125 32.9896 27 33.1771 27.0729 33.4063L27.9479 36.0313C28.9062 38.9271 30.0625 39.9584 30.8125 39.9584C31.5625 39.9584 32.7083 38.9271 33.677 36.0313L36.625 27.1875C37.1562 25.5834 37.0625 24.2709 36.3854 23.5938C35.7083 22.9167 34.3958 22.8334 32.802 23.3646L23.9583 26.323Z" fill="#0E508F"/>
<path d="M26.5312 33.9999C26.3333 33.9999 26.1354 33.927 25.9791 33.7708C25.677 33.4687 25.677 32.9687 25.9791 32.6666L29.7083 28.927C30.0104 28.6249 30.5104 28.6249 30.8125 28.927C31.1145 29.2291 31.1145 29.7291 30.8125 30.0312L27.0833 33.7708C26.9375 33.927 26.7291 33.9999 26.5312 33.9999Z" fill="#0E508F"/>
</svg>
