<svg width="58" height="58" viewBox="0 0 58 58" fill="none" xmlns="http://www.w3.org/2000/svg">
<rect width="58" height="58" rx="4" fill="#0E4D88" fill-opacity="0.09"/>
<path d="M29 29.8125C25.5659 29.8125 22.7709 27.0175 22.7709 23.5833C22.7709 20.1491 25.5659 17.3541 29 17.3541C32.4342 17.3541 35.2292 20.1491 35.2292 23.5833C35.2292 27.0175 32.4342 29.8125 29 29.8125ZM29 18.9791C26.465 18.9791 24.3959 21.0483 24.3959 23.5833C24.3959 26.1183 26.465 28.1875 29 28.1875C31.535 28.1875 33.6042 26.1183 33.6042 23.5833C33.6042 21.0483 31.535 18.9791 29 18.9791Z" fill="#0E508F"/>
<path d="M38.306 40.6458C37.8618 40.6458 37.4935 40.2775 37.4935 39.8333C37.4935 36.0958 33.6802 33.0625 29.0002 33.0625C24.3202 33.0625 20.5068 36.0958 20.5068 39.8333C20.5068 40.2775 20.1385 40.6458 19.6943 40.6458C19.2502 40.6458 18.8818 40.2775 18.8818 39.8333C18.8818 35.2075 23.421 31.4375 29.0002 31.4375C34.5793 31.4375 39.1185 35.2075 39.1185 39.8333C39.1185 40.2775 38.7502 40.6458 38.306 40.6458Z" fill="#0E508F"/>
</svg>
