<svg width="83" height="60" viewBox="0 0 83 60" fill="none" xmlns="http://www.w3.org/2000/svg">
<path d="M7.3996 28.5825V39.6204C7.3996 50.6584 11.8246 55.0834 22.8625 55.0834H36.1129C47.1508 55.0834 51.5758 50.6584 51.5758 39.6204V28.5825" stroke="#0E508F" stroke-width="3" stroke-linecap="round" stroke-linejoin="round"/>
<path d="M29.5 30.5001C33.9988 30.5001 37.3175 26.8372 36.875 22.3384L35.2525 5.91675H23.7721L22.125 22.3384C21.6825 26.8372 25.0013 30.5001 29.5 30.5001Z" stroke="#0E508F" stroke-width="3" stroke-linecap="round" stroke-linejoin="round"/>
<path d="M45.0121 30.5001C49.9779 30.5001 53.6163 26.4684 53.1246 21.5272L52.4363 14.7667C51.5513 8.37508 49.0929 5.91675 42.6521 5.91675H35.1542L36.875 23.1497C37.2929 27.2059 40.9558 30.5001 45.0121 30.5001Z" stroke="#0E508F" stroke-width="3" stroke-linecap="round" stroke-linejoin="round"/>
<path d="M13.865 30.5001C17.9212 30.5001 21.5842 27.2059 21.9775 23.1497L22.5183 17.7167L23.6983 5.91675H16.2004C9.75957 5.91675 7.30124 8.37508 6.41624 14.7667L5.75249 21.5272C5.26082 26.4684 8.89915 30.5001 13.865 30.5001Z" stroke="#0E508F" stroke-width="3" stroke-linecap="round" stroke-linejoin="round"/>
<path d="M29.5 42.7917C25.3946 42.7917 23.3542 44.8322 23.3542 48.9376V55.0834H35.6458V48.9376C35.6458 44.8322 33.6054 42.7917 29.5 42.7917Z" stroke="#0E508F" stroke-width="3" stroke-linecap="round" stroke-linejoin="round"/>
<ellipse cx="54" cy="7.5" rx="10" ry="7.5" fill="white"/>
<path d="M42 20.5V0.5H82.5V20.5H42Z" fill="white"/>
<path d="M49.8213 11.1924H52.3779L51.1201 7.22754L49.8213 11.1924ZM49.9512 4.92383H52.3301L55.8984 15H53.6152L52.9658 12.9287H49.2539L48.5566 15H46.3555L49.9512 4.92383ZM59.6475 6.67383V13.25H61.5889C62.5824 13.25 63.2751 12.7601 63.6671 11.7803C63.8813 11.2425 63.9884 10.6022 63.9884 9.85938C63.9884 8.83398 63.8266 8.04785 63.503 7.50098C63.184 6.94954 62.546 6.67383 61.5889 6.67383H59.6475ZM61.9444 4.92383C62.5688 4.93294 63.0883 5.00586 63.503 5.14258C64.2094 5.375 64.7813 5.80111 65.2188 6.4209C65.5697 6.9222 65.809 7.46452 65.9366 8.04785C66.0642 8.63118 66.128 9.18717 66.128 9.71582C66.128 11.0557 65.8591 12.1904 65.3214 13.1201C64.5922 14.3734 63.4665 15 61.9444 15H57.6036V4.92383H61.9444ZM69.6652 11.8896C69.729 12.3499 69.8543 12.694 70.0412 12.9219C70.383 13.3366 70.9686 13.5439 71.798 13.5439C72.2948 13.5439 72.6981 13.4893 73.008 13.3799C73.5959 13.1702 73.8898 12.7806 73.8898 12.2109C73.8898 11.8783 73.744 11.6208 73.4523 11.4385C73.1606 11.2607 72.7026 11.1035 72.0783 10.9668L71.0119 10.7275C69.9637 10.4906 69.2391 10.2331 68.838 9.95508C68.159 9.49023 67.8195 8.76335 67.8195 7.77441C67.8195 6.87207 68.1476 6.1224 68.8039 5.52539C69.4601 4.92839 70.424 4.62988 71.6955 4.62988C72.7573 4.62988 73.6619 4.91243 74.4093 5.47754C75.1613 6.03809 75.5555 6.85384 75.592 7.9248H73.5685C73.5321 7.31868 73.2677 6.88802 72.7755 6.63281C72.4474 6.46419 72.0395 6.37988 71.5519 6.37988C71.0096 6.37988 70.5767 6.48926 70.2531 6.70801C69.9295 6.92676 69.7677 7.2321 69.7677 7.62402C69.7677 7.98405 69.9272 8.25293 70.2463 8.43066C70.4513 8.54915 70.8888 8.68815 71.5588 8.84766L73.2951 9.26465C74.0561 9.44694 74.6304 9.69076 75.0177 9.99609C75.6193 10.4701 75.9201 11.1559 75.9201 12.0537C75.9201 12.9743 75.5669 13.7399 74.8605 14.3506C74.1587 14.9567 73.1652 15.2598 71.88 15.2598C70.5675 15.2598 69.5353 14.9613 68.7834 14.3643C68.0314 13.7627 67.6554 12.9378 67.6554 11.8896H69.6652Z" fill="#A7EB2B"/>
</svg>
