<svg width="62" height="64" viewBox="0 0 62 64" fill="none" xmlns="http://www.w3.org/2000/svg">
<path d="M56.8333 32.7159V35.0151C56.8333 44.2117 54.5341 46.4851 45.3633 46.4851H16.6366C7.46579 46.4851 5.16663 44.1859 5.16663 35.0151V18.6367C5.16663 9.46591 7.46579 7.16675 16.6366 7.16675H20.6666" stroke="#0E508F" stroke-width="3" stroke-linecap="round" stroke-linejoin="round"/>
<path d="M31 46.4851V58.8334" stroke="#0E508F" stroke-width="3" stroke-linecap="round" stroke-linejoin="round"/>
<path d="M5.16663 35.5833H56.8333" stroke="#0E508F" stroke-width="3" stroke-linecap="round" stroke-linejoin="round"/>
<path d="M19.375 58.8333H42.625" stroke="#0E508F" stroke-width="3" stroke-linecap="round" stroke-linejoin="round"/>
<path d="M43.5 16.2277C45.5821 16.2277 47.27 14.5399 47.27 12.4577C47.27 10.3756 45.5821 8.68774 43.5 8.68774C41.4179 8.68774 39.73 10.3756 39.73 12.4577C39.73 14.5399 41.4179 16.2277 43.5 16.2277Z" stroke="#A7EB2B" stroke-width="2"/>
<path d="M33.3742 10.2588C35.7546 -0.205333 51.2575 -0.193249 53.6259 10.2709C55.0155 16.4093 51.1971 21.6051 47.85 24.8193C45.4213 27.1634 41.5788 27.1634 39.138 24.8193C35.803 21.6051 31.9846 16.3972 33.3742 10.2588Z" stroke="#A7EB2B" stroke-width="2"/>
</svg>
