<svg width="62" height="62" viewBox="0 0 62 62" fill="none" xmlns="http://www.w3.org/2000/svg">
<path d="M5.16675 56.8335H56.8334" stroke="#0E508F" stroke-width="3" stroke-miterlimit="10" stroke-linecap="round" stroke-linejoin="round"/>
<path d="M38.7759 56.8071L7.77586 56.8588L7.75 18.2638C7.75 16.533 8.62837 14.9312 10.0492 13.9754L20.3825 7.07793C22.1134 5.91543 24.3866 5.91543 26.1175 7.07793L36.4508 13.9754C37.8975 14.9312 38.75 16.533 38.75 18.2638L38.7759 56.8071Z" stroke="#0E508F" stroke-width="3" stroke-miterlimit="10" stroke-linecap="round" stroke-linejoin="round"/>
<path d="M51.615 56.8592V46.5" stroke="#0E508F" stroke-width="3" stroke-miterlimit="10" stroke-linecap="round" stroke-linejoin="round"/>
<path d="M51.6667 31C48.825 31 46.5 33.325 46.5 36.1667V41.3333C46.5 44.175 48.825 46.5 51.6667 46.5C54.5083 46.5 56.8333 44.175 56.8333 41.3333V36.1667C56.8333 33.325 54.5083 31 51.6667 31Z" stroke="#A7EB2B" stroke-width="3" stroke-miterlimit="10" stroke-linecap="round" stroke-linejoin="round"/>
<path d="M7.75 36.1665H38.75" stroke="#0E508F" stroke-width="3" stroke-miterlimit="10" stroke-linecap="round" stroke-linejoin="round"/>
<path d="M23.25 56.8335V47.146" stroke="#0E508F" stroke-width="3" stroke-miterlimit="10" stroke-linecap="round" stroke-linejoin="round"/>
<path d="M23.25 27.125C25.3901 27.125 27.125 25.3901 27.125 23.25C27.125 21.1099 25.3901 19.375 23.25 19.375C21.1099 19.375 19.375 21.1099 19.375 23.25C19.375 25.3901 21.1099 27.125 23.25 27.125Z" stroke="#0E508F" stroke-width="3" stroke-miterlimit="10" stroke-linecap="round" stroke-linejoin="round"/>
</svg>
