<svg width="72" height="58" viewBox="0 0 72 58" fill="none" xmlns="http://www.w3.org/2000/svg">
<path d="M20.3001 15.7085H37.7001C45.9168 15.7085 46.7384 19.551 47.2943 24.2393L49.4692 42.3643C50.1701 48.3093 48.3334 53.1668 39.8751 53.1668H18.1492C9.66673 53.1668 7.83006 48.3093 8.55506 42.3643L10.7301 24.2393C11.2617 19.551 12.0834 15.7085 20.3001 15.7085Z" stroke="#0E508F" stroke-width="3" stroke-linecap="round" stroke-linejoin="round"/>
<path d="M19.3334 19.3335V10.8752C19.3334 7.25016 21.75 4.8335 25.375 4.8335H32.625C36.25 4.8335 38.6667 7.25016 38.6667 10.8752V19.3335" stroke="#0E508F" stroke-width="3" stroke-linecap="round" stroke-linejoin="round"/>
<path d="M49.3242 41.1558H19.3334" stroke="#0E508F" stroke-width="3" stroke-linecap="round" stroke-linejoin="round"/>
<path d="M31 22V2H71.5V22H31Z" fill="white"/>
<path d="M38.8213 12.6924H41.3779L40.1201 8.72754L38.8213 12.6924ZM38.9512 6.42383H41.3301L44.8984 16.5H42.6152L41.9658 14.4287H38.2539L37.5566 16.5H35.3555L38.9512 6.42383ZM48.6475 8.17383V14.75H50.5889C51.5824 14.75 52.2751 14.2601 52.6671 13.2803C52.8813 12.7425 52.9884 12.1022 52.9884 11.3594C52.9884 10.334 52.8266 9.54785 52.503 9.00098C52.184 8.44954 51.546 8.17383 50.5889 8.17383H48.6475ZM50.9444 6.42383C51.5688 6.43294 52.0883 6.50586 52.503 6.64258C53.2094 6.875 53.7813 7.30111 54.2188 7.9209C54.5697 8.4222 54.809 8.96452 54.9366 9.54785C55.0642 10.1312 55.128 10.6872 55.128 11.2158C55.128 12.5557 54.8591 13.6904 54.3214 14.6201C53.5922 15.8734 52.4665 16.5 50.9444 16.5H46.6036V6.42383H50.9444ZM58.6652 13.3896C58.729 13.8499 58.8543 14.194 59.0412 14.4219C59.383 14.8366 59.9686 15.0439 60.798 15.0439C61.2948 15.0439 61.6981 14.9893 62.008 14.8799C62.5959 14.6702 62.8898 14.2806 62.8898 13.7109C62.8898 13.3783 62.744 13.1208 62.4523 12.9385C62.1606 12.7607 61.7026 12.6035 61.0783 12.4668L60.0119 12.2275C58.9637 11.9906 58.2391 11.7331 57.838 11.4551C57.159 10.9902 56.8195 10.2633 56.8195 9.27441C56.8195 8.37207 57.1476 7.6224 57.8039 7.02539C58.4601 6.42839 59.424 6.12988 60.6955 6.12988C61.7573 6.12988 62.6619 6.41243 63.4093 6.97754C64.1613 7.53809 64.5555 8.35384 64.592 9.4248H62.5685C62.5321 8.81868 62.2677 8.38802 61.7755 8.13281C61.4474 7.96419 61.0395 7.87988 60.5519 7.87988C60.0096 7.87988 59.5767 7.98926 59.2531 8.20801C58.9295 8.42676 58.7677 8.7321 58.7677 9.12402C58.7677 9.48405 58.9272 9.75293 59.2463 9.93066C59.4513 10.0492 59.8888 10.1882 60.5588 10.3477L62.2951 10.7646C63.0561 10.9469 63.6304 11.1908 64.0177 11.4961C64.6193 11.9701 64.9201 12.6559 64.9201 13.5537C64.9201 14.4743 64.5669 15.2399 63.8605 15.8506C63.1587 16.4567 62.1652 16.7598 60.88 16.7598C59.5675 16.7598 58.5353 16.4613 57.7834 15.8643C57.0314 15.2627 56.6554 14.4378 56.6554 13.3896H58.6652Z" fill="#A7EB2B"/>
</svg>
