<svg width="59" height="59" viewBox="0 0 59 59" fill="none" xmlns="http://www.w3.org/2000/svg">
<path d="M16.4954 13.5901L12.1934 23.8659C7.91585 25.7097 4.91669 29.9626 4.91669 34.9038V27.7009C4.91669 20.7193 9.88252 14.893 16.4954 13.5901Z" stroke="#0E508F" stroke-width="3" stroke-linecap="round" stroke-linejoin="round"/>
<path d="M52.8999 27.6996V34.9025C52.8999 29.4942 49.3107 24.8971 44.394 23.4221C45.6724 20.2262 46.0411 17.7187 45.4265 15.6292C45.3774 15.4079 45.3036 15.1867 45.2053 14.99C49.7778 17.35 52.8999 22.1929 52.8999 27.6996Z" stroke="#0E508F" stroke-width="3" stroke-linecap="round" stroke-linejoin="round"/>
<path d="M31.1225 6.1905L31.0488 6.36258L23.9196 22.9072H16.9134C15.2417 22.9072 13.6438 23.2513 12.1934 23.8659L16.4954 13.5901L16.5938 13.3442L16.7659 12.9509C16.815 12.8034 16.8642 12.6559 16.9379 12.533C20.1584 5.08425 23.7967 3.388 31.1225 6.1905Z" stroke="#A7EB2B" stroke-width="3" stroke-linecap="round" stroke-linejoin="round"/>
<path d="M44.3729 23.3988C43.2666 23.0546 42.0866 22.9071 40.9066 22.9071H23.9196L31.0487 6.36251L31.1225 6.19043C31.4912 6.31335 31.8354 6.48543 32.2041 6.63293L37.6371 8.91918C40.6608 10.1729 42.775 11.4758 44.0533 13.0492C44.2991 13.3442 44.4958 13.6146 44.6679 13.9342C44.8891 14.2783 45.0612 14.6225 45.1596 14.9913C45.2579 15.2125 45.3316 15.4338 45.3808 15.6304C46.0446 17.6954 45.6512 20.2275 44.3729 23.3988Z" stroke="#A7EB2B" stroke-width="3" stroke-linecap="round" stroke-linejoin="round"/>
<path d="M52.9076 34.9044V39.6981C52.9076 40.1898 52.883 40.6815 52.8584 41.1731C52.3913 49.7527 47.5976 54.0794 38.5017 54.0794H19.3267C18.7367 54.0794 18.1467 54.0302 17.5813 53.9565C9.76383 53.4402 5.58466 49.261 5.06841 41.4435C4.99466 40.8781 4.9455 40.2881 4.9455 39.6981V34.9044C4.9455 29.9631 7.94466 25.7102 12.2222 23.8665C13.6972 23.2519 15.2705 22.9077 16.9422 22.9077H40.9355C42.1401 22.9077 43.3201 23.0798 44.4017 23.3994C49.2938 24.899 52.9076 29.4715 52.9076 34.9044Z" stroke="#0E508F" stroke-width="3" stroke-linecap="round" stroke-linejoin="round"/>
</svg>
