<svg width="52" height="52" viewBox="0 0 52 52" fill="none" xmlns="http://www.w3.org/2000/svg">
<path d="M25.5312 51.0625C11.4712 51.0625 0 39.615 0 25.5312C0 11.4475 11.4712 0 25.5312 0C39.5913 0 51.0625 11.4475 51.0625 25.5312C51.0625 39.615 39.615 51.0625 25.5312 51.0625ZM25.5312 3.5625C13.4187 3.5625 3.5625 13.4187 3.5625 25.5312C3.5625 37.6437 13.4187 47.5 25.5312 47.5C37.6437 47.5 47.5 37.6437 47.5 25.5312C47.5 13.4187 37.6437 3.5625 25.5312 3.5625Z" fill="#0E508F"/>
<path d="M25.5001 36.8022C24.743 36.8022 24.0242 36.4188 23.5259 35.7384L22.558 34.4447C22.3567 34.1763 22.0884 34.023 21.8009 34.0038C21.5134 33.9847 21.2259 34.1188 20.9959 34.3584L20.4497 33.8792L20.9767 34.368C19.5872 35.8438 18.533 35.7288 18.0251 35.5276C17.5076 35.3263 16.6355 34.6651 16.6355 32.5376V21.7467C16.6355 17.4917 17.8622 16.198 21.8776 16.198H29.113C33.1284 16.198 34.3551 17.4917 34.3551 21.7467V32.5376C34.3551 34.6555 33.483 35.3167 32.9655 35.5276C32.4576 35.7288 31.4034 35.8438 30.0138 34.368C29.7838 34.1188 29.4867 33.9942 29.1992 34.0134C28.9117 34.0326 28.6338 34.1859 28.4326 34.4542L27.4647 35.748C26.9759 36.4188 26.2572 36.8022 25.5001 36.8022ZM21.7434 32.5663C21.7817 32.5663 21.8297 32.5663 21.868 32.5663C22.5772 32.6047 23.248 32.9784 23.6984 33.5822L24.6759 34.8759C25.1455 35.4988 25.8642 35.4988 26.3338 34.8759L27.3017 33.5822C27.7522 32.9784 28.423 32.6047 29.1417 32.5663C29.8605 32.528 30.5601 32.8251 31.0776 33.3809C31.8059 34.1572 32.2755 34.253 32.448 34.1859C32.678 34.0901 32.9272 33.5342 32.9272 32.5376V21.7467C32.9272 18.2872 32.3234 17.6355 29.1226 17.6355H21.8776C18.6767 17.6355 18.073 18.2872 18.073 21.7467V32.5376C18.073 33.5438 18.3222 34.0997 18.5522 34.1859C18.7247 34.253 19.1942 34.1572 19.9226 33.3809C20.4209 32.8538 21.0726 32.5663 21.7434 32.5663Z" fill="#A7EB2B"/>
<path d="M28.3751 28.4167C27.8384 28.4167 27.4167 27.9854 27.4167 27.4583C27.4167 26.9313 27.848 26.5 28.3751 26.5C28.9022 26.5 29.3334 26.9313 29.3334 27.4583C29.3334 27.9854 28.9117 28.4167 28.3751 28.4167Z" fill="#A7EB2B"/>
<path d="M22.6251 23.6249C22.0884 23.6249 21.6667 23.1937 21.6667 22.6666C21.6667 22.1395 22.098 21.7083 22.6251 21.7083C23.1522 21.7083 23.5834 22.1395 23.5834 22.6666C23.5834 23.1937 23.1617 23.6249 22.6251 23.6249Z" fill="#A7EB2B"/>
<path d="M22.2703 28.9438C22.0882 28.9438 21.9061 28.8767 21.7624 28.7329C21.4845 28.455 21.4845 27.995 21.7624 27.7171L28.212 21.2675C28.4899 20.9896 28.9499 20.9896 29.2278 21.2675C29.5057 21.5454 29.5057 22.0054 29.2278 22.2834L22.7782 28.7329C22.6441 28.8767 22.462 28.9438 22.2703 28.9438Z" fill="#A7EB2B"/>
</svg>
