<svg width="12" height="20" viewBox="0 0 12 20" fill="none" xmlns="http://www.w3.org/2000/svg">
<path d="M9.12482 19.1L0.69982 10.7C0.59982 10.6 0.52882 10.4917 0.48682 10.375C0.44482 10.2584 0.424154 10.1334 0.42482 10C0.42482 9.86669 0.44582 9.74169 0.48782 9.62502C0.52982 9.50836 0.600487 9.40002 0.69982 9.30002L9.12482 0.875024C9.35815 0.641691 9.64982 0.525024 9.99982 0.525024C10.3498 0.525024 10.6498 0.650024 10.8998 0.900024C11.1498 1.15002 11.2748 1.44169 11.2748 1.77502C11.2748 2.10836 11.1498 2.40002 10.8998 2.65002L3.54982 10L10.8998 17.35C11.1332 17.5834 11.2498 17.871 11.2498 18.213C11.2498 18.555 11.1248 18.8507 10.8748 19.1C10.6248 19.35 10.3332 19.475 9.99982 19.475C9.66649 19.475 9.37482 19.35 9.12482 19.1Z" fill="white"/>
</svg>
