<svg width="24" height="23" viewBox="0 0 24 23" fill="none" xmlns="http://www.w3.org/2000/svg">
<path d="M19.6083 19.5998H16.2007V14.2626C16.2007 12.9899 16.1751 11.3518 14.4233 11.3518C12.6473 11.3518 12.3762 12.7369 12.3762 14.1693V19.5998H8.96728V8.625H12.2407V10.12H12.2854C12.7432 9.25878 13.8556 8.34772 15.5179 8.34772C18.9703 8.34772 19.6096 10.6196 19.6096 13.5751V19.5998H19.6083ZM5.1185 7.12361C4.85836 7.12395 4.60072 7.07297 4.36033 6.97361C4.11995 6.87424 3.90155 6.72844 3.71767 6.54457C3.53378 6.36069 3.38802 6.14235 3.28874 5.90207C3.18946 5.66179 3.13862 5.40429 3.13912 5.14433C3.13938 4.75312 3.25571 4.37077 3.47342 4.04563C3.69113 3.72049 4.00043 3.46717 4.36221 3.31769C4.72399 3.16821 5.122 3.1293 5.50591 3.20587C5.88982 3.28244 6.24239 3.47105 6.51903 3.74786C6.79567 4.02467 6.98396 4.37723 7.06009 4.76098C7.13622 5.14472 7.09676 5.5424 6.94671 5.90374C6.79666 6.26508 6.54276 6.57383 6.21712 6.79097C5.89147 7.0081 5.50998 7.12386 5.1185 7.12361ZM6.8268 19.5998H3.40892V8.625H6.82808V19.5998H6.8268ZM21.3154 0H1.69935C0.758249 0 0 0.741111 0 1.65728V21.3427C0 22.2589 0.759528 23 1.69807 23H21.3102C22.2488 23 23.016 22.2589 23.016 21.3427V1.65728C23.016 0.741111 22.2488 0 21.3102 0H21.3154Z" fill="#14416E"/>
</svg>
