<svg width="52" height="52" viewBox="0 0 52 52" fill="none" xmlns="http://www.w3.org/2000/svg">
<path d="M25.5 37.5312C18.8646 37.5312 13.4688 32.1354 13.4688 25.5C13.4688 18.8646 18.8646 13.4688 25.5 13.4688C32.1354 13.4688 37.5312 18.8646 37.5312 25.5C37.5312 32.1354 32.1354 37.5312 25.5 37.5312ZM25.5 15.6562C20.075 15.6562 15.6562 20.075 15.6562 25.5C15.6562 30.925 20.075 35.3438 25.5 35.3438C30.925 35.3438 35.3438 30.925 35.3438 25.5C35.3438 20.075 30.925 15.6562 25.5 15.6562Z" fill="#A7EB2B"/>
<path d="M25.5 30.9688C22.4813 30.9688 20.0312 28.5188 20.0312 25.5C20.0312 22.4813 22.4813 20.0312 25.5 20.0312C28.5188 20.0312 30.9688 22.4813 30.9688 25.5C30.9688 28.5188 28.5188 30.9688 25.5 30.9688ZM25.5 22.2188C23.6917 22.2188 22.2188 23.6917 22.2188 25.5C22.2188 27.3083 23.6917 28.7812 25.5 28.7812C27.3083 28.7812 28.7812 27.3083 28.7812 25.5C28.7812 23.6917 27.3083 22.2188 25.5 22.2188Z" fill="#A7EB2B"/>
<path d="M25.5 14.9271C24.9021 14.9271 24.4062 14.4313 24.4062 13.8334V10.9167C24.4062 10.3188 24.9021 9.82294 25.5 9.82294C26.0979 9.82294 26.5938 10.3188 26.5938 10.9167V13.8334C26.5938 14.4313 26.0979 14.9271 25.5 14.9271Z" fill="#A7EB2B"/>
<path d="M13.8332 26.5938H10.9165C10.3186 26.5938 9.82275 26.0979 9.82275 25.5C9.82275 24.9021 10.3186 24.4062 10.9165 24.4062H13.8332C14.4311 24.4062 14.9269 24.9021 14.9269 25.5C14.9269 26.0979 14.4311 26.5938 13.8332 26.5938Z" fill="#A7EB2B"/>
<path d="M25.5 41.1771C24.9021 41.1771 24.4062 40.6813 24.4062 40.0834V37.1667C24.4062 36.5688 24.9021 36.0729 25.5 36.0729C26.0979 36.0729 26.5938 36.5688 26.5938 37.1667V40.0834C26.5938 40.6813 26.0979 41.1771 25.5 41.1771Z" fill="#A7EB2B"/>
<path d="M40.0832 26.5938H37.1665C36.5686 26.5938 36.0728 26.0979 36.0728 25.5C36.0728 24.9021 36.5686 24.4062 37.1665 24.4062H40.0832C40.6811 24.4062 41.1769 24.9021 41.1769 25.5C41.1769 26.0979 40.6811 26.5938 40.0832 26.5938Z" fill="#A7EB2B"/>
<path d="M25.5 36.8438C19.2437 36.8438 14.1562 31.7563 14.1562 25.5C14.1562 19.2437 19.2437 14.1562 25.5 14.1562C31.7563 14.1562 36.8438 19.2437 36.8438 25.5C36.8438 31.7563 31.7563 36.8438 25.5 36.8438ZM25.5 16.2188C20.385 16.2188 16.2188 20.385 16.2188 25.5C16.2188 30.615 20.385 34.7812 25.5 34.7812C30.615 34.7812 34.7812 30.615 34.7812 25.5C34.7812 20.385 30.615 16.2188 25.5 16.2188Z" fill="#A7EB2B"/>
<path d="M25.5 30.6562C22.6538 30.6562 20.3438 28.3462 20.3438 25.5C20.3438 22.6538 22.6538 20.3438 25.5 20.3438C28.3462 20.3438 30.6562 22.6538 30.6562 25.5C30.6562 28.3462 28.3462 30.6562 25.5 30.6562ZM25.5 22.4062C23.795 22.4062 22.4062 23.795 22.4062 25.5C22.4062 27.205 23.795 28.5938 25.5 28.5938C27.205 28.5938 28.5938 27.205 28.5938 25.5C28.5938 23.795 27.205 22.4062 25.5 22.4062Z" fill="#A7EB2B"/>
<path d="M25.5 15.5312C24.9363 15.5312 24.4688 15.0637 24.4688 14.5V11.75C24.4688 11.1863 24.9363 10.7188 25.5 10.7188C26.0638 10.7188 26.5312 11.1863 26.5312 11.75V14.5C26.5312 15.0637 26.0638 15.5312 25.5 15.5312Z" fill="#A7EB2B"/>
<path d="M14.4998 26.5312H11.7498C11.186 26.5312 10.7185 26.0638 10.7185 25.5C10.7185 24.9363 11.186 24.4688 11.7498 24.4688H14.4998C15.0635 24.4688 15.531 24.9363 15.531 25.5C15.531 26.0638 15.0635 26.5312 14.4998 26.5312Z" fill="#A7EB2B"/>
<path d="M25.5 40.2812C24.9363 40.2812 24.4688 39.8137 24.4688 39.25V36.5C24.4688 35.9363 24.9363 35.4688 25.5 35.4688C26.0638 35.4688 26.5312 35.9363 26.5312 36.5V39.25C26.5312 39.8137 26.0638 40.2812 25.5 40.2812Z" fill="#A7EB2B"/>
<path d="M39.2498 26.5312H36.4998C35.936 26.5312 35.4685 26.0638 35.4685 25.5C35.4685 24.9363 35.936 24.4688 36.4998 24.4688H39.2498C39.8135 24.4688 40.281 24.9363 40.281 25.5C40.281 26.0638 39.8135 26.5312 39.2498 26.5312Z" fill="#A7EB2B"/>
<path d="M25.5312 51.0625C11.4712 51.0625 0 39.615 0 25.5312C0 11.4475 11.4712 0 25.5312 0C39.5913 0 51.0625 11.4475 51.0625 25.5312C51.0625 39.615 39.615 51.0625 25.5312 51.0625ZM25.5312 3.5625C13.4187 3.5625 3.5625 13.4187 3.5625 25.5312C3.5625 37.6437 13.4187 47.5 25.5312 47.5C37.6437 47.5 47.5 37.6437 47.5 25.5312C47.5 13.4187 37.6437 3.5625 25.5312 3.5625Z" fill="#0E508F"/>
</svg>
