<svg width="59" height="59" viewBox="0 0 59 59" fill="none" xmlns="http://www.w3.org/2000/svg">
<path d="M32.5312 52.0625C18.4712 52.0625 7 40.615 7 26.5312C7 12.4475 18.4712 1 32.5312 1C46.5913 1 58.0625 12.4475 58.0625 26.5312C58.0625 40.615 46.615 52.0625 32.5312 52.0625ZM32.5312 4.5625C20.4187 4.5625 10.5625 14.4187 10.5625 26.5312C10.5625 38.6437 20.4187 48.5 32.5312 48.5C44.6437 48.5 54.5 38.6437 54.5 26.5312C54.5 14.4187 44.6437 4.5625 32.5312 4.5625Z" fill="#A7EB2B"/>
<path d="M39.5 24.6458C39.0558 24.6458 38.6875 24.2775 38.6875 23.8333V21.6666C38.6875 18.2541 37.7233 15.9791 33 15.9791C28.2767 15.9791 27.3125 18.2541 27.3125 21.6666V23.8333C27.3125 24.2775 26.9442 24.6458 26.5 24.6458C26.0558 24.6458 25.6875 24.2775 25.6875 23.8333V21.6666C25.6875 18.525 26.4458 14.3541 33 14.3541C39.5542 14.3541 40.3125 18.525 40.3125 21.6666V23.8333C40.3125 24.2775 39.9442 24.6458 39.5 24.6458Z" fill="#0E508F"/>
<path d="M33.0001 33.8542C31.0609 33.8542 29.4792 32.2725 29.4792 30.3333C29.4792 28.3942 31.0609 26.8125 33.0001 26.8125C34.9392 26.8125 36.5209 28.3942 36.5209 30.3333C36.5209 32.2725 34.9392 33.8542 33.0001 33.8542ZM33.0001 28.4375C31.9601 28.4375 31.1042 29.2933 31.1042 30.3333C31.1042 31.3733 31.9601 32.2292 33.0001 32.2292C34.0401 32.2292 34.8959 31.3733 34.8959 30.3333C34.8959 29.2933 34.0401 28.4375 33.0001 28.4375Z" fill="#0E508F"/>
<path d="M38.4167 37.6459H27.5834C22.8059 37.6459 21.3542 36.1942 21.3542 31.4167V29.25C21.3542 24.4725 22.8059 23.0209 27.5834 23.0209H38.4167C43.1942 23.0209 44.6459 24.4725 44.6459 29.25V31.4167C44.6459 36.1942 43.1942 37.6459 38.4167 37.6459ZM27.5834 24.6459C23.7051 24.6459 22.9792 25.3825 22.9792 29.25V31.4167C22.9792 35.2842 23.7051 36.0209 27.5834 36.0209H38.4167C42.2951 36.0209 43.0209 35.2842 43.0209 31.4167V29.25C43.0209 25.3825 42.2951 24.6459 38.4167 24.6459H27.5834Z" fill="#0E508F"/>
</svg>
