<svg width="34" height="34" viewBox="0 0 34 34" fill="none" xmlns="http://www.w3.org/2000/svg">
<rect width="34" height="34" rx="5" fill="white" fill-opacity="0.2"/>
<path d="M13.1402 11.7696L17.0002 15.6296L20.8402 11.7896C20.925 11.6994 21.0272 11.6271 21.1406 11.5773C21.254 11.5275 21.3763 11.501 21.5002 11.4996C21.7654 11.4996 22.0197 11.605 22.2073 11.7925C22.3948 11.9801 22.5002 12.2344 22.5002 12.4996C22.5025 12.6222 22.4797 12.744 22.4333 12.8575C22.3869 12.971 22.3178 13.0738 22.2302 13.1596L18.3402 16.9996L22.2302 20.8896C22.395 21.0509 22.4916 21.2692 22.5002 21.4996C22.5002 21.7649 22.3948 22.0192 22.2073 22.2067C22.0197 22.3943 21.7654 22.4996 21.5002 22.4996C21.3727 22.5049 21.2456 22.4836 21.1268 22.4372C21.008 22.3907 20.9002 22.32 20.8102 22.2296L17.0002 18.3696L13.1502 22.2196C13.0657 22.3069 12.9647 22.3766 12.8532 22.4246C12.7416 22.4727 12.6216 22.4982 12.5002 22.4996C12.2349 22.4996 11.9806 22.3943 11.7931 22.2067C11.6055 22.0192 11.5002 21.7649 11.5002 21.4996C11.4978 21.377 11.5206 21.2552 11.567 21.1418C11.6134 21.0283 11.6826 20.9254 11.7702 20.8396L15.6602 16.9996L11.7702 13.1096C11.6053 12.9484 11.5087 12.73 11.5002 12.4996C11.5002 12.2344 11.6055 11.9801 11.7931 11.7925C11.9806 11.605 12.2349 11.4996 12.5002 11.4996C12.7402 11.5026 12.9702 11.5996 13.1402 11.7696Z" fill="#F8F8F8"/>
</svg>
