<svg width="52" height="52" viewBox="0 0 52 52" fill="none" xmlns="http://www.w3.org/2000/svg">
<path d="M25.5312 51.0625C11.4712 51.0625 0 39.615 0 25.5312C0 11.4475 11.4712 0 25.5312 0C39.5913 0 51.0625 11.4475 51.0625 25.5312C51.0625 39.615 39.615 51.0625 25.5312 51.0625ZM25.5312 3.5625C13.4187 3.5625 3.5625 13.4187 3.5625 25.5312C3.5625 37.6437 13.4187 47.5 25.5312 47.5C37.6437 47.5 47.5 37.6437 47.5 25.5312C47.5 13.4187 37.6437 3.5625 25.5312 3.5625Z" fill="#A7EB2B"/>
<path d="M33.1251 36.698H19.823C18.2396 36.698 16.7917 35.8959 15.9584 34.5417C15.1251 33.1876 15.0521 31.5417 15.7605 30.1146L17.5521 26.5209C18.1355 25.3542 19.073 24.6251 20.1251 24.5105C21.1771 24.3959 22.2501 24.9167 23.0626 25.9271L23.2917 26.2188C23.7501 26.7813 24.2813 27.0834 24.8021 27.0313C25.323 26.9896 25.8021 26.6146 26.1563 25.9792L28.1251 22.4271C28.9376 20.9584 30.0209 20.198 31.198 20.2501C32.3646 20.3126 33.3646 21.1876 34.0313 22.7292L37.2917 30.3438C37.8959 31.7501 37.7501 33.3542 36.9063 34.6355C36.073 35.9376 34.6563 36.698 33.1251 36.698ZM20.4167 26.073C20.3751 26.073 20.3334 26.073 20.2917 26.0834C19.7709 26.1355 19.2917 26.5521 18.948 27.2292L17.1563 30.823C16.6876 31.7501 16.7396 32.8438 17.2813 33.7292C17.823 34.6146 18.7813 35.1459 19.823 35.1459H33.1146C34.1355 35.1459 35.0417 34.6563 35.6042 33.8021C36.1667 32.948 36.2605 31.9271 35.8542 30.9896L32.5938 23.3751C32.198 22.4376 31.6459 21.8646 31.1146 21.8438C30.6251 21.8126 29.9896 22.3334 29.4896 23.2188L27.5209 26.7709C26.9167 27.8542 25.9688 28.5313 24.9376 28.6251C23.9063 28.7084 22.8542 28.2084 22.073 27.2292L21.8438 26.9376C21.4063 26.3646 20.9063 26.073 20.4167 26.073Z" fill="#0E508F"/>
<path d="M21.2605 22.1147C19.1147 22.1147 17.3542 20.3647 17.3542 18.2085C17.3542 16.0522 19.1042 14.3022 21.2605 14.3022C23.4167 14.3022 25.1667 16.0522 25.1667 18.2085C25.1667 20.3647 23.4167 22.1147 21.2605 22.1147ZM21.2605 15.8647C19.9688 15.8647 18.9167 16.9168 18.9167 18.2085C18.9167 19.5002 19.9688 20.5522 21.2605 20.5522C22.5522 20.5522 23.6042 19.5002 23.6042 18.2085C23.6042 16.9168 22.5522 15.8647 21.2605 15.8647Z" fill="#0E508F"/>
</svg>
