<svg width="52" height="52" viewBox="0 0 52 52" fill="none" xmlns="http://www.w3.org/2000/svg">
<path d="M25.5312 51.0625C11.4712 51.0625 0 39.615 0 25.5312C0 11.4475 11.4712 0 25.5312 0C39.5913 0 51.0625 11.4475 51.0625 25.5312C51.0625 39.615 39.615 51.0625 25.5312 51.0625ZM25.5312 3.5625C13.4187 3.5625 3.5625 13.4187 3.5625 25.5312C3.5625 37.6437 13.4187 47.5 25.5312 47.5C37.6437 47.5 47.5 37.6437 47.5 25.5312C47.5 13.4187 37.6437 3.5625 25.5312 3.5625Z" fill="#A7EB2B"/>
<path d="M25.7725 25.8702C25.1875 25.8702 24.5917 25.7618 24.1258 25.556L17.7342 22.7177C16.1092 21.9918 15.8708 21.0168 15.8708 20.486C15.8708 19.9552 16.1092 18.9802 17.7342 18.2543L24.1258 15.416C25.0683 14.9935 26.4875 14.9935 27.43 15.416L33.8325 18.2543C35.4467 18.9693 35.6958 19.9552 35.6958 20.486C35.6958 21.0168 35.4575 21.9918 33.8325 22.7177L27.43 25.556C26.9533 25.7727 26.3683 25.8702 25.7725 25.8702ZM25.7725 16.7268C25.4042 16.7268 25.0467 16.781 24.7867 16.9002L18.395 19.7385C17.7342 20.0418 17.4958 20.3452 17.4958 20.486C17.4958 20.6268 17.7342 20.941 18.3842 21.2335L24.7758 24.0718C25.2958 24.2993 26.2383 24.2993 26.7583 24.0718L33.1608 21.2335C33.8217 20.941 34.06 20.6268 34.06 20.486C34.06 20.3452 33.8217 20.031 33.1608 19.7385L26.7692 16.9002C26.5092 16.7918 26.1408 16.7268 25.7725 16.7268Z" fill="#0E508F"/>
<path d="M26 31.514C25.5883 31.514 25.1767 31.4273 24.7867 31.254L17.4308 27.9823C16.315 27.4948 15.4375 26.1407 15.4375 24.9165C15.4375 24.4723 15.8058 24.104 16.25 24.104C16.6942 24.104 17.0625 24.4723 17.0625 24.9165C17.0625 25.5123 17.55 26.2598 18.0917 26.509L25.4475 29.7807C25.7942 29.9323 26.195 29.9323 26.5525 29.7807L33.9083 26.509C34.45 26.2707 34.9375 25.5123 34.9375 24.9165C34.9375 24.4723 35.3058 24.104 35.75 24.104C36.1942 24.104 36.5625 24.4723 36.5625 24.9165C36.5625 26.1407 35.685 27.4948 34.5692 27.9932L27.2133 31.2648C26.8233 31.4273 26.4117 31.514 26 31.514Z" fill="#0E508F"/>
<path d="M26 36.9306C25.5883 36.9306 25.1767 36.8439 24.7867 36.6706L17.4308 33.3989C16.2175 32.8573 15.4375 31.6548 15.4375 30.3223C15.4375 29.8781 15.8058 29.5098 16.25 29.5098C16.6942 29.5098 17.0625 29.8889 17.0625 30.3331C17.0625 31.0156 17.4633 31.6439 18.0917 31.9256L25.4475 35.1973C25.7942 35.3489 26.195 35.3489 26.5525 35.1973L33.9083 31.9256C34.5367 31.6439 34.9375 31.0264 34.9375 30.3331C34.9375 29.8889 35.3058 29.5206 35.75 29.5206C36.1942 29.5206 36.5625 29.8889 36.5625 30.3331C36.5625 31.6656 35.7825 32.8681 34.5692 33.4098L27.2133 36.6814C26.8233 36.8439 26.4117 36.9306 26 36.9306Z" fill="#0E508F"/>
</svg>
