<svg width="52" height="52" viewBox="0 0 52 52" fill="none" xmlns="http://www.w3.org/2000/svg">
<path d="M21.484 37.6875C20.736 37.6875 19.9965 37.526 19.41 37.203L14.871 34.6785C13.6385 33.9985 12.678 32.358 12.678 30.947V26.1445C12.678 24.7335 13.6385 23.1015 14.871 22.413L19.41 19.897C20.5745 19.251 22.3935 19.251 23.558 19.897L28.097 22.4215C29.3295 23.1015 30.29 24.742 30.29 26.153V30.9555C30.29 32.3665 29.3295 33.9985 28.097 34.687L23.558 37.203C22.9715 37.526 22.232 37.6875 21.484 37.6875ZM21.484 20.6875C20.9485 20.6875 20.4215 20.798 20.0305 21.0105L15.4915 23.535C14.6755 23.9855 13.953 25.2095 13.953 26.1445V30.947C13.953 31.882 14.6755 33.106 15.4915 33.565L20.0305 36.0895C20.804 36.523 22.164 36.523 22.9375 36.0895L27.4765 33.565C28.2925 33.106 29.015 31.8905 29.015 30.947V26.1445C29.015 25.2095 28.2925 23.9855 27.4765 23.5265L22.9375 21.002C22.5465 20.798 22.0195 20.6875 21.484 20.6875Z" fill="#A7EB2B"/>
<path d="M21.5995 37C20.8955 37 20.1995 36.848 19.6475 36.544L15.3755 34.168C14.2155 33.528 13.3115 31.984 13.3115 30.656V26.136C13.3115 24.808 14.2155 23.272 15.3755 22.624L19.6475 20.256C20.7435 19.648 22.4555 19.648 23.5515 20.256L27.8235 22.632C28.9835 23.272 29.8875 24.816 29.8875 26.144V30.664C29.8875 31.992 28.9835 33.528 27.8235 34.176L23.5515 36.544C22.9995 36.848 22.3035 37 21.5995 37ZM21.5995 21C21.0955 21 20.5995 21.104 20.2315 21.304L15.9595 23.68C15.1915 24.104 14.5115 25.256 14.5115 26.136V30.656C14.5115 31.536 15.1915 32.688 15.9595 33.12L20.2315 35.496C20.9595 35.904 22.2395 35.904 22.9675 35.496L27.2395 33.12C28.0075 32.688 28.6875 31.544 28.6875 30.656V26.136C28.6875 25.256 28.0075 24.104 27.2395 23.672L22.9675 21.296C22.5995 21.104 22.1035 21 21.5995 21Z" fill="#A7EB2B"/>
<path d="M21.7446 20.305C21.6341 20.305 21.5236 20.2795 21.4216 20.22L13.9161 15.8765C13.6186 15.698 13.5081 15.307 13.6866 15.001C13.8651 14.695 14.2561 14.593 14.5621 14.7715L21.7446 18.928L28.8846 14.797C29.1906 14.6185 29.5816 14.729 29.7601 15.0265C29.9386 15.3325 29.8281 15.7235 29.5306 15.902L22.0761 20.22C21.9656 20.271 21.8551 20.305 21.7446 20.305Z" fill="#A7EB2B"/>
<path d="M21.7449 28.006C21.3964 28.006 21.1074 27.717 21.1074 27.3685V19.659C21.1074 19.3105 21.3964 19.0215 21.7449 19.0215C22.0934 19.0215 22.3824 19.3105 22.3824 19.659V27.3685C22.3824 27.717 22.0934 28.006 21.7449 28.006Z" fill="#A7EB2B"/>
<path d="M21.745 28.3375C20.997 28.3375 20.2575 28.176 19.671 27.853L15.132 25.3285C13.8995 24.6485 12.939 23.008 12.939 21.597V16.7945C12.939 15.3835 13.8995 13.7515 15.132 13.063L19.671 10.547C20.8355 9.901 22.6545 9.901 23.819 10.547L28.358 13.0715C29.5905 13.7515 30.551 15.392 30.551 16.803V21.6055C30.551 23.0165 29.5905 24.6485 28.358 25.337L23.819 27.853C23.2325 28.176 22.493 28.3375 21.745 28.3375ZM21.745 11.3375C21.2095 11.3375 20.6825 11.448 20.2915 11.6605L15.7525 14.185C14.9365 14.6355 14.214 15.8595 14.214 16.7945V21.597C14.214 22.532 14.9365 23.756 15.7525 24.215L20.2915 26.7395C21.065 27.173 22.425 27.173 23.1985 26.7395L27.7375 24.215C28.5535 23.756 29.276 22.5405 29.276 21.597V16.7945C29.276 15.8595 28.5535 14.6355 27.7375 14.1765L23.1985 11.652C22.8075 11.448 22.2805 11.3375 21.745 11.3375Z" fill="#A7EB2B"/>
<path d="M21.8448 20.64C21.7408 20.64 21.6368 20.616 21.5408 20.56L14.4768 16.472C14.1968 16.304 14.0928 15.936 14.2608 15.648C14.4288 15.36 14.7968 15.264 15.0848 15.432L21.8448 19.344L28.5648 15.456C28.8528 15.288 29.2208 15.392 29.3888 15.672C29.5568 15.96 29.4528 16.328 29.1728 16.496L22.1568 20.56C22.0528 20.608 21.9488 20.64 21.8448 20.64Z" fill="#A7EB2B"/>
<path d="M21.8451 27.888C21.5171 27.888 21.2451 27.616 21.2451 27.288V20.032C21.2451 19.704 21.5171 19.432 21.8451 19.432C22.1731 19.432 22.4451 19.704 22.4451 20.032V27.288C22.4451 27.616 22.1731 27.888 21.8451 27.888Z" fill="#A7EB2B"/>
<path d="M21.8451 28.2C21.1411 28.2 20.4451 28.048 19.8931 27.744L15.6211 25.368C14.4611 24.728 13.5571 23.184 13.5571 21.856V17.336C13.5571 16.008 14.4611 14.472 15.6211 13.824L19.8931 11.456C20.9891 10.848 22.7011 10.848 23.7971 11.456L28.0691 13.832C29.2291 14.472 30.1331 16.016 30.1331 17.344V21.864C30.1331 23.192 29.2291 24.728 28.0691 25.376L23.7971 27.744C23.2451 28.048 22.5491 28.2 21.8451 28.2ZM21.8451 12.2C21.3411 12.2 20.8451 12.304 20.4771 12.504L16.2051 14.88C15.4371 15.304 14.7571 16.456 14.7571 17.336V21.856C14.7571 22.736 15.4371 23.888 16.2051 24.32L20.4771 26.696C21.2051 27.104 22.4851 27.104 23.2131 26.696L27.4851 24.32C28.2531 23.888 28.9331 22.744 28.9331 21.856V17.336C28.9331 16.456 28.2531 15.304 27.4851 14.872L23.2131 12.496C22.8451 12.304 22.3491 12.2 21.8451 12.2Z" fill="#A7EB2B"/>
<path d="M29.1333 41.606C28.7848 41.606 28.4958 41.317 28.4958 40.9685V33.259C28.4958 32.9105 28.7848 32.6215 29.1333 32.6215C29.4818 32.6215 29.7708 32.9105 29.7708 33.259V40.9685C29.7708 41.317 29.4818 41.606 29.1333 41.606Z" fill="#A7EB2B"/>
<path d="M29.1334 41.9375C28.3854 41.9375 27.6459 41.776 27.0594 41.453L22.5204 38.9285C21.2879 38.2485 20.3274 36.608 20.3274 35.197V30.3945C20.3274 28.9835 21.2879 27.3515 22.5204 26.663L27.0594 24.147C28.2239 23.501 30.0429 23.501 31.2074 24.147L35.7464 26.6715C36.9789 27.3515 37.9394 28.992 37.9394 30.403V35.2055C37.9394 36.6165 36.9789 38.2485 35.7464 38.937L31.2074 41.453C30.6209 41.776 29.8814 41.9375 29.1334 41.9375ZM29.1334 24.9375C28.5979 24.9375 28.0709 25.048 27.6799 25.2605L23.1409 27.785C22.3249 28.2355 21.6024 29.4595 21.6024 30.3945V35.197C21.6024 36.132 22.3249 37.356 23.1409 37.815L27.6799 40.3395C28.4534 40.773 29.8134 40.773 30.5869 40.3395L35.1259 37.815C35.9419 37.356 36.6644 36.1405 36.6644 35.197V30.3945C36.6644 29.4595 35.9419 28.2355 35.1259 27.7765L30.5869 25.252C30.1959 25.048 29.6689 24.9375 29.1334 24.9375Z" fill="#A7EB2B"/>
<path d="M28.799 40.688C28.471 40.688 28.199 40.416 28.199 40.088V32.832C28.199 32.504 28.471 32.232 28.799 32.232C29.127 32.232 29.399 32.504 29.399 32.832V40.088C29.399 40.416 29.127 40.688 28.799 40.688Z" fill="#A7EB2B"/>
<path d="M28.799 41C28.095 41 27.399 40.848 26.847 40.544L22.575 38.168C21.415 37.528 20.511 35.984 20.511 34.656V30.136C20.511 28.808 21.415 27.272 22.575 26.624L26.847 24.256C27.943 23.648 29.655 23.648 30.751 24.256L35.023 26.632C36.183 27.272 37.087 28.816 37.087 30.144V34.664C37.087 35.992 36.183 37.528 35.023 38.176L30.751 40.544C30.199 40.848 29.503 41 28.799 41ZM28.799 25C28.295 25 27.799 25.104 27.431 25.304L23.159 27.68C22.391 28.104 21.711 29.256 21.711 30.136V34.656C21.711 35.536 22.391 36.688 23.159 37.12L27.431 39.496C28.159 39.904 29.439 39.904 30.167 39.496L34.439 37.12C35.207 36.688 35.887 35.544 35.887 34.656V30.136C35.887 29.256 35.207 28.104 34.439 27.672L30.167 25.296C29.799 25.104 29.303 25 28.799 25Z" fill="#A7EB2B"/>
<path d="M29.6894 24.8492C29.5789 24.8492 29.4684 24.8237 29.3664 24.7642L21.8609 20.4207C21.5634 20.2422 21.4529 19.8512 21.6314 19.5452C21.8099 19.2392 22.2009 19.1372 22.5069 19.3157L29.6894 23.4722L36.8294 19.3412C37.1354 19.1627 37.5264 19.2732 37.7049 19.5707C37.8834 19.8767 37.7729 20.2677 37.4754 20.4462L30.0209 24.7642C29.9104 24.8152 29.7999 24.8492 29.6894 24.8492Z" fill="#A7EB2B"/>
<path d="M29.6893 32.5503C29.3408 32.5503 29.0518 32.2613 29.0518 31.9128V24.2033C29.0518 23.8548 29.3408 23.5658 29.6893 23.5658C30.0378 23.5658 30.3268 23.8548 30.3268 24.2033V31.9128C30.3268 32.2613 30.0378 32.5503 29.6893 32.5503Z" fill="#A7EB2B"/>
<path d="M29.6891 32.8818C28.9411 32.8818 28.2016 32.7203 27.6151 32.3973L23.0761 29.8728C21.8436 29.1928 20.8831 27.5523 20.8831 26.1413V21.3388C20.8831 19.9278 21.8436 18.2958 23.0761 17.6073L27.6151 15.0913C28.7796 14.4453 30.5986 14.4453 31.7631 15.0913L36.3021 17.6158C37.5346 18.2958 38.4951 19.9363 38.4951 21.3473V26.1498C38.4951 27.5608 37.5346 29.1928 36.3021 29.8813L31.7631 32.3973C31.1766 32.7203 30.4371 32.8818 29.6891 32.8818ZM29.6891 15.8818C29.1536 15.8818 28.6266 15.9923 28.2356 16.2048L23.6966 18.7293C22.8806 19.1798 22.1581 20.4038 22.1581 21.3388V26.1413C22.1581 27.0763 22.8806 28.3003 23.6966 28.7593L28.2356 31.2838C29.0091 31.7173 30.3691 31.7173 31.1426 31.2838L35.6816 28.7593C36.4976 28.3003 37.2201 27.0848 37.2201 26.1413V21.3388C37.2201 20.4038 36.4976 19.1798 35.6816 18.7208L31.1426 16.1963C30.7516 15.9923 30.2246 15.8818 29.6891 15.8818Z" fill="#A7EB2B"/>
<path d="M29.3224 24.9169C29.2184 24.9169 29.1144 24.8929 29.0184 24.8369L21.9544 20.7489C21.6744 20.5809 21.5704 20.2129 21.7384 19.9249C21.9064 19.6369 22.2744 19.5409 22.5624 19.7089L29.3224 23.6209L36.0424 19.7329C36.3304 19.5649 36.6984 19.6689 36.8664 19.9489C37.0344 20.2369 36.9304 20.6049 36.6504 20.7729L29.6344 24.8369C29.5304 24.8849 29.4264 24.9169 29.3224 24.9169Z" fill="#A7EB2B"/>
<path d="M29.3222 32.165C28.9942 32.165 28.7222 31.893 28.7222 31.565V24.309C28.7222 23.981 28.9942 23.709 29.3222 23.709C29.6502 23.709 29.9222 23.981 29.9222 24.309V31.565C29.9222 31.893 29.6502 32.165 29.3222 32.165Z" fill="#A7EB2B"/>
<path d="M29.3219 32.477C28.6179 32.477 27.9219 32.325 27.3699 32.021L23.0979 29.645C21.9379 29.005 21.0339 27.461 21.0339 26.133V21.613C21.0339 20.285 21.9379 18.749 23.0979 18.101L27.3699 15.733C28.4659 15.125 30.1779 15.125 31.2739 15.733L35.5459 18.109C36.7059 18.749 37.6099 20.293 37.6099 21.621V26.141C37.6099 27.469 36.7059 29.005 35.5459 29.653L31.2739 32.021C30.7219 32.325 30.0259 32.477 29.3219 32.477ZM29.3219 16.477C28.8179 16.477 28.3219 16.581 27.9539 16.781L23.6819 19.157C22.9139 19.581 22.2339 20.733 22.2339 21.613V26.133C22.2339 27.013 22.9139 28.165 23.6819 28.597L27.9539 30.973C28.6819 31.381 29.9619 31.381 30.6899 30.973L34.9619 28.597C35.7299 28.165 36.4099 27.021 36.4099 26.133V21.613C36.4099 20.733 35.7299 19.581 34.9619 19.149L30.6899 16.773C30.3219 16.581 29.8259 16.477 29.3219 16.477Z" fill="#A7EB2B"/>
<path d="M25.5312 51.0625C11.4712 51.0625 0 39.615 0 25.5312C0 11.4475 11.4712 0 25.5312 0C39.5913 0 51.0625 11.4475 51.0625 25.5312C51.0625 39.615 39.615 51.0625 25.5312 51.0625ZM25.5312 3.5625C13.4187 3.5625 3.5625 13.4187 3.5625 25.5312C3.5625 37.6437 13.4187 47.5 25.5312 47.5C37.6437 47.5 47.5 37.6437 47.5 25.5312C47.5 13.4187 37.6437 3.5625 25.5312 3.5625Z" fill="#0E508F"/>
</svg>
