<svg width="57" height="57" viewBox="0 0 57 57" fill="none" xmlns="http://www.w3.org/2000/svg">
<path d="M28.4287 54.0312C14.3687 54.0312 2.89746 42.5837 2.89746 28.5C2.89746 14.4163 14.3687 2.96875 28.4287 2.96875C42.4887 2.96875 53.96 14.4163 53.96 28.5C53.96 42.5837 42.5125 54.0312 28.4287 54.0312ZM28.4287 6.53125C16.3162 6.53125 6.45996 16.3875 6.45996 28.5C6.45996 40.6125 16.3162 50.4688 28.4287 50.4688C40.5412 50.4688 50.3975 40.6125 50.3975 28.5C50.3975 16.3875 40.5412 6.53125 28.4287 6.53125Z" fill="#A7EB2B"/>
<path d="M24.4694 20.8335C24.2827 20.7257 24.0715 20.6696 23.8568 20.6708C23.6421 20.6721 23.4316 20.7307 23.2461 20.8407C23.0606 20.9508 22.9067 21.1085 22.7997 21.298C22.6928 21.4876 22.6365 21.7023 22.6365 21.921V36.0802C22.6365 36.2988 22.6928 36.5136 22.7997 36.7032C22.9067 36.8927 23.0606 37.0504 23.2461 37.1604C23.4316 37.2705 23.6421 37.3291 23.8568 37.3303C24.0715 37.3316 24.2827 37.2755 24.4694 37.1677L36.741 30.0864C36.9299 29.9774 37.087 29.8193 37.1963 29.6282C37.3056 29.4372 37.3632 29.22 37.3632 28.9989C37.3632 28.7778 37.3056 28.5607 37.1963 28.3696C37.087 28.1786 36.9299 28.0205 36.741 27.9115L24.4686 20.8327L24.4694 20.8335ZM21 21.921C21 19.6869 23.3656 18.282 25.2754 19.3828L37.547 26.4599C39.4838 27.5765 39.4846 30.418 37.5478 31.5346L25.2763 38.6176C23.3664 39.7175 21 38.3134 21 36.0786V21.9226V21.921Z" fill="#0E508F"/>
</svg>
