<svg width="52" height="52" viewBox="0 0 52 52" fill="none" xmlns="http://www.w3.org/2000/svg">
<path d="M25.5312 51.0625C11.4712 51.0625 0 39.615 0 25.5312C0 11.4475 11.4712 0 25.5312 0C39.5913 0 51.0625 11.4475 51.0625 25.5312C51.0625 39.615 39.615 51.0625 25.5312 51.0625ZM25.5312 3.5625C13.4187 3.5625 3.5625 13.4187 3.5625 25.5312C3.5625 37.6437 13.4187 47.5 25.5312 47.5C37.6437 47.5 47.5 37.6437 47.5 25.5312C47.5 13.4187 37.6437 3.5625 25.5312 3.5625Z" fill="#0E508F"/>
<path d="M34.3866 39.8693C32.5094 39.8693 30.7528 39.0514 29.5459 37.6166C29.5325 37.5898 29.4521 37.5227 29.385 37.4154C29.2375 37.2679 29.0632 36.9997 28.9157 36.745C28.3257 35.7929 28.0039 34.6666 28.0039 33.4866C28.0039 31.5288 28.8755 29.7187 30.3907 28.5118C31.5171 27.6134 32.9385 27.1172 34.3732 27.1172C35.9287 27.1172 37.3634 27.6536 38.5166 28.6593C38.6775 28.7666 38.8653 28.9677 39.0396 29.1555C40.1257 30.3489 40.7291 31.8775 40.7291 33.4731C40.7291 34.6397 40.4073 35.7795 39.8039 36.7584C39.4821 37.3216 39.0396 37.8311 38.53 38.2602C37.4439 39.3061 35.9555 39.8693 34.3866 39.8693ZM34.3866 29.142C33.3944 29.142 32.4557 29.4772 31.6646 30.1074C30.6321 30.9254 30.0287 32.1725 30.0287 33.5C30.0287 34.2911 30.2432 35.0688 30.6589 35.7393C30.7662 35.927 30.8734 36.0746 30.9941 36.2221C31.0209 36.2489 31.1014 36.3293 31.1685 36.4366C31.906 37.3082 33.1128 37.8714 34.3866 37.8714C35.4459 37.8714 36.465 37.4825 37.2428 36.7852C37.5914 36.4902 37.8864 36.1416 38.101 35.7661C38.53 35.0823 38.7446 34.3045 38.7446 33.5134C38.7446 32.4273 38.3289 31.3679 37.578 30.55C37.4841 30.4427 37.3768 30.3355 37.2696 30.255C36.4248 29.5041 35.4459 29.142 34.3866 29.142Z" fill="#A7EB2B"/>
<path d="M36.3844 34.4788H32.3751C31.8253 34.4788 31.3694 34.0229 31.3694 33.4732C31.3694 32.9234 31.8253 32.4675 32.3751 32.4675H36.3844C36.9342 32.4675 37.3901 32.9234 37.3901 33.4732C37.3901 34.0229 36.9476 34.4788 36.3844 34.4788Z" fill="#A7EB2B"/>
<path d="M34.3865 36.5305C33.8368 36.5305 33.3809 36.0746 33.3809 35.5248V31.5155C33.3809 30.9657 33.8368 30.5098 34.3865 30.5098C34.9363 30.5098 35.3922 30.9657 35.3922 31.5155V35.5248C35.3922 36.088 34.9363 36.5305 34.3865 36.5305Z" fill="#A7EB2B"/>
<path d="M24.9998 27.1975C24.8255 27.1975 24.6511 27.1573 24.4902 27.0635L12.65 20.2115C12.1673 19.9299 12.0064 19.313 12.288 18.8303C12.5696 18.3475 13.1864 18.1866 13.6557 18.4682L24.9864 25.0253L36.25 18.5085C36.7327 18.2269 37.3496 18.4012 37.6178 18.8705C37.8993 19.3533 37.725 19.97 37.2557 20.2516L25.4959 27.0635C25.3484 27.1439 25.1741 27.1975 24.9998 27.1975Z" fill="#A7EB2B"/>
<path d="M25.0001 39.3461C24.4503 39.3461 23.9944 38.8902 23.9944 38.3404V26.1784C23.9944 25.6286 24.4503 25.1727 25.0001 25.1727C25.5498 25.1727 26.0057 25.6286 26.0057 26.1784V38.3404C26.0057 38.8902 25.5498 39.3461 25.0001 39.3461Z" fill="#A7EB2B"/>
<path d="M24.9999 39.8692C23.8199 39.8692 22.6399 39.6145 21.7281 39.0915L14.5677 35.1225C12.6234 34.0497 11.0947 31.4618 11.0947 29.2359V21.6463C11.0947 19.4204 12.6234 16.8459 14.5677 15.7597L21.7281 11.7906C23.5518 10.7581 26.4213 10.7581 28.2583 11.7906L35.4188 15.7597C37.3631 16.8325 38.8918 19.4204 38.8918 21.6463V29.2359C38.8918 29.3699 38.8918 29.4772 38.8649 29.6113C38.7979 29.9599 38.5431 30.2549 38.2079 30.3622C37.8727 30.4829 37.4972 30.4025 37.2156 30.1745C35.6736 28.8336 33.2868 28.7799 31.6643 30.0806C30.6318 30.8986 30.0284 32.1456 30.0284 33.4731C30.0284 34.2642 30.2429 35.042 30.6586 35.7125C30.7659 35.9002 30.8731 36.0477 30.9938 36.1952C31.1949 36.4231 31.2754 36.7315 31.2218 37.0265C31.1681 37.3215 30.9804 37.5763 30.7122 37.7238L28.2583 39.0781C27.3465 39.6144 26.1799 39.8692 24.9999 39.8692ZM24.9999 13.0511C24.1686 13.0511 23.3238 13.2254 22.7204 13.5606L15.56 17.5297C14.2593 18.2404 13.1329 20.1713 13.1329 21.6463V29.2359C13.1329 30.7109 14.2727 32.6418 15.56 33.3525L22.7204 37.3215C23.9406 38.0054 26.0727 38.0054 27.2929 37.3215L28.7947 36.4901C28.2986 35.5917 28.0304 34.5458 28.0304 33.4731C28.0304 31.5154 28.902 29.7052 30.4172 28.4984C32.2408 27.0368 34.8556 26.7283 36.8938 27.5999V21.6195C36.8938 20.1445 35.754 18.2136 34.4668 17.5029L27.3063 13.5338C26.6761 13.2254 25.8313 13.0511 24.9999 13.0511Z" fill="#A7EB2B"/>
</svg>
