<svg width="12" height="20" viewBox="0 0 12 20" fill="none" xmlns="http://www.w3.org/2000/svg">
<path d="M2.87518 0.899976L11.3002 9.29998C11.4002 9.39998 11.4712 9.50831 11.5132 9.62498C11.5552 9.74164 11.5758 9.86664 11.5752 9.99998C11.5752 10.1333 11.5542 10.2583 11.5122 10.375C11.4702 10.4916 11.3995 10.6 11.3002 10.7L2.87518 19.125C2.64185 19.3583 2.35018 19.475 2.00018 19.475C1.65018 19.475 1.35018 19.35 1.10018 19.1C0.85018 18.85 0.72518 18.5583 0.72518 18.225C0.72518 17.8916 0.85018 17.6 1.10018 17.35L8.45018 9.99998L1.10018 2.64998C0.866845 2.41664 0.750178 2.12898 0.750178 1.78698C0.750178 1.44498 0.875178 1.14931 1.12518 0.899976C1.37518 0.649976 1.66684 0.524976 2.00018 0.524976C2.33351 0.524976 2.62518 0.649976 2.87518 0.899976Z" fill="white"/>
</svg>
