<svg width="52" height="52" viewBox="0 0 52 52" fill="none" xmlns="http://www.w3.org/2000/svg">
<path d="M25.5312 51.0625C11.4712 51.0625 0 39.615 0 25.5312C0 11.4475 11.4712 0 25.5312 0C39.5913 0 51.0625 11.4475 51.0625 25.5312C51.0625 39.615 39.615 51.0625 25.5312 51.0625ZM25.5312 3.5625C13.4187 3.5625 3.5625 13.4187 3.5625 25.5312C3.5625 37.6437 13.4187 47.5 25.5312 47.5C37.6437 47.5 47.5 37.6437 47.5 25.5312C47.5 13.4187 37.6437 3.5625 25.5312 3.5625Z" fill="#0E508F"/>
<path d="M36.4999 35.625H24.8333C24.3549 35.625 23.9583 35.2283 23.9583 34.75C23.9583 34.2717 24.3549 33.875 24.8333 33.875H36.4999C36.9783 33.875 37.3749 34.2717 37.3749 34.75C37.3749 35.2283 36.9783 35.625 36.4999 35.625Z" fill="#A7EB2B"/>
<path d="M36.4999 27.4583H24.8333C24.3549 27.4583 23.9583 27.0616 23.9583 26.5833C23.9583 26.105 24.3549 25.7083 24.8333 25.7083H36.4999C36.9783 25.7083 37.3749 26.105 37.3749 26.5833C37.3749 27.0616 36.9783 27.4583 36.4999 27.4583Z" fill="#A7EB2B"/>
<path d="M36.4999 19.2917H24.8333C24.3549 19.2917 23.9583 18.895 23.9583 18.4167C23.9583 17.9384 24.3549 17.5417 24.8333 17.5417H36.4999C36.9783 17.5417 37.3749 17.9384 37.3749 18.4167C37.3749 18.895 36.9783 19.2917 36.4999 19.2917Z" fill="#A7EB2B"/>
<path d="M16.6664 20.4582C16.4448 20.4582 16.2231 20.3765 16.0481 20.2015L14.8814 19.0349C14.5431 18.6965 14.5431 18.1365 14.8814 17.7982C15.2198 17.4599 15.7798 17.4599 16.1181 17.7982L16.6664 18.3465L19.5481 15.4649C19.8864 15.1265 20.4464 15.1265 20.7848 15.4649C21.1231 15.8032 21.1231 16.3632 20.7848 16.7015L17.2848 20.2015C17.1098 20.3765 16.8881 20.4582 16.6664 20.4582Z" fill="#A7EB2B"/>
<path d="M16.6664 28.625C16.4448 28.625 16.2231 28.5433 16.0481 28.3683L14.8814 27.2017C14.5431 26.8633 14.5431 26.3033 14.8814 25.965C15.2198 25.6267 15.7798 25.6267 16.1181 25.965L16.6664 26.5133L19.5481 23.6317C19.8864 23.2933 20.4464 23.2933 20.7848 23.6317C21.1231 23.97 21.1231 24.53 20.7848 24.8683L17.2848 28.3683C17.1098 28.5433 16.8881 28.625 16.6664 28.625Z" fill="#A7EB2B"/>
<path d="M16.6664 36.7915C16.4448 36.7915 16.2231 36.7099 16.0481 36.5349L14.8814 35.3682C14.5431 35.0299 14.5431 34.4699 14.8814 34.1315C15.2198 33.7932 15.7798 33.7932 16.1181 34.1315L16.6664 34.6799L19.5481 31.7982C19.8864 31.4599 20.4464 31.4599 20.7848 31.7982C21.1231 32.1365 21.1231 32.6965 20.7848 33.0349L17.2848 36.5349C17.1098 36.7099 16.8881 36.7915 16.6664 36.7915Z" fill="#A7EB2B"/>
<path d="M36.4999 34.625H24.8333C24.3549 34.625 23.9583 34.2283 23.9583 33.75C23.9583 33.2717 24.3549 32.875 24.8333 32.875H36.4999C36.9783 32.875 37.3749 33.2717 37.3749 33.75C37.3749 34.2283 36.9783 34.625 36.4999 34.625Z" fill="#A7EB2B"/>
<path d="M36.4999 26.4583H24.8333C24.3549 26.4583 23.9583 26.0616 23.9583 25.5833C23.9583 25.105 24.3549 24.7083 24.8333 24.7083H36.4999C36.9783 24.7083 37.3749 25.105 37.3749 25.5833C37.3749 26.0616 36.9783 26.4583 36.4999 26.4583Z" fill="#A7EB2B"/>
<path d="M36.4999 18.2917H24.8333C24.3549 18.2917 23.9583 17.895 23.9583 17.4167C23.9583 16.9384 24.3549 16.5417 24.8333 16.5417H36.4999C36.9783 16.5417 37.3749 16.9384 37.3749 17.4167C37.3749 17.895 36.9783 18.2917 36.4999 18.2917Z" fill="#A7EB2B"/>
<path d="M16.6664 19.4582C16.4448 19.4582 16.2231 19.3765 16.0481 19.2015L14.8814 18.0349C14.5431 17.6965 14.5431 17.1365 14.8814 16.7982C15.2198 16.4599 15.7798 16.4599 16.1181 16.7982L16.6664 17.3465L19.5481 14.4649C19.8864 14.1265 20.4464 14.1265 20.7848 14.4649C21.1231 14.8032 21.1231 15.3632 20.7848 15.7015L17.2848 19.2015C17.1098 19.3765 16.8881 19.4582 16.6664 19.4582Z" fill="#A7EB2B"/>
<path d="M16.6664 27.625C16.4448 27.625 16.2231 27.5433 16.0481 27.3683L14.8814 26.2017C14.5431 25.8633 14.5431 25.3033 14.8814 24.965C15.2198 24.6267 15.7798 24.6267 16.1181 24.965L16.6664 25.5133L19.5481 22.6317C19.8864 22.2933 20.4464 22.2933 20.7848 22.6317C21.1231 22.97 21.1231 23.53 20.7848 23.8683L17.2848 27.3683C17.1098 27.5433 16.8881 27.625 16.6664 27.625Z" fill="#A7EB2B"/>
<path d="M16.6664 35.7915C16.4448 35.7915 16.2231 35.7099 16.0481 35.5349L14.8814 34.3682C14.5431 34.0299 14.5431 33.4699 14.8814 33.1315C15.2198 32.7932 15.7798 32.7932 16.1181 33.1315L16.6664 33.6799L19.5481 30.7982C19.8864 30.4599 20.4464 30.4599 20.7848 30.7982C21.1231 31.1365 21.1231 31.6965 20.7848 32.0349L17.2848 35.5349C17.1098 35.7099 16.8881 35.7915 16.6664 35.7915Z" fill="#A7EB2B"/>
</svg>
