<svg width="52" height="52" viewBox="0 0 52 52" fill="none" xmlns="http://www.w3.org/2000/svg">
<path d="M25.5312 51.0625C11.4712 51.0625 0 39.615 0 25.5312C0 11.4475 11.4712 0 25.5312 0C39.5913 0 51.0625 11.4475 51.0625 25.5312C51.0625 39.615 39.615 51.0625 25.5312 51.0625ZM25.5312 3.5625C13.4187 3.5625 3.5625 13.4187 3.5625 25.5312C3.5625 37.6437 13.4187 47.5 25.5312 47.5C37.6437 47.5 47.5 37.6437 47.5 25.5312C47.5 13.4187 37.6437 3.5625 25.5312 3.5625Z" fill="#A7EB2B"/>
<path d="M33.9584 33.448H17.0417C14.1176 33.448 12.5105 31.8409 12.5105 28.9167V24.0834C12.5105 21.1592 14.1176 19.5521 17.0417 19.5521H33.9584C36.8826 19.5521 38.4897 21.1592 38.4897 24.0834V28.9167C38.4897 31.8409 36.8826 33.448 33.9584 33.448ZM17.0417 21.3646C15.1326 21.3646 14.323 22.1742 14.323 24.0834V28.9167C14.323 30.8259 15.1326 31.6355 17.0417 31.6355H33.9584C35.8676 31.6355 36.6772 30.8259 36.6772 28.9167V24.0834C36.6772 22.1742 35.8676 21.3646 33.9584 21.3646H17.0417Z" fill="#0E508F"/>
<path d="M32.75 27.4063C32.2546 27.4063 31.8438 26.9955 31.8438 26.5V20.4584C31.8438 19.963 32.2546 19.5521 32.75 19.5521C33.2454 19.5521 33.6562 19.963 33.6562 20.4584V26.5C33.6562 26.9955 33.2454 27.4063 32.75 27.4063Z" fill="#0E508F"/>
<path d="M18.25 26.198C17.7546 26.198 17.3438 25.7871 17.3438 25.2917V20.4584C17.3438 19.963 17.7546 19.5521 18.25 19.5521C18.7454 19.5521 19.1562 19.963 19.1562 20.4584V25.2917C19.1562 25.7871 18.7454 26.198 18.25 26.198Z" fill="#0E508F"/>
<path d="M23.0833 27.4063C22.5758 27.4063 22.177 26.9955 22.177 26.488L22.2374 20.4463C22.2374 19.9509 22.6483 19.5521 23.1437 19.5521C23.1437 19.5521 23.1437 19.5521 23.1558 19.5521C23.6512 19.5521 24.062 19.963 24.0499 20.4705L23.9895 26.5121C23.9895 27.0075 23.5787 27.4063 23.0833 27.4063Z" fill="#0E508F"/>
<path d="M27.9167 24.9896C27.4213 24.9896 27.0105 24.5788 27.0105 24.0834V20.4584C27.0105 19.963 27.4213 19.5521 27.9167 19.5521C28.4122 19.5521 28.823 19.963 28.823 20.4584V24.0834C28.823 24.5788 28.4122 24.9896 27.9167 24.9896Z" fill="#0E508F"/>
</svg>
