<svg width="62" height="61" viewBox="0 0 62 61" fill="none" xmlns="http://www.w3.org/2000/svg">
<path d="M32.5 55C18.4335 55 7 43.5665 7 29.5C7 15.4335 18.4335 4 32.5 4C46.5665 4 58 15.4335 58 29.5C58 43.5665 46.5665 55 32.5 55ZM32.5 7.55814C20.4023 7.55814 10.5581 17.4023 10.5581 29.5C10.5581 41.5977 20.4023 51.4419 32.5 51.4419C44.5977 51.4419 54.4419 41.5977 54.4419 29.5C54.4419 17.4023 44.5977 7.55814 32.5 7.55814Z" fill="#A7EB2B"/>
<path d="M33 34.0625C30.7575 34.0625 28.9375 32.2425 28.9375 30C28.9375 27.7575 30.7575 25.9375 33 25.9375C35.2425 25.9375 37.0625 27.7575 37.0625 30C37.0625 32.2425 35.2425 34.0625 33 34.0625ZM33 27.5625C31.6567 27.5625 30.5625 28.6567 30.5625 30C30.5625 31.3433 31.6567 32.4375 33 32.4375C34.3433 32.4375 35.4375 31.3433 35.4375 30C35.4375 28.6567 34.3433 27.5625 33 27.5625Z" fill="#0E508F"/>
<path d="M36.8662 42.0666C36.6125 42.0666 36.3587 42.0311 36.105 41.9718C35.3559 41.7705 34.7277 41.3085 34.329 40.657L34.184 40.4201C33.4712 39.2119 32.4926 39.2119 31.7797 40.4201L31.6468 40.6452C31.2481 41.3085 30.6199 41.7823 29.8708 41.9718C29.1097 42.1732 28.3243 42.0666 27.6599 41.6757L25.5818 40.503C24.8448 40.0884 24.3132 39.4133 24.0836 38.5959C23.8662 37.7786 23.9749 36.9376 24.3978 36.215C24.7481 35.6109 24.8448 35.066 24.6394 34.7225C24.434 34.379 23.9145 34.1777 23.2017 34.1777C21.4377 34.1777 20 32.7681 20 31.0387V28.9539C20 27.2245 21.4377 25.8149 23.2017 25.8149C23.9145 25.8149 24.434 25.6135 24.6394 25.27C24.8448 24.9265 24.7602 24.3816 24.3978 23.7775C23.9749 23.0549 23.8662 22.2021 24.0836 21.3966C24.3011 20.5793 24.8327 19.9041 25.5818 19.4895L27.6719 18.3168C29.0372 17.5232 30.8374 17.9852 31.6589 19.3474L31.8039 19.5843C32.5167 20.7925 33.4954 20.7925 34.2082 19.5843L34.3411 19.3592C35.1626 17.9852 36.9628 17.5232 38.3401 18.3287L40.4182 19.5014C41.1552 19.916 41.6868 20.5911 41.9164 21.4085C42.1338 22.2258 42.0251 23.0668 41.6022 23.7894C41.2519 24.3935 41.1552 24.9383 41.3606 25.2819C41.566 25.6254 42.0855 25.8267 42.7983 25.8267C44.5623 25.8267 46 27.2363 46 28.9657V31.0505C46 32.7799 44.5623 34.1895 42.7983 34.1895C42.0855 34.1895 41.566 34.3909 41.3606 34.7344C41.1552 35.0779 41.2398 35.6228 41.6022 36.2269C42.0251 36.9494 42.1459 37.8023 41.9164 38.6078C41.6989 39.4251 41.1673 40.1003 40.4182 40.5149L38.3281 41.6876C37.869 41.9363 37.3736 42.0666 36.8662 42.0666ZM32.9879 37.6838C34.0632 37.6838 35.066 38.3472 35.7546 39.5199L35.8875 39.7449C36.0325 39.9937 36.2742 40.1714 36.5641 40.2424C36.8541 40.3135 37.1441 40.278 37.3857 40.1358L39.4758 38.9513C39.79 38.7736 40.0316 38.4775 40.1283 38.1221C40.2249 37.7668 40.1766 37.3996 39.9954 37.0916C39.3067 35.9308 39.2221 34.7344 39.7537 33.8223C40.2853 32.9102 41.3848 32.389 42.7621 32.389C43.5353 32.389 44.1515 31.7849 44.1515 31.0268V28.942C44.1515 28.1958 43.5353 27.5798 42.7621 27.5798C41.3848 27.5798 40.2853 27.0586 39.7537 26.1466C39.2221 25.2345 39.3067 24.0381 39.9954 22.8773C40.1766 22.5693 40.2249 22.2021 40.1283 21.8467C40.0316 21.4914 39.802 21.2071 39.4879 21.0176L37.3978 19.8449C36.8783 19.5369 36.1896 19.7146 35.8755 20.2358L35.7426 20.4608C35.0539 21.6335 34.0511 22.2969 32.9758 22.2969C31.9006 22.2969 30.8978 21.6335 30.2091 20.4608L30.0762 20.2239C29.7742 19.7264 29.0976 19.5488 28.5781 19.8449L26.4879 21.0294C26.1738 21.2071 25.9322 21.5032 25.8355 21.8586C25.7388 22.2139 25.7872 22.5811 25.9684 22.8891C26.6571 24.05 26.7416 25.2463 26.21 26.1584C25.6784 27.0705 24.579 27.5917 23.2017 27.5917C22.4284 27.5917 21.8123 28.1958 21.8123 28.9539V31.0387C21.8123 31.7849 22.4284 32.4009 23.2017 32.4009C24.579 32.4009 25.6784 32.9221 26.21 33.8341C26.7416 34.7462 26.6571 35.9426 25.9684 37.1034C25.7872 37.4114 25.7388 37.7786 25.8355 38.134C25.9322 38.4893 26.1617 38.7736 26.4758 38.9631L28.566 40.1358C28.8197 40.2898 29.1217 40.3253 29.3996 40.2543C29.6896 40.1832 29.9312 39.9937 30.0883 39.7449L30.2212 39.5199C30.9099 38.359 31.9126 37.6838 32.9879 37.6838Z" fill="#0E508F"/>
</svg>
