<svg width="52" height="52" viewBox="0 0 52 52" fill="none" xmlns="http://www.w3.org/2000/svg">
<path d="M38.2116 25.5159C37.6732 25.5159 37.2199 25.1051 37.1491 24.5667C36.8091 21.3651 35.0807 18.4609 32.4174 16.6192C31.9357 16.2792 31.8224 15.6276 32.1482 15.1459C32.4882 14.6642 33.1541 14.5509 33.6216 14.8767C36.7949 17.0726 38.8349 20.5292 39.2457 24.3401C39.3024 24.9209 38.8916 25.4451 38.2966 25.5159C38.2824 25.5159 38.2399 25.5159 38.2116 25.5159Z" fill="#A7EB2B"/>
<path d="M13.944 25.5867C13.9015 25.5867 13.8732 25.5867 13.8307 25.5867C13.2499 25.5159 12.8249 24.9917 12.8815 24.4109C13.264 20.6 15.2899 17.1575 18.4207 14.9334C18.9024 14.5934 19.5682 14.7067 19.9082 15.1884C20.2482 15.67 20.1349 16.3359 19.6532 16.6759C17.0182 18.5317 15.3182 21.4359 14.9924 24.6375C14.9499 25.1759 14.4824 25.5867 13.944 25.5867Z" fill="#A7EB2B"/>
<path d="M26.0851 39.0308C23.9884 39.0308 21.9909 38.5492 20.1209 37.6142C19.5968 37.345 19.3843 36.7075 19.6534 36.1833C19.9226 35.6592 20.5601 35.4467 21.0843 35.7158C24.1443 37.26 27.8276 37.2883 30.9159 35.8008C31.4401 35.5458 32.0776 35.7725 32.3326 36.2967C32.5876 36.8208 32.3609 37.4583 31.8368 37.7133C30.0234 38.5917 28.0968 39.0308 26.0851 39.0308Z" fill="#A7EB2B"/>
<path d="M36.9035 32.5428C36.8395 32.5428 36.7756 32.528 36.7166 32.4936L32.3728 29.9798C32.2006 29.8765 32.1366 29.6502 32.2399 29.4731C32.3432 29.296 32.5695 29.237 32.7466 29.3403L36.9035 31.7458L41.0358 29.355C41.2128 29.2517 41.4391 29.3157 41.5424 29.4878C41.6458 29.6649 41.5818 29.8912 41.4096 29.9945L37.0953 32.4936C37.0314 32.5231 36.9674 32.5428 36.9035 32.5428Z" fill="#A7EB2B"/>
<path d="M36.9029 36.9997C36.7012 36.9997 36.5339 36.8324 36.5339 36.6307V32.1689C36.5339 31.9672 36.7012 31.7999 36.9029 31.7999C37.1046 31.7999 37.2718 31.9672 37.2718 32.1689V36.6307C37.2718 36.8324 37.1046 36.9997 36.9029 36.9997Z" fill="#A7EB2B"/>
<path d="M36.9031 37.1915C36.4702 37.1915 36.0422 37.098 35.7028 36.9111L33.0758 35.4501C32.3625 35.0565 31.8066 34.1071 31.8066 33.2905V30.511C31.8066 29.6944 32.3625 28.7499 33.0758 28.3514L35.7028 26.8953C36.3767 26.5214 37.4295 26.5214 38.1034 26.8953L40.7304 28.3564C41.4437 28.7499 41.9995 29.6993 41.9995 30.5159V33.2954C41.9995 34.112 41.4437 35.0565 40.7304 35.455L38.1034 36.9111C37.764 37.098 37.336 37.1915 36.9031 37.1915ZM36.9031 27.3528C36.5932 27.3528 36.2882 27.4168 36.0619 27.5397L33.4349 29.0008C32.9627 29.2615 32.5445 29.9699 32.5445 30.511V33.2905C32.5445 33.8316 32.9627 34.54 33.4349 34.8056L36.0619 36.2667C36.5095 36.5176 37.2966 36.5176 37.7443 36.2667L40.3712 34.8056C40.8435 34.54 41.2616 33.8365 41.2616 33.2905V30.511C41.2616 29.9699 40.8435 29.2615 40.3712 28.9959L37.7443 27.5348C37.518 27.4168 37.213 27.3528 36.9031 27.3528Z" fill="#A7EB2B"/>
<path d="M26.0808 14.7394C26.0149 14.7394 25.949 14.7242 25.8882 14.6887L21.4139 12.0994C21.2365 11.993 21.1707 11.7599 21.2771 11.5775C21.3835 11.3951 21.6166 11.3343 21.799 11.4407L26.0808 13.9185L30.3372 11.4559C30.5197 11.3495 30.7528 11.4153 30.8592 11.5927C30.9656 11.7751 30.8997 12.0082 30.7224 12.1146L26.2784 14.6887C26.2125 14.7191 26.1467 14.7394 26.0808 14.7394Z" fill="#A7EB2B"/>
<path d="M26.081 19.3303C25.8732 19.3303 25.7009 19.158 25.7009 18.9502V14.3543C25.7009 14.1465 25.8732 13.9742 26.081 13.9742C26.2887 13.9742 26.461 14.1465 26.461 14.3543V18.9502C26.461 19.158 26.2887 19.3303 26.081 19.3303Z" fill="#A7EB2B"/>
<path d="M26.0807 19.5279C25.6348 19.5279 25.1939 19.4316 24.8443 19.2391L22.1384 17.7341C21.4036 17.3287 20.8311 16.3507 20.8311 15.5096V12.6466C20.8311 11.8055 21.4036 10.8326 22.1384 10.4221L24.8443 8.92222C25.5385 8.53712 26.6229 8.53712 27.3171 8.92222L30.023 10.4272C30.7577 10.8326 31.3303 11.8105 31.3303 12.6517V15.5147C31.3303 16.3558 30.7577 17.3287 30.023 17.7392L27.3171 19.2391C26.9674 19.4316 26.5266 19.5279 26.0807 19.5279ZM26.0807 9.39347C25.7614 9.39347 25.4473 9.45935 25.2142 9.58603L22.5083 11.091C22.0218 11.3595 21.5911 12.0892 21.5911 12.6466V15.5096C21.5911 16.067 22.0218 16.7967 22.5083 17.0703L25.2142 18.5753C25.6753 18.8337 26.4861 18.8337 26.9472 18.5753L29.6531 17.0703C30.1395 16.7967 30.5702 16.0721 30.5702 15.5096V12.6466C30.5702 12.0892 30.1395 11.3595 29.6531 11.0859L26.9472 9.58096C26.7141 9.45935 26.3999 9.39347 26.0807 9.39347Z" fill="#A7EB2B"/>
<path d="M14.9998 32.65C14.9348 32.65 14.8698 32.635 14.8098 32.6L10.3948 30.045C10.2198 29.94 10.1548 29.71 10.2598 29.53C10.3648 29.35 10.5948 29.29 10.7748 29.395L14.9998 31.84L19.1998 29.41C19.3798 29.305 19.6098 29.37 19.7148 29.545C19.8198 29.725 19.7548 29.955 19.5798 30.06L15.1948 32.6C15.1298 32.63 15.0648 32.65 14.9998 32.65Z" fill="#A7EB2B"/>
<path d="M14.9998 37.18C14.7948 37.18 14.6248 37.01 14.6248 36.805V32.27C14.6248 32.065 14.7948 31.895 14.9998 31.895C15.2048 31.895 15.3748 32.065 15.3748 32.27V36.805C15.3748 37.01 15.2048 37.18 14.9998 37.18Z" fill="#A7EB2B"/>
<path d="M14.9998 37.3749C14.5598 37.3749 14.1248 37.2799 13.7798 37.0899L11.1098 35.6049C10.3848 35.2049 9.81982 34.2399 9.81982 33.4099V30.5849C9.81982 29.7549 10.3848 28.7949 11.1098 28.3899L13.7798 26.9099C14.4648 26.5299 15.5348 26.5299 16.2198 26.9099L18.8898 28.3949C19.6148 28.7949 20.1798 29.7599 20.1798 30.5899V33.4149C20.1798 34.2449 19.6148 35.2049 18.8898 35.6099L16.2198 37.0899C15.8748 37.2799 15.4398 37.3749 14.9998 37.3749ZM14.9998 27.3749C14.6848 27.3749 14.3748 27.4399 14.1448 27.5649L11.4748 29.0499C10.9948 29.3149 10.5698 30.0349 10.5698 30.5849V33.4099C10.5698 33.9599 10.9948 34.6799 11.4748 34.9499L14.1448 36.4349C14.5998 36.6899 15.3998 36.6899 15.8548 36.4349L18.5248 34.9499C19.0048 34.6799 19.4298 33.9649 19.4298 33.4099V30.5849C19.4298 30.0349 19.0048 29.3149 18.5248 29.0449L15.8548 27.5599C15.6248 27.4399 15.3148 27.3749 14.9998 27.3749Z" fill="#A7EB2B"/>
<path d="M25.5312 51.0625C11.4712 51.0625 0 39.615 0 25.5312C0 11.4475 11.4712 0 25.5312 0C39.5913 0 51.0625 11.4475 51.0625 25.5312C51.0625 39.615 39.615 51.0625 25.5312 51.0625ZM25.5312 3.5625C13.4187 3.5625 3.5625 13.4187 3.5625 25.5312C3.5625 37.6437 13.4187 47.5 25.5312 47.5C37.6437 47.5 47.5 37.6437 47.5 25.5312C47.5 13.4187 37.6437 3.5625 25.5312 3.5625Z" fill="#0E508F"/>
</svg>
