<svg width="40" height="40" viewBox="0 0 40 40" fill="none" xmlns="http://www.w3.org/2000/svg">
<path d="M27.4832 37.9166H12.4999C9.63322 37.9166 7.48323 37.15 6.1499 35.6333C4.81656 34.1167 4.29988 31.9167 4.64988 29.0667L6.1499 16.5667C6.58323 12.8833 7.51656 9.58331 14.0166 9.58331H26.0166C32.4999 9.58331 33.4332 12.8833 33.8832 16.5667L35.3832 29.0667C35.7165 31.9167 35.2166 34.1333 33.8832 35.6333C32.4999 37.15 30.3666 37.9166 27.4832 37.9166ZM13.9999 12.0833C9.19988 12.0833 8.96655 13.9833 8.61655 16.85L7.11656 29.35C6.86656 31.4666 7.16655 33.0167 8.01655 33.9667C8.86655 34.9167 10.3666 35.4 12.4999 35.4H27.4832C29.6166 35.4 31.1165 34.9167 31.9665 33.9667C32.8165 33.0167 33.1166 31.4666 32.8666 29.35L31.3666 16.85C31.0166 13.9666 30.7999 12.0833 25.9832 12.0833H13.9999Z" fill="#0E508F"/>
<path d="M26.6668 14.5833C25.9835 14.5833 25.4168 14.0166 25.4168 13.3333V7.49998C25.4168 5.69998 24.3002 4.58331 22.5002 4.58331H17.5002C15.7002 4.58331 14.5835 5.69998 14.5835 7.49998V13.3333C14.5835 14.0166 14.0168 14.5833 13.3335 14.5833C12.6502 14.5833 12.0835 14.0166 12.0835 13.3333V7.49998C12.0835 4.31665 14.3168 2.08331 17.5002 2.08331H22.5002C25.6835 2.08331 27.9168 4.31665 27.9168 7.49998V13.3333C27.9168 14.0166 27.3502 14.5833 26.6668 14.5833Z" fill="#0E508F"/>
<path d="M34.0168 29.6334H13.3335C12.6502 29.6334 12.0835 29.0667 12.0835 28.3834C12.0835 27.7 12.6502 27.1334 13.3335 27.1334H34.0168C34.7002 27.1334 35.2668 27.7 35.2668 28.3834C35.2668 29.0667 34.7002 29.6334 34.0168 29.6334Z" fill="#0E508F"/>
</svg>
