<svg width="42" height="42" viewBox="0 0 42 42" fill="none" xmlns="http://www.w3.org/2000/svg">
<path d="M5.26758 19.635V27.4925C5.26758 35.35 8.41758 38.5 16.2751 38.5H25.7076C33.5651 38.5 36.7151 35.35 36.7151 27.4925V19.635" stroke="#0E508F" stroke-width="3" stroke-linecap="round" stroke-linejoin="round"/>
<path d="M20.9999 21C24.2024 21 26.5649 18.3925 26.2499 15.19L25.0949 3.5H16.9224L15.7499 15.19C15.4349 18.3925 17.7974 21 20.9999 21Z" stroke="#0E508F" stroke-width="3" stroke-linecap="round" stroke-linejoin="round"/>
<path d="M32.0424 21C35.5774 21 38.1674 18.13 37.8174 14.6125L37.3274 9.8C36.6974 5.25 34.9474 3.5 30.3624 3.5H25.0249L26.2499 15.7675C26.5474 18.655 29.1549 21 32.0424 21Z" stroke="#0E508F" stroke-width="3" stroke-linecap="round" stroke-linejoin="round"/>
<path d="M9.87016 21C12.7577 21 15.3652 18.655 15.6452 15.7675L16.0302 11.9L16.8702 3.5H11.5327C6.94766 3.5 5.19766 5.25 4.56766 9.8L4.09516 14.6125C3.74516 18.13 6.33516 21 9.87016 21Z" stroke="#0E508F" stroke-width="3" stroke-linecap="round" stroke-linejoin="round"/>
<path d="M21 29.75C18.0775 29.75 16.625 31.2025 16.625 34.125V38.5H25.375V34.125C25.375 31.2025 23.9225 29.75 21 29.75Z" stroke="#0E508F" stroke-width="3" stroke-linecap="round" stroke-linejoin="round"/>
</svg>
