<svg width="52" height="52" viewBox="0 0 52 52" fill="none" xmlns="http://www.w3.org/2000/svg">
<path d="M25.5312 51.0625C11.4712 51.0625 0 39.615 0 25.5312C0 11.4475 11.4712 0 25.5312 0C39.5913 0 51.0625 11.4475 51.0625 25.5312C51.0625 39.615 39.615 51.0625 25.5312 51.0625ZM25.5312 3.5625C13.4187 3.5625 3.5625 13.4187 3.5625 25.5312C3.5625 37.6437 13.4187 47.5 25.5312 47.5C37.6437 47.5 47.5 37.6437 47.5 25.5312C47.5 13.4187 37.6437 3.5625 25.5312 3.5625Z" fill="#0E508F"/>
<path d="M16.8373 25.4374C15.9498 25.4374 15.0498 25.1124 14.3623 24.4499C12.0623 22.2624 11.1373 19.8749 11.6748 17.5374C12.3123 14.7874 14.7248 13.5624 16.8373 13.5624C18.9498 13.5624 21.3748 14.7999 21.9998 17.5374C22.5373 19.8749 21.5998 22.2624 19.3123 24.4499C18.6248 25.1124 17.7373 25.4374 16.8373 25.4374ZM13.4998 17.9624C13.0248 20.0499 14.4123 21.8999 15.6623 23.0874C16.3248 23.7249 17.3623 23.7124 18.0248 23.0874C19.2748 21.8999 20.6623 20.0499 20.1748 17.9499C19.7498 16.0999 18.1123 15.4374 16.8498 15.4374C15.5748 15.4374 13.9373 16.0999 13.4998 17.9624Z" fill="#A7EB2B"/>
<path d="M16.8875 19.7499C16.2 19.7499 15.6375 19.1874 15.6375 18.4999C15.6375 17.8124 16.1875 17.2499 16.8875 17.2499H16.9C17.5875 17.2499 18.15 17.8124 18.15 18.4999C18.15 19.1874 17.5875 19.7499 16.8875 19.7499Z" fill="#A7EB2B"/>
<path d="M33.1125 40.4374C32.225 40.4374 31.325 40.1124 30.625 39.4499C28.3125 37.2624 27.375 34.8749 27.925 32.5249C28.5625 29.7874 30.9875 28.5499 33.1125 28.5499C35.2375 28.5499 37.6625 29.7874 38.3 32.5249C38.8375 34.8624 37.9 37.2624 35.5875 39.4374C34.9 40.1124 34.0125 40.4374 33.1125 40.4374ZM33.1125 30.4374C31.8375 30.4374 30.1875 31.0999 29.75 32.9624C29.2625 35.0499 30.6625 36.9124 31.9125 38.0999C32.575 38.7374 33.625 38.7374 34.3 38.0999C35.55 36.9124 36.95 35.0624 36.4625 32.9749C36.05 31.0999 34.4 30.4374 33.1125 30.4374Z" fill="#A7EB2B"/>
<path d="M33.1626 34.7499C32.4751 34.7499 31.9126 34.1874 31.9126 33.4999C31.9126 32.8124 32.4626 32.2499 33.1626 32.2499H33.1751C33.8626 32.2499 34.4251 32.8124 34.4251 33.4999C34.4251 34.1874 33.8501 34.7499 33.1626 34.7499Z" fill="#A7EB2B"/>
<path d="M25 36.6874H21.65C20.2 36.6874 18.9375 35.8124 18.4375 34.4624C17.925 33.1124 18.3 31.6249 19.3875 30.6624L29.375 21.9249C29.975 21.3999 29.9875 20.6874 29.8125 20.1999C29.625 19.7124 29.15 19.1874 28.35 19.1874H25C24.4875 19.1874 24.0625 18.7624 24.0625 18.2499C24.0625 17.7374 24.4875 17.3124 25 17.3124H28.35C29.8 17.3124 31.0625 18.1874 31.5625 19.5374C32.075 20.8874 31.7 22.3749 30.6125 23.3374L20.625 32.0749C20.025 32.5999 20.0125 33.3124 20.1875 33.7999C20.375 34.2874 20.85 34.8124 21.65 34.8124H25C25.5125 34.8124 25.9375 35.2374 25.9375 35.7499C25.9375 36.2624 25.5125 36.6874 25 36.6874Z" fill="#A7EB2B"/>
<path d="M25 36.6874H21.65C20.2 36.6874 18.9375 35.8124 18.4375 34.4624C17.925 33.1124 18.3 31.6249 19.3875 30.6624L29.375 21.9249C29.975 21.3999 29.9875 20.6874 29.8125 20.1999C29.625 19.7124 29.15 19.1874 28.35 19.1874H25C24.4875 19.1874 24.0625 18.7624 24.0625 18.2499C24.0625 17.7374 24.4875 17.3124 25 17.3124H28.35C29.8 17.3124 31.0625 18.1874 31.5625 19.5374C32.075 20.8874 31.7 22.3749 30.6125 23.3374L20.625 32.0749C20.025 32.5999 20.0125 33.3124 20.1875 33.7999C20.375 34.2874 20.85 34.8124 21.65 34.8124H25C25.5125 34.8124 25.9375 35.2374 25.9375 35.7499C25.9375 36.2624 25.5125 36.6874 25 36.6874Z" fill="#A7EB2B"/>
</svg>
