<svg width="52" height="52" viewBox="0 0 52 52" fill="none" xmlns="http://www.w3.org/2000/svg">
<path d="M25.5312 51.0625C11.4712 51.0625 0 39.615 0 25.5312C0 11.4475 11.4712 0 25.5312 0C39.5913 0 51.0625 11.4475 51.0625 25.5312C51.0625 39.615 39.615 51.0625 25.5312 51.0625ZM25.5312 3.5625C13.4187 3.5625 3.5625 13.4187 3.5625 25.5312C3.5625 37.6437 13.4187 47.5 25.5312 47.5C37.6437 47.5 47.5 37.6437 47.5 25.5312C47.5 13.4187 37.6437 3.5625 25.5312 3.5625Z" fill="#A7EB2B"/>
<path d="M30.9934 36.7833H26.5601C25.9068 36.7833 24.4834 36.585 23.7251 35.8266L20.1901 33.0966L21.2634 31.7083L24.8801 34.5083C25.1718 34.7883 25.9068 35.0216 26.5601 35.0216H30.9934C32.0434 35.0216 33.1751 34.1816 33.4084 33.2366L36.2318 24.6616C36.4184 24.1483 36.3834 23.6816 36.1384 23.3433C35.8818 22.9816 35.4151 22.7716 34.8434 22.7716H30.1768C29.5701 22.7716 29.0101 22.5149 28.6251 22.0716C28.2284 21.6166 28.0534 21.0099 28.1468 20.3799L28.7301 16.6349C28.8701 15.9816 28.4268 15.2466 27.7968 15.0366C27.2251 14.8266 26.4901 15.1299 26.2334 15.5033L21.4501 22.6199L20.0034 21.6516L24.7868 14.5349C25.5218 13.4383 27.1318 12.9133 28.3918 13.3916C29.8501 13.8699 30.7834 15.4799 30.4567 16.9733L29.8851 20.6483C29.8734 20.7299 29.8734 20.8466 29.9551 20.9399C30.0134 20.9983 30.0951 21.0333 30.1884 21.0333H34.8551C35.9984 21.0333 36.9901 21.5116 37.5734 22.3399C38.1451 23.1449 38.2618 24.2066 37.8884 25.2333L35.1001 33.7266C34.6684 35.4183 32.8718 36.7833 30.9934 36.7833Z" fill="#0E508F"/>
<path d="M18.2766 35.5H17.1099C14.9516 35.5 13.9016 34.485 13.9016 32.4083V20.975C13.9016 18.8983 14.9516 17.8833 17.1099 17.8833H18.2766C20.4349 17.8833 21.4849 18.8983 21.4849 20.975V32.4083C21.4849 34.485 20.4349 35.5 18.2766 35.5ZM17.1099 19.6333C15.8383 19.6333 15.6516 19.9366 15.6516 20.975V32.4083C15.6516 33.4466 15.8383 33.75 17.1099 33.75H18.2766C19.5483 33.75 19.7349 33.4466 19.7349 32.4083V20.975C19.7349 19.9366 19.5483 19.6333 18.2766 19.6333H17.1099Z" fill="#0E508F"/>
</svg>
