<svg width="30" height="35" viewBox="0 0 30 35" fill="none" xmlns="http://www.w3.org/2000/svg">
<path d="M2 35C0.906667 35 0 34.1429 0 33.1092V27.8908C0 26.8571 0.906667 26 2 26C3.09333 26 4 26.8571 4 27.8908V33.1092C4 34.1681 3.09333 35 2 35Z" fill="#0E508F"/>
<path d="M15 35C13.9067 35 13 34.1575 13 33.1416V22.8584C13 21.8425 13.9067 21 15 21C16.0933 21 17 21.8425 17 22.8584V33.1416C17 34.1823 16.0933 35 15 35Z" fill="#0E508F"/>
<path d="M28 35C26.9067 35 26 34.1192 26 33.057V16.943C26 15.8808 26.9067 15 28 15C29.0933 15 30 15.8808 30 16.943V33.057C30 34.1451 29.12 35 28 35Z" fill="#0E508F"/>
<path d="M1.92285 20C1.0542 20 0.287755 19.4307 0.0578202 18.5891C-0.197663 17.599 0.415496 16.5841 1.46298 16.3366C10.8648 14.0593 19.1424 9.08392 25.4529 1.9798L26.6281 0.643138C27.3179 -0.124206 28.5187 -0.223218 29.3362 0.445114C30.1282 1.11345 30.2304 2.27684 29.5406 3.06893L28.3654 4.4056C21.544 12.1285 12.5509 17.4999 2.38272 19.9505C2.22943 20 2.07614 20 1.92285 20Z" fill="#0E508F"/>
<path d="M28.1377 11C27.1196 11 26.2754 10.1538 26.2754 9.13348V3.73303H20.8623C19.8442 3.73303 19 2.88688 19 1.86652C19 0.846154 19.8442 0 20.8623 0H28.1377C29.1558 0 30 0.846154 30 1.86652V9.15837C30 10.1787 29.1806 11 28.1377 11Z" fill="#0E508F"/>
</svg>
