<svg width="46" height="46" viewBox="0 0 46 46" fill="none" xmlns="http://www.w3.org/2000/svg">
<path d="M10.0833 10.5C9.53105 10.5 9.08333 10.9477 9.08333 11.5V29.5C9.08333 30.0523 9.53105 30.5 10.0833 30.5H38.9167C39.469 30.5 39.9167 30.0523 39.9167 29.5V11.5C39.9167 10.9477 39.469 10.5 38.9167 10.5H10.0833ZM6 9C6 8.44772 6.44772 8 7 8H42C42.5523 8 43 8.44772 43 9V31.75C43 32.0815 42.8376 32.3995 42.5485 32.6339C42.2593 32.8683 41.8672 33 41.4583 33H7.54167C7.13279 33 6.74066 32.8683 6.45154 32.6339C6.16243 32.3995 6 32.0815 6 31.75V9Z" fill="#0E508F"/>
<path d="M15.936 42.2343C15.6656 42.7078 15.1621 43 14.6168 43C13.4506 43 12.7193 41.7403 13.2976 40.7275L18.091 32.3325C18.51 31.5987 19.4472 31.3475 20.177 31.7736C20.8971 32.1939 21.1441 33.1159 20.7306 33.84L15.936 42.2343ZM35.7024 40.7275C36.2807 41.7403 35.5494 43 34.3832 43C33.8379 43 33.3344 42.7078 33.064 42.2343L28.2694 33.84C27.8559 33.1159 28.1029 32.1939 28.823 31.7735C29.5528 31.3475 30.49 31.5987 30.909 32.3325L35.7024 40.7275Z" fill="#0E508F"/>
</svg>
