<svg width="51" height="51" viewBox="0 0 51 51" fill="none" xmlns="http://www.w3.org/2000/svg">
<path d="M25.5 51C11.4335 51 0 39.5665 0 25.5C0 11.4335 11.4335 0 25.5 0C39.5665 0 51 11.4335 51 25.5C51 39.5665 39.5665 51 25.5 51ZM25.5 3.55814C13.4023 3.55814 3.55814 13.4023 3.55814 25.5C3.55814 37.5977 13.4023 47.4419 25.5 47.4419C37.5977 47.4419 47.4419 37.5977 47.4419 25.5C47.4419 13.4023 37.5977 3.55814 25.5 3.55814Z" fill="#A7EB2B"/>
<path d="M25.9999 31.4125C23.0124 31.4125 20.5874 28.9875 20.5874 26C20.5874 23.0125 23.0124 20.5875 25.9999 20.5875C28.9874 20.5875 31.4124 23.0125 31.4124 26C31.4124 28.9875 28.9874 31.4125 25.9999 31.4125ZM25.9999 22.4625C24.0499 22.4625 22.4624 24.05 22.4624 26C22.4624 27.95 24.0499 29.5375 25.9999 29.5375C27.9499 29.5375 29.5374 27.95 29.5374 26C29.5374 24.05 27.9499 22.4625 25.9999 22.4625Z" fill="#0E508F"/>
<path d="M26.0003 37.275C21.3003 37.275 16.8628 34.525 13.8128 29.75C12.4878 27.6875 12.4878 24.325 13.8128 22.25C16.8753 17.475 21.3128 14.725 26.0003 14.725C30.6878 14.725 35.1253 17.475 38.1753 22.25C39.5003 24.3125 39.5003 27.675 38.1753 29.75C35.1253 34.525 30.6878 37.275 26.0003 37.275ZM26.0003 16.6C21.9628 16.6 18.1003 19.025 15.4003 23.2625C14.4628 24.725 14.4628 27.275 15.4003 28.7375C18.1003 32.975 21.9628 35.4 26.0003 35.4C30.0378 35.4 33.9003 32.975 36.6003 28.7375C37.5378 27.275 37.5378 24.725 36.6003 23.2625C33.9003 19.025 30.0378 16.6 26.0003 16.6Z" fill="#0E508F"/>
</svg>
